<?xml version="1.0" encoding="UTF-8" standalone="no"?>
<!-- Created with Inkscape (http://www.inkscape.org/) -->

<svg
   xmlns:dc="http://purl.org/dc/elements/1.1/"
   xmlns:cc="http://creativecommons.org/ns#"
   xmlns:rdf="http://www.w3.org/1999/02/22-rdf-syntax-ns#"
   xmlns:svg="http://www.w3.org/2000/svg"
   xmlns="http://www.w3.org/2000/svg"
   xmlns:sodipodi="http://sodipodi.sourceforge.net/DTD/sodipodi-0.dtd"
   xmlns:inkscape="http://www.inkscape.org/namespaces/inkscape"
   width="148"
   height="56"
   id="svg2"
   version="1.1"
   inkscape:version="0.48.4 r9939"
   sodipodi:docname="saw-tit-land.svg">
  <defs
     id="defs4" />
  <sodipodi:namedview
     id="base"
     pagecolor="#ffffff"
     bordercolor="#666666"
     borderopacity="1.0"
     inkscape:pageopacity="0.0"
     inkscape:pageshadow="2"
     inkscape:zoom="9.3181667"
     inkscape:cx="73.73947"
     inkscape:cy="28.553721"
     inkscape:document-units="px"
     inkscape:current-layer="layer1"
     showgrid="true"
     inkscape:window-width="1867"
     inkscape:window-height="1059"
     inkscape:window-x="49"
     inkscape:window-y="-4"
     inkscape:window-maximized="1"
     width="120px"
     inkscape:snap-bbox="true"
     inkscape:bbox-paths="true"
     inkscape:bbox-nodes="true"
     inkscape:snap-bbox-edge-midpoints="true"
     inkscape:snap-bbox-midpoints="true">
    <inkscape:grid
       type="xygrid"
       id="grid2985"
       empspacing="4"
       visible="true"
       enabled="true"
       snapvisiblegridlinesonly="true" />
  </sodipodi:namedview>
  <metadata
     id="metadata7">
    <rdf:RDF>
      <cc:Work
         rdf:about="">
        <dc:format>image/svg+xml</dc:format>
        <dc:type
           rdf:resource="http://purl.org/dc/dcmitype/StillImage" />
        <dc:title></dc:title>
      </cc:Work>
    </rdf:RDF>
  </metadata>
  <g
     inkscape:label="Layer 1"
     inkscape:groupmode="layer"
     id="layer1"
     transform="translate(0,-996.3622)">
    <rect
       ry="24"
       y="1000.3622"
       x="4"
       height="48"
       width="140"
       id="rect5220"
       style="fill:none;stroke:#000000;stroke-width:1.5;stroke-linecap:round;stroke-linejoin:round;stroke-miterlimit:4;stroke-opacity:1;stroke-dasharray:none;display:inline" />
    <path
       inkscape:connector-curvature="0"
       id="path5222"
       d="m 144,1000.3622 0,48"
       style="fill:none;stroke:#000000;stroke-width:1.5;stroke-linecap:round;stroke-linejoin:round;stroke-miterlimit:4;stroke-opacity:1;stroke-dasharray:none;display:inline" />
    <g
       style="display:inline"
       transform="translate(91.763616,91.700454)"
       id="g5224">
      <g
         id="g5226">
        <path
           style="fill:none;stroke:#000000;stroke-width:1.50000012;stroke-linecap:round;stroke-linejoin:round;stroke-miterlimit:4;stroke-opacity:1;stroke-dasharray:none"
           d="m 31.339331,922.20068 c 0,0 -2.779777,-2.97952 -2.779777,-3.7244 0,-0.74488 1.389889,-2.23464 1.389889,-3.7244 0,-1.48976 -4.169666,-2.23464 -4.86461,-1.48976 C 24.389888,914.007 23,916.24164 23,916.98652 c 0,0.74488 2.779777,2.23464 2.084833,2.97952 C 24.389888,920.71092 23,922.20068 23,922.20068 c 2.084833,2.97952 2.63391,11.59354 2.63391,11.59354 l 3.620588,-0.42035 2.084833,-11.17319"
           id="path5228"
           inkscape:connector-curvature="0"
           sodipodi:nodetypes="cssssscccc" />
        <path
           style="fill:none;stroke:#000000;stroke-width:1.50000012;stroke-linecap:round;stroke-linejoin:round;stroke-miterlimit:4;stroke-opacity:1;stroke-dasharray:none"
           d="m 25.070737,916.10128 0.435047,0"
           id="path5230"
           inkscape:connector-curvature="0" />
        <path
           style="fill:none;stroke:#000000;stroke-width:1.5;stroke-linecap:round;stroke-linejoin:round;stroke-miterlimit:4;stroke-opacity:1;stroke-dasharray:none"
           d="m 29.122702,-70.89067 -0.02342,18.828068 -3.623889,0"
           id="path5232"
           inkscape:connector-curvature="0"
           transform="translate(0,1004.3622)"
           sodipodi:nodetypes="ccc" />
        <path
           style="fill:none;stroke:#000000;stroke-width:1.5;stroke-linecap:round;stroke-linejoin:round;stroke-miterlimit:4;stroke-opacity:1;stroke-dasharray:none"
           d="m 25.691748,-70.236134 -3.894328,18.22762 -3.732064,0"
           id="path5234"
           inkscape:connector-curvature="0"
           transform="translate(0,1004.3622)"
           sodipodi:nodetypes="ccc" />
        <path
           style="fill:none;stroke:#000000;stroke-width:1.50000012;stroke-linecap:round;stroke-linejoin:round;stroke-miterlimit:4;stroke-opacity:1;stroke-dasharray:none"
           d="m 31.370978,922.22677 0.865406,16.11818"
           id="path5236"
           inkscape:connector-curvature="0" />
        <path
           style="fill:none;stroke:#000000;stroke-width:1.5;stroke-linecap:round;stroke-linejoin:round;stroke-miterlimit:4;stroke-opacity:1;stroke-dasharray:none"
           d="m 22.825091,922.49717 -0.432703,7.35595 -4.723676,6.30275"
           id="path5238"
           inkscape:connector-curvature="0"
           sodipodi:nodetypes="ccc" />
        <path
           style="fill:none;stroke:#000000;stroke-width:1.5;stroke-linecap:round;stroke-linejoin:round;stroke-miterlimit:4;stroke-opacity:1;stroke-dasharray:none"
           d="m 24.564918,-90.299738 c 2.256004,-0.128705 4.618055,2.512173 3.906348,4.056593"
           id="path5240"
           inkscape:connector-curvature="0"
           transform="translate(0,1004.3622)"
           sodipodi:nodetypes="cc" />
      </g>
    </g>
    <g
       style="display:inline"
       id="g5244"
       transform="translate(19.42,136.52736)">
      <path
         style="fill:none;stroke:#000000;stroke-width:1.5;stroke-linecap:round;stroke-linejoin:round;stroke-miterlimit:4;stroke-opacity:1;stroke-dasharray:none"
         d="m 3.84,-102.24 c 1.4561816,-0.13129 3.1405417,-0.28973 4.2,0.24 11.912826,5.956413 23.507878,-0.72 35.28,-0.72"
         id="path5246"
         inkscape:connector-curvature="0"
         transform="translate(0,1004.3622)" />
      <path
         style="fill:none;stroke:#000000;stroke-width:1.5;stroke-linecap:round;stroke-linejoin:round;stroke-miterlimit:4;stroke-opacity:1;stroke-dasharray:none"
         d="m 4.08,-102.6 c 1.2984256,-0.35231 3.2388268,-0.59883 4.2,-1.56 12.448914,-12.44891 19.800273,0.48 34.8,0.48"
         id="path5248"
         inkscape:connector-curvature="0"
         transform="translate(0,1004.3622)" />
      <path
         sodipodi:type="arc"
         style="fill:none;stroke:#000000;stroke-width:1.5;stroke-linecap:round;stroke-linejoin:round;stroke-miterlimit:4;stroke-opacity:1;stroke-dasharray:none"
         id="path5250"
         sodipodi:cx="18.66"
         sodipodi:cy="-104.64"
         sodipodi:rx="5.0999999"
         sodipodi:ry="4.8000002"
         d="m 23.76,-104.64 c 0,2.65097 -2.283348,4.800001 -5.1,4.800001 -2.816652,0 -5.1,-2.149031 -5.1,-4.800001 0,-2.65097 2.283348,-4.8 5.1,-4.8 2.816652,0 5.1,2.14903 5.1,4.8 z"
         transform="translate(1,1004.3622)" />
    </g>
    <g
       style="display:inline"
       id="g5286"
       transform="translate(11,402.00006)">
      <path
         sodipodi:nodetypes="ccccsssc"
         inkscape:transform-center-y="-1.4651641"
         inkscape:transform-center-x="-11.211995"
         inkscape:connector-curvature="0"
         id="rect5252"
         d="m 32.070555,608.63479 0.448287,2.19067 -2.449489,1.41422 -0.06935,4.12252 17.386665,4.65874 c 2.140492,0.57355 4.325437,-0.68793 4.89898,-2.82842 0.573543,-2.1405 -0.687936,-4.32544 -2.828427,-4.89898 z"
         style="fill:none;stroke:#000000;stroke-width:1.5;stroke-linecap:round;stroke-linejoin:round;stroke-miterlimit:4;stroke-opacity:1;stroke-dasharray:none" />
      <path
         inkscape:transform-center-y="-1.4651662"
         inkscape:transform-center-x="11.211998"
         sodipodi:nodetypes="sssccccs"
         inkscape:connector-curvature="0"
         id="rect5256"
         d="m 10.542776,613.29353 c -2.1404915,0.57355 -3.40197,2.75849 -2.828427,4.89898 0.5735431,2.14049 2.758488,3.40197 4.89898,2.82843 l 17.386665,-4.65874 -2.001203,-3.60489 1.414214,-2.44949 -1.483564,-1.67303 z"
         style="fill:none;stroke:#000000;stroke-width:1.5;stroke-linecap:round;stroke-linejoin:round;stroke-miterlimit:4;stroke-opacity:1;stroke-dasharray:none" />
      <path
         inkscape:connector-curvature="0"
         id="path5282"
         d="m 28.54379,606.3622 -1,-3"
         style="fill:none;stroke:#000000;stroke-width:1.5;stroke-linecap:round;stroke-linejoin:round;stroke-miterlimit:4;stroke-opacity:1;stroke-dasharray:none" />
      <path
         inkscape:connector-curvature="0"
         id="path5284"
         d="m 31.410589,606.3622 1,-3"
         style="fill:none;stroke:#000000;stroke-width:1.5;stroke-linecap:round;stroke-linejoin:round;stroke-miterlimit:4;stroke-opacity:1;stroke-dasharray:none" />
    </g>
    <g
       transform="translate(12,402.00006)"
       style="display:inline"
       id="g5301">
      <path
         sodipodi:open="true"
         sodipodi:end="10.722103"
         sodipodi:start="5.0032174"
         transform="translate(0,1004.3622)"
         d="m 78.014443,-391.41209 c 7.407295,2.21711 11.614766,10.01924 9.39765,17.42653 -2.217116,7.4073 -10.019242,11.61477 -17.426536,9.39765 -7.407295,-2.21711 -11.614766,-10.01924 -9.39765,-17.42653 1.376005,-4.59718 5.010671,-8.1693 9.631038,-9.46531"
         sodipodi:ry="14"
         sodipodi:rx="14"
         sodipodi:cy="-378"
         sodipodi:cx="74"
         id="path5292"
         style="fill:none;stroke:#000000;stroke-width:1.5;stroke-linecap:round;stroke-linejoin:round;stroke-miterlimit:4;stroke-opacity:1;stroke-dasharray:none"
         sodipodi:type="arc" />
      <path
         sodipodi:nodetypes="ccccc"
         inkscape:connector-curvature="0"
         id="rect5296"
         d="m 70,608.36218 8,0 0,4.47522 -8,0 z"
         style="fill:none;stroke:#000000;stroke-width:1.5;stroke-linecap:round;stroke-linejoin:round;stroke-miterlimit:4;stroke-opacity:1" />
      <path
         transform="translate(0,1004.3622)"
         inkscape:connector-curvature="0"
         id="path5299"
         d="m 74,-396 c 0,-3 1,-6 3,-6 2,0 3,6 7,6 4,0 6,-1 6,-1"
         style="fill:none;stroke:#000000;stroke-width:1.5;stroke-linecap:round;stroke-linejoin:round;stroke-miterlimit:4;stroke-opacity:1;stroke-dasharray:none" />
    </g>
  </g>
</svg>
