<?xml version="1.0" encoding="UTF-8" standalone="no"?>
<!-- Created with Inkscape (http://www.inkscape.org/) -->

<svg
   xmlns:dc="http://purl.org/dc/elements/1.1/"
   xmlns:cc="http://creativecommons.org/ns#"
   xmlns:rdf="http://www.w3.org/1999/02/22-rdf-syntax-ns#"
   xmlns:svg="http://www.w3.org/2000/svg"
   xmlns="http://www.w3.org/2000/svg"
   xmlns:sodipodi="http://sodipodi.sourceforge.net/DTD/sodipodi-0.dtd"
   xmlns:inkscape="http://www.inkscape.org/namespaces/inkscape"
   width="132"
   height="48"
   id="svg2"
   version="1.1"
   inkscape:version="0.48.4 r9939"
   sodipodi:docname="eye-can-knot-meat-yew.svg">
  <defs
     id="defs4" />
  <sodipodi:namedview
     id="base"
     pagecolor="#ffffff"
     bordercolor="#666666"
     borderopacity="1.0"
     inkscape:pageopacity="0.0"
     inkscape:pageshadow="2"
     inkscape:zoom="6.4709492"
     inkscape:cx="75.385645"
     inkscape:cy="14.284355"
     inkscape:document-units="px"
     inkscape:current-layer="layer1"
     showgrid="true"
     inkscape:window-width="1867"
     inkscape:window-height="1059"
     inkscape:window-x="49"
     inkscape:window-y="-4"
     inkscape:window-maximized="1"
     width="120px"
     inkscape:snap-bbox="true"
     inkscape:bbox-paths="true"
     inkscape:bbox-nodes="true"
     inkscape:snap-bbox-edge-midpoints="true"
     inkscape:snap-bbox-midpoints="true">
    <inkscape:grid
       type="xygrid"
       id="grid2985"
       empspacing="4"
       visible="true"
       enabled="true"
       snapvisiblegridlinesonly="true" />
  </sodipodi:namedview>
  <metadata
     id="metadata7">
    <rdf:RDF>
      <cc:Work
         rdf:about="">
        <dc:format>image/svg+xml</dc:format>
        <dc:type
           rdf:resource="http://purl.org/dc/dcmitype/StillImage" />
        <dc:title />
      </cc:Work>
    </rdf:RDF>
  </metadata>
  <g
     inkscape:label="Layer 1"
     inkscape:groupmode="layer"
     id="layer1"
     transform="translate(0,-1004.3622)">
    <g
       style="display:inline"
       transform="matrix(1.1113746,0,0,0.93893532,-162.82342,220.4956)"
       id="g4188">
      <path
         transform="translate(1,1001.3622)"
         d="m 182.76001,-133.74001 c 0,2.22019 -7.01122,4.02 -15.66,4.02 -8.64878,0 -15.66,-1.79981 -15.66,-4.02 0,-2.22018 7.01122,-4.02 15.66,-4.02 8.64878,0 15.66,1.79982 15.66,4.02 z"
         sodipodi:ry="4.02"
         sodipodi:rx="15.66"
         sodipodi:cy="-133.74001"
         sodipodi:cx="167.10001"
         id="path4190"
         style="fill:none;stroke:#000000;stroke-width:1.46839583;stroke-linecap:round;stroke-linejoin:round;stroke-miterlimit:4;stroke-opacity:1;stroke-dasharray:none"
         sodipodi:type="arc" />
      <path
         sodipodi:open="true"
         sodipodi:end="9.6176628"
         sodipodi:start="6.1195989"
         sodipodi:type="arc"
         style="fill:none;stroke:#000000;stroke-width:1.46839583;stroke-linecap:round;stroke-linejoin:round;stroke-miterlimit:4;stroke-opacity:1;stroke-dasharray:none"
         id="path4192"
         sodipodi:cx="167.10001"
         sodipodi:cy="-133.74001"
         sodipodi:rx="15.66"
         sodipodi:ry="4.02"
         d="m 182.55094,-134.39469 c 1.40852,2.19054 -4.36727,4.25944 -12.90058,4.62102 -8.53332,0.36157 -16.59276,-1.1211 -18.00129,-3.31165 -0.30384,-0.47254 -0.2763,-0.95523 0.0814,-1.42528"
         transform="translate(1,1010.3622)" />
      <path
         sodipodi:nodetypes="cc"
         inkscape:connector-curvature="0"
         id="path4194"
         d="m 153.19104,876.19315 -0.12056,-7.15342"
         style="fill:none;stroke:#000000;stroke-width:1.46839583;stroke-linecap:round;stroke-linejoin:round;stroke-miterlimit:4;stroke-opacity:1;stroke-dasharray:none" />
      <path
         style="fill:none;stroke:#000000;stroke-width:1.46839583;stroke-linecap:round;stroke-linejoin:round;stroke-miterlimit:4;stroke-opacity:1;stroke-dasharray:none"
         d="m 183.13092,876.19315 -0.12056,-7.15342"
         id="path4196"
         inkscape:connector-curvature="0"
         sodipodi:nodetypes="cc" />
    </g>
    <g
       style="display:inline"
       transform="translate(-99.8,120.84493)"
       id="g4198">
      <path
         sodipodi:nodetypes="ccccccccccccc"
         inkscape:connector-curvature="0"
         id="path4200"
         d="m 151.9,904.4622 c 4.47313,-4.06504 7.91542,-7.47186 12.97938,-10.79746 m 6.3632,-3.96697 c 2.21058,-1.21802 5.92434,-1.79987 8.6257,0.27625 2.09673,1.42696 2.58727,4.61474 0.88758,6.53944 -2.70789,3.1236 -7.13628,3.70503 -11.03036,3.92113 -2.92873,0.0554 -5.40645,0.25268 -8.26815,-0.56485 m -5.7968,-2.94437 c -2.12892,-1.49661 -2.38553,-4.30896 -0.5474,-6.37786 2.18458,-2.60385 6.09323,-2.39953 8.93203,-1.082 4.16715,1.84618 7.1187,4.03264 10.6227,6.93386 m 5.82606,4.95692 c 1.25089,1.14373 2.00962,1.80516 3.20606,3.00591"
         style="fill:none;stroke:#000000;stroke-width:1.5;stroke-linecap:round;stroke-linejoin:round;stroke-miterlimit:4;stroke-opacity:1;stroke-dasharray:none" />
    </g>
    <g
       style="display:inline"
       transform="translate(0.42,114.57113)"
       id="g4202">
      <path
         transform="translate(0,1004.3622)"
         inkscape:connector-curvature="0"
         id="path4204"
         d="m 3.84,-102.24 c 1.4561816,-0.13129 3.1405417,-0.28973 4.2,0.24 11.912826,5.956413 23.507878,-0.72 35.28,-0.72"
         style="fill:none;stroke:#000000;stroke-width:1.5;stroke-linecap:round;stroke-linejoin:round;stroke-miterlimit:4;stroke-opacity:1;stroke-dasharray:none" />
      <path
         transform="translate(0,1004.3622)"
         inkscape:connector-curvature="0"
         id="path4206"
         d="m 4.08,-102.6 c 1.2984256,-0.35231 3.2388268,-0.59883 4.2,-1.56 12.448914,-12.44891 19.800273,0.48 34.8,0.48"
         style="fill:none;stroke:#000000;stroke-width:1.5;stroke-linecap:round;stroke-linejoin:round;stroke-miterlimit:4;stroke-opacity:1;stroke-dasharray:none" />
      <path
         transform="translate(1,1004.3622)"
         d="m 23.76,-104.64 c 0,2.65097 -2.283348,4.800001 -5.1,4.800001 -2.816652,0 -5.1,-2.149031 -5.1,-4.800001 0,-2.65097 2.283348,-4.8 5.1,-4.8 2.816652,0 5.1,2.14903 5.1,4.8 z"
         sodipodi:ry="4.8000002"
         sodipodi:rx="5.0999999"
         sodipodi:cy="-104.64"
         sodipodi:cx="18.66"
         id="path4208"
         style="fill:none;stroke:#000000;stroke-width:1.5;stroke-linecap:round;stroke-linejoin:round;stroke-miterlimit:4;stroke-opacity:1;stroke-dasharray:none"
         sodipodi:type="arc" />
    </g>
    <g
       style="display:inline"
       transform="translate(-196.23527,146.50664)"
       id="g4226">
      <path
         style="fill:none;stroke:#000000;stroke-width:1.5;stroke-linecap:round;stroke-linejoin:round;stroke-miterlimit:4;stroke-opacity:1"
         d="m 259.01668,896.31615 c 4.06678,0.56273 7.87961,-1.42209 13.43522,-0.82066 5.72502,0.61977 7.86985,0.20525 8.4142,-1.36502 0.97783,-2.82065 -5.6664,-6.13628 -14.84029,-7.40568 -9.17389,-1.26939 -17.40349,-0.0118 -18.38131,2.80882 -0.97783,2.82066 2.19828,5.51315 11.37218,6.78254 z"
         id="path4228"
         inkscape:connector-curvature="0"
         sodipodi:nodetypes="ssssss" />
      <path
         sodipodi:nodetypes="ssssss"
         inkscape:connector-curvature="0"
         id="path4230"
         d="m 268.44094,892.55787 c 1.05534,0.13372 1.98045,-0.29874 2.80761,-0.26888 0.90762,0.0328 1.70572,-0.11675 1.84699,-0.48991 0.25374,-0.6703 -0.74708,-1.32007 -3.12772,-1.62172 -2.38065,-0.30167 -4.51625,-0.003 -4.77001,0.66748 -0.25373,0.6703 0.86247,1.41138 3.24313,1.71303 z"
         style="fill:none;stroke:#000000;stroke-width:1.5;stroke-linecap:round;stroke-linejoin:round;stroke-miterlimit:4;stroke-opacity:1" />
      <path
         sodipodi:nodetypes="cssssc"
         inkscape:connector-curvature="0"
         id="path4232"
         d="m 247.40337,891.81615 0.093,3.45505 c 0.0627,2.33151 3.77088,4.41046 11.52032,5.48275 4.06678,0.56272 7.87961,-1.42209 13.43522,-0.82067 5.72502,0.61977 8.63681,0.13865 8.61514,-1.47554 l -0.0512,-3.81359"
         style="fill:none;stroke:#000000;stroke-width:1.5;stroke-linecap:round;stroke-linejoin:round;stroke-miterlimit:4;stroke-opacity:1" />
    </g>
    <g
       style="display:inline"
       id="g4303"
       transform="translate(-10.176645,143.02624)">
      <path
         style="fill:none;stroke:#000000;stroke-width:1.5;stroke-linecap:round;stroke-linejoin:round;stroke-miterlimit:4;stroke-opacity:1;stroke-dasharray:none"
         d="M 119.68394,903.33598 C 115.42431,891.55711 107.64,889.94075 104.01703,890.20005"
         id="path4305"
         inkscape:connector-curvature="0"
         sodipodi:nodetypes="cc" />
      <path
         sodipodi:nodetypes="cc"
         inkscape:connector-curvature="0"
         id="path4307"
         d="m 116.62124,891.51355 c -3.99979,-7.31274 -10.42202,-9.34627 -13.89998,-9.57713"
         style="fill:none;stroke:#000000;stroke-width:1.5;stroke-linecap:round;stroke-linejoin:round;stroke-miterlimit:4;stroke-opacity:1;stroke-dasharray:none" />
      <path
         style="fill:none;stroke:#000000;stroke-width:1.5;stroke-linecap:round;stroke-linejoin:round;stroke-miterlimit:4;stroke-opacity:1;stroke-dasharray:none"
         d="M 117.15132,886.50938 C 113.47204,876.01982 104.53354,873.5239 104.01703,873.62202"
         id="path4309"
         inkscape:connector-curvature="0"
         sodipodi:nodetypes="cc" />
      <path
         style="fill:none;stroke:#000000;stroke-width:1.5;stroke-linecap:round;stroke-linejoin:round;stroke-miterlimit:4;stroke-opacity:1;stroke-dasharray:none"
         d="m 117.5636,879.87896 c -3.65168,-9.2577 -7.24447,-11.25935 -7.24447,-11.25935"
         id="path4311"
         inkscape:connector-curvature="0"
         sodipodi:nodetypes="cc" />
      <path
         style="fill:none;stroke:#000000;stroke-width:1.5;stroke-linecap:round;stroke-linejoin:round;stroke-miterlimit:4;stroke-opacity:1;stroke-dasharray:none"
         d="m 117.6225,871.68465 c -0.64788,-2.43953 -3.94617,-5.44203 -3.94617,-5.44203"
         id="path4313"
         inkscape:connector-curvature="0"
         sodipodi:nodetypes="cc" />
      <path
         style="fill:none;stroke:#000000;stroke-width:1.5;stroke-linecap:round;stroke-linejoin:round;stroke-miterlimit:4;stroke-opacity:1;stroke-dasharray:none"
         d="m 118.56488,883.50698 c 4.66261,-6.74988 8.97332,-7.92593 11.54404,-8.69473"
         id="path4315"
         inkscape:connector-curvature="0"
         sodipodi:nodetypes="cc" />
      <path
         style="fill:none;stroke:#000000;stroke-width:1.5;stroke-linecap:round;stroke-linejoin:round;stroke-miterlimit:4;stroke-opacity:1;stroke-dasharray:none"
         d="m 118.68267,875.37521 c 4.06398,-4.6914 8.12795,-6.06754 8.12795,-6.06754"
         id="path4317"
         inkscape:connector-curvature="0"
         sodipodi:nodetypes="cc" />
      <path
         style="fill:none;stroke:#000000;stroke-width:1.5;stroke-linecap:round;stroke-linejoin:round;stroke-miterlimit:4;stroke-opacity:1;stroke-dasharray:none"
         d="m 119.27165,869.12002 c 1.88474,-2.7523 5.06524,-4.00334 5.06524,-4.00334"
         id="path4319"
         inkscape:connector-curvature="0"
         sodipodi:nodetypes="cc" />
      <path
         sodipodi:type="arc"
         style="fill:none;stroke:#000000;stroke-width:1.4619025;stroke-linecap:round;stroke-linejoin:round;stroke-miterlimit:4;stroke-opacity:1;stroke-dasharray:none"
         id="path4321"
         sodipodi:cx="120.72543"
         sodipodi:cy="-60.276035"
         sodipodi:rx="8.6136312"
         sodipodi:ry="8.2771616"
         d="m 127.40136,-65.506451 c 3.00611,3.54299 2.45412,8.756888 -1.23289,11.645567 -3.68702,2.888678 -9.11286,2.358254 -12.11897,-1.184736 -2.58814,-3.050385 -2.58308,-7.43022 0.0121,-10.475071"
         transform="matrix(0.91412862,0.40542431,-0.42683055,0.96239424,-7.0865825,901.70941)"
         sodipodi:start="5.5991711"
         sodipodi:end="10.111014"
         sodipodi:open="true" />
      <path
         sodipodi:type="arc"
         style="fill:none;stroke:#000000;stroke-width:0.76375431;stroke-linecap:round;stroke-linejoin:round;stroke-miterlimit:4;stroke-opacity:1;stroke-dasharray:none"
         id="path4323"
         sodipodi:cx="114.62306"
         sodipodi:cy="-75.547562"
         sodipodi:rx="2.4015024"
         sodipodi:ry="2.2392387"
         d="m 117.02456,-75.547562 c 0,1.236698 -1.07518,2.239239 -2.4015,2.239239 -1.32631,0 -2.4015,-1.002541 -2.4015,-2.239239 0,-1.236697 1.07519,-2.239238 2.4015,-2.239238 1.32632,0 2.4015,1.002541 2.4015,2.239238 z"
         transform="matrix(2.4088525,1.0683479,-0.59344721,1.3380724,-190.0985,866.87178)" />
    </g>
  </g>
</svg>
