<?xml version="1.0" encoding="UTF-8" standalone="no"?>
<!-- Created with Inkscape (http://www.inkscape.org/) -->

<svg
   xmlns:dc="http://purl.org/dc/elements/1.1/"
   xmlns:cc="http://creativecommons.org/ns#"
   xmlns:rdf="http://www.w3.org/1999/02/22-rdf-syntax-ns#"
   xmlns:svg="http://www.w3.org/2000/svg"
   xmlns="http://www.w3.org/2000/svg"
   xmlns:sodipodi="http://sodipodi.sourceforge.net/DTD/sodipodi-0.dtd"
   xmlns:inkscape="http://www.inkscape.org/namespaces/inkscape"
   width="52"
   height="48"
   id="svg2"
   version="1.1"
   inkscape:version="0.48.4 r9939"
   sodipodi:docname="New document 5">
  <defs
     id="defs4" />
  <sodipodi:namedview
     id="base"
     pagecolor="#ffffff"
     bordercolor="#666666"
     borderopacity="1.0"
     inkscape:pageopacity="0.0"
     inkscape:pageshadow="2"
     inkscape:zoom="6.4709491"
     inkscape:cx="39.455831"
     inkscape:cy="60.135434"
     inkscape:document-units="px"
     inkscape:current-layer="layer1"
     showgrid="true"
     inkscape:window-width="1867"
     inkscape:window-height="1059"
     inkscape:window-x="49"
     inkscape:window-y="-4"
     inkscape:window-maximized="1"
     width="120px"
     inkscape:snap-bbox="true"
     inkscape:bbox-paths="true"
     inkscape:bbox-nodes="true"
     inkscape:snap-bbox-edge-midpoints="true"
     inkscape:snap-bbox-midpoints="true">
    <inkscape:grid
       type="xygrid"
       id="grid2985"
       empspacing="4"
       visible="true"
       enabled="true"
       snapvisiblegridlinesonly="true" />
  </sodipodi:namedview>
  <metadata
     id="metadata7">
    <rdf:RDF>
      <cc:Work
         rdf:about="">
        <dc:format>image/svg+xml</dc:format>
        <dc:type
           rdf:resource="http://purl.org/dc/dcmitype/StillImage" />
        <dc:title></dc:title>
      </cc:Work>
    </rdf:RDF>
  </metadata>
  <g
     inkscape:label="Layer 1"
     inkscape:groupmode="layer"
     id="layer1"
     transform="translate(0,-1004.3622)">
    <path
       inkscape:connector-curvature="0"
       id="path3394"
       d="m 47.638254,1048.3622 0,-20"
       style="fill:none;stroke:#000000;stroke-width:1.5;stroke-linecap:round;stroke-linejoin:round;stroke-miterlimit:4;stroke-opacity:1;stroke-dasharray:none;display:inline" />
    <path
       style="fill:none;stroke:#000000;stroke-width:1.5;stroke-linecap:round;stroke-linejoin:round;stroke-miterlimit:4;stroke-opacity:1;stroke-dasharray:none;display:inline"
       d="m 27.460379,1014.3622 c 0,0 -3,5 -6,10 -3,5 -5,15 -7,17 -2,2 -4.8221198,4 -7.8221198,5 -3,1 -4,2 0,2 3.9999998,0 5.9999998,-0.6336 7.9999998,-0.6336 2,0 1,0.6336 3,0.6336 2,0 1.82212,-2 1.82212,-5 0,-3 4,-7 5,-9 1,-2 4,-9 4,-9 0,0 2,5 3,7 1,2 4.2954,8.5528 6,10 1.17788,1 -3.82212,3 -6.82212,4 -3,1 -4,2 0,2 4,0 6,-0.6336 8,-0.6336 2,0 1,0.6336 3,0.6336 2,0 2,-3 1,-5 -1.26491,-2.5298 -3.39232,-11.7846 -6,-17 -3,-6 -9.17788,-12 -9.17788,-12 z"
       id="path3371-1"
       inkscape:connector-curvature="0"
       sodipodi:nodetypes="csszzzzsscsszzzzssc" />
  </g>
</svg>
