<?xml version="1.0" encoding="UTF-8" standalone="no"?>
<!-- Created with Inkscape (http://www.inkscape.org/) -->

<svg
   xmlns:dc="http://purl.org/dc/elements/1.1/"
   xmlns:cc="http://creativecommons.org/ns#"
   xmlns:rdf="http://www.w3.org/1999/02/22-rdf-syntax-ns#"
   xmlns:svg="http://www.w3.org/2000/svg"
   xmlns="http://www.w3.org/2000/svg"
   xmlns:sodipodi="http://sodipodi.sourceforge.net/DTD/sodipodi-0.dtd"
   xmlns:inkscape="http://www.inkscape.org/namespaces/inkscape"
   width="148"
   height="56"
   id="svg2"
   version="1.1"
   inkscape:version="0.48.4 r9939"
   sodipodi:docname="jar-jaw-bush-person.svg">
  <defs
     id="defs4" />
  <sodipodi:namedview
     id="base"
     pagecolor="#ffffff"
     bordercolor="#666666"
     borderopacity="1.0"
     inkscape:pageopacity="0.0"
     inkscape:pageshadow="2"
     inkscape:zoom="4.4937147"
     inkscape:cx="137.59589"
     inkscape:cy="14.160519"
     inkscape:document-units="px"
     inkscape:current-layer="layer1"
     showgrid="true"
     inkscape:window-width="1867"
     inkscape:window-height="1059"
     inkscape:window-x="49"
     inkscape:window-y="-4"
     inkscape:window-maximized="1"
     width="120px"
     inkscape:snap-bbox="true"
     inkscape:bbox-paths="true"
     inkscape:bbox-nodes="true"
     inkscape:snap-bbox-edge-midpoints="true"
     inkscape:snap-bbox-midpoints="true">
    <inkscape:grid
       type="xygrid"
       id="grid2985"
       empspacing="4"
       visible="true"
       enabled="true"
       snapvisiblegridlinesonly="true" />
  </sodipodi:namedview>
  <metadata
     id="metadata7">
    <rdf:RDF>
      <cc:Work
         rdf:about="">
        <dc:format>image/svg+xml</dc:format>
        <dc:type
           rdf:resource="http://purl.org/dc/dcmitype/StillImage" />
        <dc:title></dc:title>
      </cc:Work>
    </rdf:RDF>
  </metadata>
  <g
     inkscape:label="Layer 1"
     inkscape:groupmode="layer"
     id="layer1"
     transform="translate(0,-996.3622)">
    <g
       style="display:inline"
       transform="translate(-224.00868,166.01114)"
       id="g4531">
      <path
         style="fill:none;stroke:#000000;stroke-width:1.5;stroke-linecap:round;stroke-linejoin:round;stroke-miterlimit:4;stroke-opacity:1;stroke-dasharray:none"
         d="m 275.47685,877.35109 c -4.51742,-0.0779 -26.51274,0 -29.16088,0 -0.0658,-1.66938 2.07489,-1.68137 2.04881,-3.16451 2.07337,-0.10277 13.17831,0.049 17.8515,-0.0288 4.6732,-0.0779 4.59531,-5.14052 4.43954,-6.62036 -0.15578,-1.47985 0.51463,-2.71221 1.76082,-2.63432 1.24618,0.0779 0.71456,2.79773 2.11749,2.85562 3.40521,0.1405 1.7048,-2.21359 4.11929,-2.21359 0.94334,0 1.41709,-0.43391 1.34879,1.44708 -0.37321,10.27743 -4.52536,10.35892 -4.52536,10.35892 z"
         id="path4534"
         inkscape:connector-curvature="0"
         sodipodi:nodetypes="cccsssssscc" />
      <path
         style="fill:none;stroke:#000000;stroke-width:1.5;stroke-linecap:round;stroke-linejoin:round;stroke-miterlimit:4;stroke-opacity:1;stroke-dasharray:none"
         d="m 248.3085,873.55664 0,-4.32703"
         id="path4536"
         inkscape:connector-curvature="0" />
      <path
         inkscape:connector-curvature="0"
         id="path4538"
         d="m 250.65231,873.55664 0,-4.32703"
         style="fill:none;stroke:#000000;stroke-width:1.5;stroke-linecap:round;stroke-linejoin:round;stroke-miterlimit:4;stroke-opacity:1;stroke-dasharray:none" />
      <path
         style="fill:none;stroke:#000000;stroke-width:1.5;stroke-linecap:round;stroke-linejoin:round;stroke-miterlimit:4;stroke-opacity:1;stroke-dasharray:none"
         d="m 253.98773,873.55664 0,-4.32703"
         id="path4540"
         inkscape:connector-curvature="0" />
      <path
         inkscape:connector-curvature="0"
         id="path4542"
         d="m 257.63866,873.55664 0,-4.32703"
         style="fill:none;stroke:#000000;stroke-width:1.5;stroke-linecap:round;stroke-linejoin:round;stroke-miterlimit:4;stroke-opacity:1;stroke-dasharray:none" />
      <path
         style="fill:none;stroke:#000000;stroke-width:1.5;stroke-linecap:round;stroke-linejoin:round;stroke-miterlimit:4;stroke-opacity:1;stroke-dasharray:none"
         d="m 262.05584,873.55664 0,-4.32703"
         id="path4544"
         inkscape:connector-curvature="0" />
      <path
         inkscape:connector-curvature="0"
         id="path4546"
         d="m 266.78853,873.55664 0,-4.32703"
         style="fill:none;stroke:#000000;stroke-width:1.5;stroke-linecap:round;stroke-linejoin:round;stroke-miterlimit:4;stroke-opacity:1;stroke-dasharray:none" />
      <path
         style="fill:none;stroke:#000000;stroke-width:1.5;stroke-linecap:round;stroke-linejoin:round;stroke-miterlimit:4;stroke-opacity:1;stroke-dasharray:none"
         d="m 248.3085,-135.26781 18.52511,0"
         id="path4548"
         inkscape:connector-curvature="0"
         transform="translate(0,1004.3622)" />
    </g>
    <g
       style="display:inline"
       id="g4550"
       transform="translate(-271.89909,93.463737)">
      <path
         transform="matrix(2.0975473,0,0,1,-316.45846,1050.1046)"
         d="m 306.99521,-136.45284 a 7.4696331,2.0861137 0 1 1 -14.93927,0 7.4696331,2.0861137 0 1 1 14.93927,0 z"
         sodipodi:ry="2.0861137"
         sodipodi:rx="7.4696331"
         sodipodi:cy="-136.45284"
         sodipodi:cx="299.52557"
         id="path4552"
         style="fill:none;stroke:#000000;stroke-width:1.0357033;stroke-linecap:round;stroke-linejoin:round;stroke-miterlimit:4;stroke-opacity:1;stroke-dasharray:none"
         sodipodi:type="arc" />
      <path
         style="fill:none;stroke:#000000;stroke-width:1.5;stroke-linecap:round;stroke-linejoin:round;stroke-miterlimit:4;stroke-opacity:1;stroke-dasharray:none"
         d="m 294.95658,916.17457 c 0,1.03848 2.99513,1.49282 3.13128,2.53131 0.13613,1.03849 -2.99513,2.01207 -2.859,4.28376 0.13614,2.27169 0.68072,7.04372 0.54457,8.47164 -0.13613,1.42792 10.21067,2.92075 16.06479,2.92075"
         id="path4554"
         inkscape:connector-curvature="0"
         sodipodi:nodetypes="csssc" />
      <path
         sodipodi:nodetypes="csssc"
         inkscape:connector-curvature="0"
         id="path4556"
         d="m 328.18007,916.17455 c 0,1.03848 -2.99513,1.49282 -3.13128,2.53131 -0.13613,1.03849 2.99513,2.01207 2.859,4.28376 -0.13613,2.27169 -0.68072,7.04372 -0.54457,8.47164 0.13614,1.42792 -7.19054,2.98335 -16.0648,2.92075"
         style="fill:none;stroke:#000000;stroke-width:1.5;stroke-linecap:round;stroke-linejoin:round;stroke-miterlimit:4;stroke-opacity:1;stroke-dasharray:none" />
    </g>
    <g
       style="display:inline"
       transform="matrix(1.0392634,0,0,1.1103583,-40.873355,-64.216466)"
       id="g4558">
      <path
         style="fill:none;stroke:#000000;stroke-width:1.39635825;stroke-linecap:round;stroke-linejoin:round;stroke-miterlimit:4;stroke-opacity:1;stroke-dasharray:none"
         d="m 114.8048,-9.0129662 c -1.21453,-0.8295999 -5.61337,-1.9054548 -8.17809,-0.6230925"
         id="path4560"
         inkscape:connector-curvature="0"
         transform="translate(0,1004.3622)" />
      <path
         style="fill:none;stroke:#000000;stroke-width:1.39635825;stroke-linecap:round;stroke-linejoin:round;stroke-miterlimit:4;stroke-opacity:1;stroke-dasharray:none"
         d="m 118.30969,-7.7667811 c 0.30302,-7.8543569 -11.41953,-5.1107199 -14.87633,-8.5675219 -1.1528,-1.152803 -1.70231,-2.427719 -2.57026,-3.816442"
         id="path4562"
         inkscape:connector-curvature="0"
         transform="translate(0,1004.3622)" />
      <path
         style="fill:none;stroke:#000000;stroke-width:1.39635825;stroke-linecap:round;stroke-linejoin:round;stroke-miterlimit:4;stroke-opacity:1;stroke-dasharray:none"
         d="m 121.11361,-9.5581721 c 4.19707,-2.8082589 7.18494,-2.4339879 12.61762,-0.6230929"
         id="path4564"
         inkscape:connector-curvature="0"
         transform="translate(0,1004.3622)" />
      <path
         style="fill:none;stroke:#000000;stroke-width:1.39635825;stroke-linecap:round;stroke-linejoin:round;stroke-miterlimit:4;stroke-opacity:1;stroke-dasharray:none"
         d="m 120.41263,-12.595748 c 3.7753,-7.535825 14.69888,-1.990362 18.61489,-8.255976"
         id="path4566"
         inkscape:connector-curvature="0"
         transform="translate(0,1004.3622)" />
      <path
         style="fill:none;stroke:#000000;stroke-width:1.39635825;stroke-linecap:round;stroke-linejoin:round;stroke-miterlimit:4;stroke-opacity:1;stroke-dasharray:none"
         d="m 118.07603,-13.374614 c -1.1518,-6.392731 -10.96426,-13.755249 -18.536999,-12.072418"
         id="path4568"
         inkscape:connector-curvature="0"
         transform="translate(0,1004.3622)" />
      <path
         style="fill:none;stroke:#000000;stroke-width:1.39635825;stroke-linecap:round;stroke-linejoin:round;stroke-miterlimit:4;stroke-opacity:1;stroke-dasharray:none"
         d="m 104.29011,-26.303784 c -0.43987,-0.320107 -1.2942,-2.457184 -1.47984,-4.127988"
         id="path4570"
         inkscape:connector-curvature="0"
         transform="translate(0,1004.3622)" />
      <path
         style="fill:none;stroke:#000000;stroke-width:1.39635825;stroke-linecap:round;stroke-linejoin:round;stroke-miterlimit:4;stroke-opacity:1;stroke-dasharray:none"
         d="m 119.63377,-17.814148 c 2.07781,-9.566943 7.00954,-7.252077 16.04463,-8.255976"
         id="path4572"
         inkscape:connector-curvature="0"
         transform="translate(0,1004.3622)" />
      <path
         style="fill:none;stroke:#000000;stroke-width:1.39635825;stroke-linecap:round;stroke-linejoin:round;stroke-miterlimit:4;stroke-opacity:1;stroke-dasharray:none"
         d="m 128.1234,-26.38167 c 1.23185,-1.080711 2.17641,-2.717195 2.80392,-3.972215"
         id="path4574"
         inkscape:connector-curvature="0"
         transform="translate(0,1004.3622)" />
      <path
         style="fill:none;stroke:#000000;stroke-width:1.39635825;stroke-linecap:round;stroke-linejoin:round;stroke-miterlimit:4;stroke-opacity:1;stroke-dasharray:none"
         d="m 116.90774,-21.241157 c 2.31904,-8.939725 -2.24507,-14.52714 -10.12526,-16.278292"
         id="path4576"
         inkscape:connector-curvature="0"
         transform="translate(0,1004.3622)" />
      <path
         style="fill:none;stroke:#000000;stroke-width:1.39635825;stroke-linecap:round;stroke-linejoin:round;stroke-miterlimit:4;stroke-opacity:1;stroke-dasharray:none"
         d="m 111.37779,-37.519449 c 0.83991,-0.90107 1.02369,-1.991567 0.70098,-2.95969"
         id="path4578"
         inkscape:connector-curvature="0"
         transform="translate(0,1004.3622)" />
      <path
         style="fill:none;stroke:#000000;stroke-width:1.39635825;stroke-linecap:round;stroke-linejoin:round;stroke-miterlimit:4;stroke-opacity:1;stroke-dasharray:none"
         d="m 118.30969,-23.499867 c 1.12516,-4.822523 3.01452,-15.42154 9.11273,-15.42154"
         id="path4580"
         inkscape:connector-curvature="0"
         transform="translate(0,1004.3622)" />
      <path
         style="fill:none;stroke:#000000;stroke-width:1.39635825;stroke-linecap:round;stroke-linejoin:round;stroke-miterlimit:4;stroke-opacity:1;stroke-dasharray:none"
         d="m 121.11361,-34.170327 c 0.23641,-2.645229 -1.21286,-3.219378 -2.25871,-4.439534"
         id="path4582"
         inkscape:connector-curvature="0"
         transform="translate(0,1004.3622)" />
    </g>
    <rect
       style="fill:none;stroke:#000000;stroke-width:1.5;stroke-linecap:round;stroke-linejoin:round;stroke-miterlimit:4;stroke-opacity:1;stroke-dasharray:none;display:inline"
       id="rect4584"
       width="140"
       height="48"
       x="4"
       y="1000.3622"
       ry="24" />
    <path
       style="fill:none;stroke:#000000;stroke-width:1.5;stroke-linecap:round;stroke-linejoin:round;stroke-miterlimit:4;stroke-opacity:1;stroke-dasharray:none;display:inline"
       d="m 144,1000.3622 0,48"
       id="path4586"
       inkscape:connector-curvature="0" />
    <g
       style="display:inline"
       id="g4760"
       transform="translate(91.76362,91.700437)">
      <g
         id="g4762">
        <path
           sodipodi:nodetypes="cssssscccc"
           inkscape:connector-curvature="0"
           id="path4765"
           d="m 31.339331,922.20068 c 0,0 -2.779777,-2.97952 -2.779777,-3.7244 0,-0.74488 1.389889,-2.23464 1.389889,-3.7244 0,-1.48976 -4.169666,-2.23464 -4.86461,-1.48976 C 24.389888,914.007 23,916.24164 23,916.98652 c 0,0.74488 2.779777,2.23464 2.084833,2.97952 C 24.389888,920.71092 23,922.20068 23,922.20068 c 2.084833,2.97952 2.63391,11.59354 2.63391,11.59354 l 3.620588,-0.42035 2.084833,-11.17319"
           style="fill:none;stroke:#000000;stroke-width:1.50000012;stroke-linecap:round;stroke-linejoin:round;stroke-miterlimit:4;stroke-opacity:1;stroke-dasharray:none" />
        <path
           inkscape:connector-curvature="0"
           id="path4767"
           d="m 25.070737,916.10128 0.435047,0"
           style="fill:none;stroke:#000000;stroke-width:1.50000012;stroke-linecap:round;stroke-linejoin:round;stroke-miterlimit:4;stroke-opacity:1;stroke-dasharray:none" />
        <path
           sodipodi:nodetypes="ccc"
           transform="translate(0,1004.3622)"
           inkscape:connector-curvature="0"
           id="path4769"
           d="m 29.122702,-70.89067 -0.02342,18.828068 -3.623889,0"
           style="fill:none;stroke:#000000;stroke-width:1.5;stroke-linecap:round;stroke-linejoin:round;stroke-miterlimit:4;stroke-opacity:1;stroke-dasharray:none" />
        <path
           sodipodi:nodetypes="ccc"
           transform="translate(0,1004.3622)"
           inkscape:connector-curvature="0"
           id="path4771"
           d="m 25.691748,-70.236134 -3.894328,18.22762 -3.732064,0"
           style="fill:none;stroke:#000000;stroke-width:1.5;stroke-linecap:round;stroke-linejoin:round;stroke-miterlimit:4;stroke-opacity:1;stroke-dasharray:none" />
        <path
           inkscape:connector-curvature="0"
           id="path4773"
           d="m 31.370978,922.22677 0.865406,16.11818"
           style="fill:none;stroke:#000000;stroke-width:1.50000012;stroke-linecap:round;stroke-linejoin:round;stroke-miterlimit:4;stroke-opacity:1;stroke-dasharray:none" />
        <path
           sodipodi:nodetypes="ccc"
           inkscape:connector-curvature="0"
           id="path4775"
           d="m 22.825091,922.49717 -0.432703,7.35595 -4.723676,6.30275"
           style="fill:none;stroke:#000000;stroke-width:1.5;stroke-linecap:round;stroke-linejoin:round;stroke-miterlimit:4;stroke-opacity:1;stroke-dasharray:none" />
        <path
           sodipodi:nodetypes="cc"
           transform="translate(0,1004.3622)"
           inkscape:connector-curvature="0"
           id="path4777"
           d="m 24.564918,-90.299738 c 2.256004,-0.128705 4.618055,2.512173 3.906348,4.056593"
           style="fill:none;stroke:#000000;stroke-width:1.5;stroke-linecap:round;stroke-linejoin:round;stroke-miterlimit:4;stroke-opacity:1;stroke-dasharray:none" />
      </g>
    </g>
  </g>
</svg>
