<?xml version="1.0" encoding="UTF-8" standalone="no"?>
<!-- Created with Inkscape (http://www.inkscape.org/) -->

<svg
   xmlns:dc="http://purl.org/dc/elements/1.1/"
   xmlns:cc="http://creativecommons.org/ns#"
   xmlns:rdf="http://www.w3.org/1999/02/22-rdf-syntax-ns#"
   xmlns:svg="http://www.w3.org/2000/svg"
   xmlns="http://www.w3.org/2000/svg"
   xmlns:sodipodi="http://sodipodi.sourceforge.net/DTD/sodipodi-0.dtd"
   xmlns:inkscape="http://www.inkscape.org/namespaces/inkscape"
   width="408"
   height="48"
   id="svg2"
   version="1.1"
   inkscape:version="0.48.4 r9939"
   sodipodi:docname="th.svg">
  <defs
     id="defs4" />
  <sodipodi:namedview
     id="base"
     pagecolor="#ffffff"
     bordercolor="#666666"
     borderopacity="1.0"
     inkscape:pageopacity="0.0"
     inkscape:pageshadow="2"
     inkscape:zoom="2.1671078"
     inkscape:cx="21.695587"
     inkscape:cy="182.39364"
     inkscape:document-units="px"
     inkscape:current-layer="layer1"
     showgrid="true"
     inkscape:window-width="1867"
     inkscape:window-height="1059"
     inkscape:window-x="49"
     inkscape:window-y="-4"
     inkscape:window-maximized="1"
     width="120px"
     inkscape:snap-bbox="true"
     inkscape:bbox-paths="true"
     inkscape:bbox-nodes="true"
     inkscape:snap-bbox-edge-midpoints="true"
     inkscape:snap-bbox-midpoints="true">
    <inkscape:grid
       type="xygrid"
       id="grid2985"
       empspacing="4"
       visible="true"
       enabled="true"
       snapvisiblegridlinesonly="true" />
  </sodipodi:namedview>
  <metadata
     id="metadata7">
    <rdf:RDF>
      <cc:Work
         rdf:about="">
        <dc:format>image/svg+xml</dc:format>
        <dc:type
           rdf:resource="http://purl.org/dc/dcmitype/StillImage" />
        <dc:title></dc:title>
      </cc:Work>
    </rdf:RDF>
  </metadata>
  <g
     inkscape:label="Layer 1"
     inkscape:groupmode="layer"
     id="layer1"
     transform="translate(0,-1004.3622)">
    <g
       style="display:inline"
       id="g4376"
       transform="translate(-397,208)">
      <path
         style="fill:none;stroke:#000000;stroke-width:1.5;stroke-linecap:round;stroke-linejoin:round;stroke-miterlimit:4;stroke-opacity:1;stroke-dasharray:none"
         d="m 402,-165 37,0"
         id="path4378"
         inkscape:connector-curvature="0"
         transform="translate(0,1004.3622)"
         sodipodi:nodetypes="cc" />
      <path
         style="fill:none;stroke:#000000;stroke-width:1.5;stroke-linecap:round;stroke-linejoin:round;stroke-miterlimit:4;stroke-opacity:1;stroke-dasharray:none"
         d="m 413,-165 c -4,0 -6,-2 -6,-5 0,-3 4,-8 8,-8 5,0 5,5 12,4 3.9598,-0.56569 7,2 7,4 0,2 -1,5 -7,5 -6,0 -14,0 -14,0 z"
         id="path4380"
         inkscape:connector-curvature="0"
         transform="translate(0,1004.3622)"
         sodipodi:nodetypes="csssssc" />
    </g>
    <g
       style="display:inline"
       id="g4382"
       transform="translate(2,-20.00002)">
      <path
         style="fill:none;stroke:#000000;stroke-width:1.5;stroke-linecap:round;stroke-linejoin:round;stroke-miterlimit:4;stroke-opacity:1;stroke-dasharray:none"
         d="m 15.512708,38.115187 c 0,0 -0.208882,1.486745 -1.051709,2.216101 -1.072054,0.927723 -6.4548254,1.012131 -7.9886759,0.888258 -1.489638,-0.120302 -1.6552273,-0.591657 -3.0358698,-0.638213 -1.2676017,-0.04274 -2.0018304,0.69072 -2.095733,1.128932 -0.093903,0.438212 0.4121281,1.75111 1.4137558,1.970216 1.0016276,0.219106 1.3450297,0.131813 1.7403859,-0.04924 0.3929998,-0.179979 0.7596498,-0.564067 0.7596498,-0.564067 l 1.2589421,0.51941 c 0,0 9.9821011,-0.0313 10.9837291,0 1.001628,0.0313 2.034556,0.156504 2.284963,-0.751221 0.250407,-0.907725 0.406911,-2.128458 0.406911,-2.128458"
         id="path4384"
         inkscape:connector-curvature="0"
         sodipodi:nodetypes="cssssssccssc"
         transform="translate(0,1004.3622)" />
      <path
         style="fill:none;stroke:#000000;stroke-width:1.5;stroke-linecap:round;stroke-linejoin:round;stroke-miterlimit:4;stroke-opacity:1;stroke-dasharray:none"
         d="m 15.476538,30.980155 c 0,0 0.326051,1.217256 0.195631,1.695464 -0.13042,0.478207 -3.390927,2.869245 -3.825661,3.173559 -0.434735,0.304314 -0.782522,0.999889 -1.608517,0.434735 C 9.411996,35.718758 9.4337327,35.414444 9.8249935,34.957973 10.216254,34.501502 11.346563,33.45814 11.346563,33.45814"
         id="path4386"
         inkscape:connector-curvature="0"
         transform="translate(0,1004.3622)" />
      <path
         style="fill:none;stroke:#000000;stroke-width:1.5;stroke-linecap:round;stroke-linejoin:round;stroke-miterlimit:4;stroke-opacity:1;stroke-dasharray:none"
         d="m 9.6510998,35.392707 c 0,0 -0.978152,-0.173893 -1.6954635,-0.804258 -0.7173114,-0.630365 -1.3042026,-1.52157 -1.3042026,-1.52157 0,0 2.8475091,-4.216922 3.4996103,-4.95597 0.652102,-0.739048 1.238993,-1.282466 1.804147,-1.52157 0.565155,-0.239103 1.412886,-0.173893 1.412886,-0.173893"
         id="path4388"
         inkscape:connector-curvature="0"
         transform="translate(0,1004.3622)" />
      <path
         style="fill:none;stroke:#000000;stroke-width:1.5;stroke-linecap:round;stroke-linejoin:round;stroke-miterlimit:4;stroke-opacity:1;stroke-dasharray:none"
         d="m 12.911607,27.415334 c 0,0 0.630364,-1.91283 1.91283,-1.412886 1.282466,0.499945 0.934679,2.151935 0.847732,2.630142"
         id="path4390"
         inkscape:connector-curvature="0"
         transform="translate(0,1004.3622)"
         sodipodi:nodetypes="csc" />
      <path
         style="fill:none;stroke:#000000;stroke-width:1.5;stroke-linecap:round;stroke-linejoin:round;stroke-miterlimit:4;stroke-opacity:1;stroke-dasharray:none"
         d="m 10.803146,30.697578 0.673838,-0.847732 0.521681,0.391261"
         id="path4392"
         inkscape:connector-curvature="0"
         transform="translate(0,1004.3622)" />
      <path
         style="fill:none;stroke:#000000;stroke-width:1.5;stroke-linecap:round;stroke-linejoin:round;stroke-miterlimit:4;stroke-opacity:1;stroke-dasharray:none"
         d="m 8.3468971,32.610408 -0.6521013,0.282578 0.1086836,0.869468"
         id="path4394"
         inkscape:connector-curvature="0"
         transform="translate(0,1004.3622)" />
      <path
         style="fill:none;stroke:#000000;stroke-width:1.5;stroke-linecap:round;stroke-linejoin:round;stroke-miterlimit:4;stroke-opacity:1;stroke-dasharray:none"
         d="M 10.930262,27.378991 9.9536748,24.749718 c 0,0 1.5400022,-1.878052 3.5307372,-1.840491 1.990735,0.03756 5.258546,1.239514 6.535621,2.403907 1.277075,1.164392 3.230249,2.704394 3.042444,4.35708 -0.187805,1.652686 -0.638538,7.399524 -0.638538,7.399524 l -7.775135,1.239514 c 0,0 -0.525854,-0.225366 -0.563415,-0.676098 -0.03756,-0.450733 -0.112683,-2.704395 -0.112683,-2.704395"
         id="path4396"
         inkscape:connector-curvature="0"
         transform="translate(0,1004.3622)" />
      <path
         style="fill:none;stroke:#000000;stroke-width:1.5;stroke-linecap:round;stroke-linejoin:round;stroke-miterlimit:4;stroke-opacity:1;stroke-dasharray:none"
         d="m 22.849631,32.224364 c 0,0 1.377238,1.126832 2.785777,1.095531 1.408539,-0.0313 4.945536,-0.939026 6.385376,-1.471141 1.43984,-0.532115 2.065857,-0.751221 2.065857,-0.751221"
         id="path4398"
         inkscape:connector-curvature="0"
         transform="translate(0,1004.3622)" />
      <path
         style="fill:none;stroke:#000000;stroke-width:1.5;stroke-linecap:round;stroke-linejoin:round;stroke-miterlimit:4;stroke-opacity:1;stroke-dasharray:none"
         d="m 34.61267,31.013195 c 0,0 2.917066,-1.073794 4.169101,-0.885988 1.241659,0.186249 3.004882,1.001627 4.131714,1.909352 1.346191,1.084431 3.787404,3.756104 3.724803,5.602855 -0.10503,3.098428 -0.657318,5.759359 -3.505697,5.978465 -2.848379,0.219106 -5.321147,-0.782522 -7.480907,-3.787405 -2.159759,-3.004883 -2.003255,-6.322774 -1.502441,-8.232127 0.500814,-1.909353 1.846751,-4.914236 4.601227,-4.851634 2.754476,0.0626 4.632528,1.252035 5.696757,2.034556 1.06423,0.782522 2.355544,0.552576 1.377238,2.097158 -0.796408,1.257396 -0.569933,-1.717687 -2.759255,-2.965374"
         id="path4400"
         inkscape:connector-curvature="0"
         transform="translate(0,1004.3622)"
         sodipodi:nodetypes="csssssssssc" />
      <path
         sodipodi:nodetypes="csc"
         style="fill:none;stroke:#000000;stroke-width:1.5;stroke-linecap:round;stroke-linejoin:round;stroke-miterlimit:4;stroke-opacity:1;stroke-dasharray:none"
         d="m 39.374894,34.725245 c 0,0 -0.833142,-0.842033 -1.579969,-1.238847 -1.03649,-0.550721 -4.251431,0.36055 -3.59192,3.330643"
         id="path4402"
         inkscape:connector-curvature="0"
         transform="translate(0,1004.3622)" />
      <path
         style="fill:none;stroke:#000000;stroke-width:1.5;stroke-linecap:round;stroke-linejoin:round;stroke-miterlimit:4;stroke-opacity:1;stroke-dasharray:none"
         d="m 19.969951,42.334544 c 0,0 1.377238,0.563415 3.25529,-0.187806 1.878052,-0.75122 4.914236,-2.441467 8.138225,-2.472768 3.223989,-0.0313 4.382121,0.34431 4.382121,0.34431"
         id="path4404"
         inkscape:connector-curvature="0"
         transform="translate(0,1004.3622)" />
      <path
         style="fill:none;stroke:#000000;stroke-width:1.5;stroke-linecap:round;stroke-linejoin:round;stroke-miterlimit:4;stroke-opacity:1;stroke-dasharray:none"
         d="m 36.277702,40.800801 c 0,0 -2.316264,0.813823 -4.632528,0.563416 -2.316264,-0.250407 -4.163015,-1.283336 -5.133342,-0.657318 -0.970327,0.626017 -1.784149,2.410166 -0.594716,2.817077 1.189432,0.406912 2.316264,0.313009 3.004883,-0.438212 0.688619,-0.75122 1.502441,0.594717 1.502441,0.594717 0,0 0.281708,-0.469513 1.940654,-0.375611 1.658945,0.0939 6.917491,0.125204 6.917491,0.125204"
         id="path4406"
         inkscape:connector-curvature="0"
         transform="translate(0,1004.3622)" />
    </g>
    <path
       style="fill:none;stroke:#000000;stroke-width:1.5;stroke-linecap:round;stroke-linejoin:round;stroke-miterlimit:4;stroke-opacity:1;stroke-dasharray:none;display:inline"
       d="m 61,1020.3622 c 0,0 -3.600052,4.5454 -7,10 -3.39995,5.4545 -8.54996,14.1818 -6,16 2.54996,1.8182 10.957791,-1.5121 15.162487,-2.6364 3.399948,-0.9091 9.199843,-4.5454 8.349853,-2.7272 -0.84998,1.8181 0,3.6363 -1.69997,4.5454 -1.69997,0.9091 -2.549961,1.8182 -0.84999,1.8182 1.69998,0 1.33765,0 3.03762,0 1.69997,0 2.14499,-6.3096 5.61227,-9.0909 3.39994,-2.7273 -0.36233,-4.7273 -4.61227,-2.9091 -4.02411,1.7216 -17,4 -17,4 0,0 4.600052,-3.4546 8,-8 3.399948,-4.5455 6,-9 6,-9"
       id="path4408"
       inkscape:connector-curvature="0"
       sodipodi:nodetypes="cssssssssscsc" />
    <g
       transform="translate(0,-60.00002)"
       style="display:inline"
       id="g3602">
      <path
         sodipodi:nodetypes="cccccccccccc"
         transform="translate(0,1004.3622)"
         inkscape:connector-curvature="0"
         id="path4410"
         d="m 84,103 0,-36 4,0 0,6 4,0 0,-6 4,0 0,6 4,0 0,-6 4,0 0,36"
         style="fill:none;stroke:#000000;stroke-width:1.5;stroke-linecap:round;stroke-linejoin:round;stroke-miterlimit:4;stroke-opacity:1;stroke-dasharray:none" />
      <path
         sodipodi:nodetypes="czzzc"
         transform="translate(0,1004.3622)"
         inkscape:connector-curvature="0"
         id="path4412"
         d="m 89,103 c 0,0 0,-4 0,-8 0,-4 2,-7 5,-7 3,0 5,3 5,7 0,4 0,8 0,8"
         style="fill:none;stroke:#000000;stroke-width:1.5;stroke-linecap:round;stroke-linejoin:round;stroke-miterlimit:4;stroke-opacity:1;stroke-dasharray:none" />
    </g>
    <path
       style="fill:none;stroke:#000000;stroke-width:1.5;stroke-linecap:round;stroke-linejoin:round;stroke-miterlimit:4;stroke-opacity:1;stroke-dasharray:none;stroke-dashoffset:0;display:inline"
       d="m 113,1033.3622 0,12 4,-4 4,4 4,-4 4,4 4,-4 4,4 4,-4 4,4 4,-4 0,-8 z"
       id="path4414"
       inkscape:connector-curvature="0"
       sodipodi:nodetypes="ccccccccccccc" />
    <g
       style="display:inline"
       id="g4416"
       transform="translate(107.42,117.52729)">
      <path
         style="fill:none;stroke:#000000;stroke-width:1.5;stroke-linecap:round;stroke-linejoin:round;stroke-miterlimit:4;stroke-opacity:1;stroke-dasharray:none"
         d="m 3.84,-102.24 c 1.4561816,-0.13129 3.1405417,-0.28973 4.2,0.24 11.912826,5.956413 23.507878,-0.72 35.28,-0.72"
         id="path4418"
         inkscape:connector-curvature="0"
         transform="translate(0,1004.3622)" />
      <path
         style="fill:none;stroke:#000000;stroke-width:1.5;stroke-linecap:round;stroke-linejoin:round;stroke-miterlimit:4;stroke-opacity:1;stroke-dasharray:none"
         d="m 4.08,-102.6 c 1.2984256,-0.35231 3.2388268,-0.59883 4.2,-1.56 12.448914,-12.44891 19.800273,0.48 34.8,0.48"
         id="path4420"
         inkscape:connector-curvature="0"
         transform="translate(0,1004.3622)" />
      <path
         sodipodi:type="arc"
         style="fill:none;stroke:#000000;stroke-width:1.5;stroke-linecap:round;stroke-linejoin:round;stroke-miterlimit:4;stroke-opacity:1;stroke-dasharray:none"
         id="path4422"
         sodipodi:cx="18.66"
         sodipodi:cy="-104.64"
         sodipodi:rx="5.0999999"
         sodipodi:ry="4.8000002"
         d="m 23.76,-104.64 c 0,2.65097 -2.283348,4.800001 -5.1,4.800001 -2.816652,0 -5.1,-2.149031 -5.1,-4.800001 0,-2.65097 2.283348,-4.8 5.1,-4.8 2.816652,0 5.1,2.14903 5.1,4.8 z"
         transform="translate(1,1004.3622)" />
    </g>
    <g
       transform="translate(0,-60.00002)"
       style="display:inline"
       id="g3722">
      <path
         sodipodi:nodetypes="csssssc"
         inkscape:connector-curvature="0"
         id="path4424"
         d="m 174,1087.3622 c 0,0 -2,-1 -4,-1 -2,0 -4,1 -4,3 0,2 4,3 8,3 4,0 8,-1 8,-3 0,-2 -2,-3 -4,-3 -2,0 -4,1 -4,1 z"
         style="fill:none;stroke:#000000;stroke-width:1.5;stroke-linecap:round;stroke-linejoin:round;stroke-miterlimit:4;stroke-opacity:1;stroke-dasharray:none" />
      <path
         inkscape:connector-curvature="0"
         id="path4426"
         d="m 161,1089.3622 5,0"
         style="fill:none;stroke:#000000;stroke-width:1.5;stroke-linecap:round;stroke-linejoin:round;stroke-miterlimit:4;stroke-opacity:1;stroke-dasharray:none" />
      <path
         style="fill:none;stroke:#000000;stroke-width:1.5;stroke-linecap:round;stroke-linejoin:round;stroke-miterlimit:4;stroke-opacity:1;stroke-dasharray:none"
         d="m 182,1089.3622 5,0"
         id="path4428"
         inkscape:connector-curvature="0" />
      <path
         sodipodi:nodetypes="csc"
         inkscape:connector-curvature="0"
         id="path4430"
         d="m 158,1089.3622 c 3,0 8,-8 16,-8 8,0 13,8 16,8"
         style="fill:none;stroke:#000000;stroke-width:1.5;stroke-linecap:round;stroke-linejoin:round;stroke-miterlimit:4;stroke-opacity:1;stroke-dasharray:none" />
      <path
         style="fill:none;stroke:#000000;stroke-width:1.5;stroke-linecap:round;stroke-linejoin:round;stroke-miterlimit:4;stroke-opacity:1;stroke-dasharray:none"
         d="m 158,1089.3622 c 3,0 8,8 16,8 8,0 13,-8 16,-8"
         id="path4432"
         inkscape:connector-curvature="0"
         sodipodi:nodetypes="csc" />
      <path
         sodipodi:nodetypes="cc"
         inkscape:connector-curvature="0"
         id="path4434"
         d="m 174,1082.3622 0,5"
         style="fill:none;stroke:#000000;stroke-width:1.49999988;stroke-linecap:round;stroke-linejoin:round;stroke-miterlimit:4;stroke-opacity:1;stroke-dasharray:none" />
      <path
         sodipodi:nodetypes="cc"
         inkscape:connector-curvature="0"
         id="path4436"
         d="m 174,1092.3622 0,4"
         style="fill:none;stroke:#000000;stroke-width:1.5;stroke-linecap:round;stroke-linejoin:round;stroke-miterlimit:4;stroke-opacity:1;stroke-dasharray:none" />
      <path
         sodipodi:nodetypes="cc"
         style="fill:none;stroke:#000000;stroke-width:1.5;stroke-linecap:round;stroke-linejoin:round;stroke-miterlimit:4;stroke-opacity:1;stroke-dasharray:none"
         d="m 169,1092.3622 0,3"
         id="path4438"
         inkscape:connector-curvature="0" />
      <path
         sodipodi:nodetypes="cc"
         inkscape:connector-curvature="0"
         id="path4440"
         d="m 179,1092.3622 0,3"
         style="fill:none;stroke:#000000;stroke-width:1.5;stroke-linecap:round;stroke-linejoin:round;stroke-miterlimit:4;stroke-opacity:1;stroke-dasharray:none" />
      <path
         inkscape:connector-curvature="0"
         id="path4442"
         d="m 165,1090.3622 0,2"
         style="fill:none;stroke:#000000;stroke-width:1.5;stroke-linecap:round;stroke-linejoin:round;stroke-miterlimit:4;stroke-opacity:1;stroke-dasharray:none"
         sodipodi:nodetypes="cc" />
      <path
         sodipodi:nodetypes="cc"
         style="fill:none;stroke:#000000;stroke-width:1.5;stroke-linecap:round;stroke-linejoin:round;stroke-miterlimit:4;stroke-opacity:1;stroke-dasharray:none"
         d="m 183,1090.3622 0,2"
         id="path4444"
         inkscape:connector-curvature="0" />
      <path
         sodipodi:nodetypes="cc"
         style="fill:none;stroke:#000000;stroke-width:1.5;stroke-linecap:round;stroke-linejoin:round;stroke-miterlimit:4;stroke-opacity:1;stroke-dasharray:none"
         d="m 165,1086.3622 0,2"
         id="path4446"
         inkscape:connector-curvature="0" />
      <path
         inkscape:connector-curvature="0"
         id="path4449"
         d="m 183,1086.3622 0,2"
         style="fill:none;stroke:#000000;stroke-width:1.5;stroke-linecap:round;stroke-linejoin:round;stroke-miterlimit:4;stroke-opacity:1;stroke-dasharray:none"
         sodipodi:nodetypes="cc" />
      <path
         style="fill:none;stroke:#000000;stroke-width:1.49999988;stroke-linecap:round;stroke-linejoin:round;stroke-miterlimit:4;stroke-opacity:1;stroke-dasharray:none"
         d="m 179,1083.3622 0,2"
         id="path4451"
         inkscape:connector-curvature="0"
         sodipodi:nodetypes="cc" />
      <path
         sodipodi:nodetypes="cc"
         inkscape:connector-curvature="0"
         id="path4453"
         d="m 169,1083.3622 0,2"
         style="fill:none;stroke:#000000;stroke-width:1.49999988;stroke-linecap:round;stroke-linejoin:round;stroke-miterlimit:4;stroke-opacity:1;stroke-dasharray:none" />
      <path
         sodipodi:nodetypes="zzzzz"
         inkscape:connector-curvature="0"
         id="path4455"
         d="m 155,1089.3622 c 0,-2 11,-12 19,-12 8,0 19,10 19,12 0,2 -11,12 -19,12 -8,0 -19,-10 -19,-12 z"
         style="fill:none;stroke:#000000;stroke-width:1.5;stroke-linecap:round;stroke-linejoin:round;stroke-miterlimit:4;stroke-opacity:1;stroke-dasharray:none" />
    </g>
    <g
       style="display:inline"
       id="g3578"
       transform="matrix(1,0,0,0.9047619,-2,40.74878)">
      <path
         sodipodi:nodetypes="cczcc"
         transform="translate(0,1004.3622)"
         inkscape:connector-curvature="0"
         id="path3574"
         d="m 201,80 c 0,-12 9,-14 14,-14 0,-1 -1,-2 1,-2 2,0 1,1 1,2 5,0 14,2 14,14"
         style="fill:none;stroke:#000000;stroke-width:1.57697248;stroke-linecap:round;stroke-linejoin:round;stroke-miterlimit:4;stroke-opacity:1;stroke-dasharray:none" />
      <path
         sodipodi:nodetypes="czcszsc"
         transform="translate(0,1004.3622)"
         inkscape:connector-curvature="0"
         id="path3576"
         d="m 201,80 c 0,0 4,-2.736835 15,-2.736835 11,0 15,2.736835 15,2.736835 0,0 -1,5.000007 -3,5.000007 -1,0 -4,-2.210527 -12,-2.210527 -8,0 -11,2.210527 -12,2.210527 C 202,85.000007 201,80 201,80 z"
         style="fill:none;stroke:#000000;stroke-width:1.57697248;stroke-linecap:round;stroke-linejoin:round;stroke-miterlimit:4;stroke-opacity:1;stroke-dasharray:none" />
    </g>
    <path
       style="fill:none;stroke:#000000;stroke-width:1.5;stroke-linecap:round;stroke-linejoin:round;stroke-miterlimit:4;stroke-opacity:1;stroke-dasharray:none;display:inline"
       d="m 199,1031.3622 2,5 11,-4 c 0,0 -1,5 0,9 0.97014,3.8806 3,8 7,8 2,0 4.70711,-0.8787 4,-3 -1,-3 -4.58579,-3.1716 -6,-6 -2,-4 -1,-8 -1,-8 l 11,4 2,-5"
       id="path3600"
       inkscape:connector-curvature="0"
       sodipodi:nodetypes="cccssssccc" />
    <g
       style="display:inline"
       id="g3606"
       transform="translate(154,-60.00002)">
      <path
         style="fill:none;stroke:#000000;stroke-width:1.5;stroke-linecap:round;stroke-linejoin:round;stroke-miterlimit:4;stroke-opacity:1;stroke-dasharray:none"
         d="m 84,103 0,-36 4,0 0,6 4,0 0,-6 4,0 0,6 4,0 0,-6 4,0 0,36"
         id="path3608"
         inkscape:connector-curvature="0"
         transform="translate(0,1004.3622)"
         sodipodi:nodetypes="cccccccccccc" />
      <path
         style="fill:none;stroke:#000000;stroke-width:1.5;stroke-linecap:round;stroke-linejoin:round;stroke-miterlimit:4;stroke-opacity:1;stroke-dasharray:none"
         d="m 89,103 c 0,0 0,-4 0,-8 0,-4 2,-7 5,-7 3,0 5,3 5,7 0,4 0,8 0,8"
         id="path3610"
         inkscape:connector-curvature="0"
         transform="translate(0,1004.3622)"
         sodipodi:nodetypes="czzzc" />
    </g>
    <g
       style="display:inline"
       id="g3641"
       transform="translate(7,-60.00002)">
      <path
         sodipodi:nodetypes="csssc"
         transform="translate(0,1004.3622)"
         inkscape:connector-curvature="0"
         id="path3616"
         d="m 272,103 c 0,0 5,-3 5,-7 0,-4 -10,-8 -10,-12 0,-4 10,-8 10,-12 0,-4 -5,-7 -5,-7"
         style="fill:none;stroke:#000000;stroke-width:1.5;stroke-linecap:round;stroke-linejoin:round;stroke-miterlimit:4;stroke-opacity:1;stroke-dasharray:none" />
      <g
         transform="matrix(0.5,-0.8660254,0.8660254,0.5,-823.0038,789.24001)"
         inkscape:transform-center-y="-5.4641004"
         inkscape:transform-center-x="5.5621856"
         id="g3622">
        <path
           inkscape:connector-curvature="0"
           id="path3618"
           d="m 274,1101.3622 4,2 0,-2 2,-2 -4,-2 -2,-4 -2,4 -4,2 2,2 0,2 z"
           style="fill:none;stroke:#000000;stroke-width:1.5;stroke-linecap:round;stroke-linejoin:round;stroke-miterlimit:4;stroke-opacity:1;stroke-dasharray:none" />
        <path
           inkscape:connector-curvature="0"
           id="path3620"
           d="m 274,1098.3622 c 0,0 0,3 0,5 0,2 -2,4 -2,4"
           style="fill:none;stroke:#000000;stroke-width:1.5;stroke-linecap:round;stroke-linejoin:round;stroke-miterlimit:4;stroke-opacity:1;stroke-dasharray:none" />
      </g>
      <g
         id="g3626"
         inkscape:transform-center-x="5.5621856"
         inkscape:transform-center-y="-5.4641004"
         transform="matrix(0.5,-0.8660254,0.8660254,0.5,-823.0038,764.24001)">
        <path
           style="fill:none;stroke:#000000;stroke-width:1.5;stroke-linecap:round;stroke-linejoin:round;stroke-miterlimit:4;stroke-opacity:1;stroke-dasharray:none"
           d="m 274,1101.3622 4,2 0,-2 2,-2 -4,-2 -2,-4 -2,4 -4,2 2,2 0,2 z"
           id="path3628"
           inkscape:connector-curvature="0" />
        <path
           style="fill:none;stroke:#000000;stroke-width:1.5;stroke-linecap:round;stroke-linejoin:round;stroke-miterlimit:4;stroke-opacity:1;stroke-dasharray:none"
           d="m 274,1098.3622 c 0,0 0,3 0,5 0,2 -2,4 -2,4"
           id="path3631"
           inkscape:connector-curvature="0" />
      </g>
      <path
         inkscape:transform-center-y="-5.59805"
         inkscape:transform-center-x="-5.79423"
         style="fill:none;stroke:#000000;stroke-width:1.5;stroke-linecap:round;stroke-linejoin:round;stroke-miterlimit:4;stroke-opacity:1;stroke-dasharray:none"
         d="m 276.19615,1089.6301 -3.73205,-2.4641 1.73205,-1 0.73205,-2.732 3.73205,2.4641 4.46411,-0.268 -2.46411,3.7321 0.26795,4.4641 -2.73205,-0.732 -1.73205,1 z"
         id="path3633"
         inkscape:connector-curvature="0" />
      <path
         inkscape:transform-center-y="-3.11605"
         inkscape:transform-center-x="-3.397115"
         style="fill:none;stroke:#000000;stroke-width:1.5;stroke-linecap:round;stroke-linejoin:round;stroke-miterlimit:4;stroke-opacity:1;stroke-dasharray:none"
         d="m 278.79423,1088.1301 c 0,0 -2.59808,1.5 -4.33013,2.5 -1.73205,1 -2.4641,3.7321 -2.4641,3.7321"
         id="path3635"
         inkscape:connector-curvature="0" />
      <path
         sodipodi:nodetypes="cscc"
         transform="translate(0,1004.3622)"
         inkscape:connector-curvature="0"
         id="path3637"
         d="m 272,90 c -4,-3 -8,-9 -11,-5 -3,4 4,6 4,3 0,-2 -2,-2 -2,-1"
         style="fill:none;stroke:#000000;stroke-width:1.5;stroke-linecap:round;stroke-linejoin:round;stroke-miterlimit:4;stroke-opacity:1;stroke-dasharray:none" />
      <path
         style="fill:none;stroke:#000000;stroke-width:1.5;stroke-linecap:round;stroke-linejoin:round;stroke-miterlimit:4;stroke-opacity:1;stroke-dasharray:none"
         d="m 272,1082.3622 c 4,-3 8,-9 11,-5 3,4 -4,6 -4,3 0,-2 2,-2 2,-1"
         id="path3639"
         inkscape:connector-curvature="0"
         sodipodi:nodetypes="cscc" />
    </g>
    <g
       style="display:inline"
       id="g3751"
       transform="matrix(1,0,0,0.68421041,2,277.00925)">
      <rect
         ry="2"
         y="1070.3622"
         x="296"
         height="19"
         width="30"
         id="rect3654"
         style="fill:none;stroke:#000000;stroke-width:1.81341171;stroke-linecap:round;stroke-linejoin:round;stroke-miterlimit:4;stroke-opacity:1;stroke-dasharray:none" />
      <path
         inkscape:connector-curvature="0"
         id="path3656"
         d="m 296,1080.4955 30,0"
         style="fill:none;stroke:#000000;stroke-width:1.81341171;stroke-linecap:round;stroke-linejoin:round;stroke-miterlimit:4;stroke-opacity:1;stroke-dasharray:none"
         sodipodi:nodetypes="cc" />
      <path
         inkscape:connector-curvature="0"
         id="path3660"
         d="m 302,1070.3622 0,19"
         style="fill:none;stroke:#000000;stroke-width:1.81341171;stroke-linecap:round;stroke-linejoin:round;stroke-miterlimit:4;stroke-opacity:1;stroke-dasharray:none" />
      <path
         inkscape:connector-curvature="0"
         id="path3664"
         d="m 308,1070.3622 0,19"
         style="fill:none;stroke:#000000;stroke-width:1.81341171;stroke-linecap:round;stroke-linejoin:round;stroke-miterlimit:4;stroke-opacity:1;stroke-dasharray:none" />
      <path
         style="fill:none;stroke:#000000;stroke-width:1.81341171;stroke-linecap:round;stroke-linejoin:round;stroke-miterlimit:4;stroke-opacity:1;stroke-dasharray:none"
         d="m 314,1070.3622 0,19"
         id="path3666"
         inkscape:connector-curvature="0" />
      <path
         style="fill:none;stroke:#000000;stroke-width:1.81341171;stroke-linecap:round;stroke-linejoin:round;stroke-miterlimit:4;stroke-opacity:1;stroke-dasharray:none"
         d="m 320,1070.3622 0,19"
         id="path3668"
         inkscape:connector-curvature="0" />
    </g>
    <g
       style="display:inline"
       id="g3770"
       transform="translate(-1,-61.00002)">
      <path
         sodipodi:nodetypes="cssscccc"
         transform="translate(0,1004.3622)"
         inkscape:connector-curvature="0"
         id="path3760"
         d="m 303,92 c -1,-1 -2.9681,-2.293359 -3.93903,-1.045198 -1.78144,2.290089 1.39728,3.155127 1.03669,4.236885 -0.36059,1.081757 -0.85639,2.253662 -0.63103,3.2002 0.22537,0.946538 1.26205,2.028293 1.21698,2.659323 -0.0451,0.63102 -0.45073,2.02829 0.0451,2.25366 0.49581,0.22537 2.43396,0.45073 3.11006,-0.0451 1.31444,-0.26368 3.39477,-5.411798 3.15513,-5.498939"
         style="fill:none;stroke:#000000;stroke-width:1.5;stroke-linecap:round;stroke-linejoin:round;stroke-miterlimit:4;stroke-opacity:1;stroke-dasharray:none" />
      <path
         transform="translate(0,1004.3622)"
         inkscape:connector-curvature="0"
         id="path3762"
         d="m 300.95781,98.770001 -0.0939,0.469513"
         style="fill:none;stroke:#000000;stroke-width:1.5;stroke-linecap:round;stroke-linejoin:round;stroke-miterlimit:4;stroke-opacity:1;stroke-dasharray:none" />
      <path
         sodipodi:nodetypes="cssssc"
         transform="translate(0,1004.3622)"
         inkscape:connector-curvature="0"
         id="path3764"
         d="m 306.40416,93.167147 c 0,0 0.0626,2.065857 1.06423,3.975209 1.00162,1.909353 2.19268,5.477654 1.75447,5.571554 -0.43821,0.0939 -2.12846,0.75122 -0.2191,1.31464 1.90935,0.56341 3.09878,-0.59472 3.09878,-0.93903 0,-0.34431 1.0626,-6.729685 1.0626,-6.729685"
         style="fill:none;stroke:#000000;stroke-width:1.5;stroke-linecap:round;stroke-linejoin:round;stroke-miterlimit:4;stroke-opacity:1;stroke-dasharray:none" />
      <path
         sodipodi:nodetypes="cscsssssssc"
         transform="translate(0,1004.3622)"
         inkscape:connector-curvature="0"
         id="path3766"
         d="M 311.27171,94.126797 C 312.30464,95.065823 311,94 312.63303,95.170402 c 0.57173,0.409759 4.85001,1.878052 4.85001,1.878052 0,0 0.49918,1.533742 0.49918,2.660573 0,1.126833 0.84513,2.818703 0.15651,2.756103 -0.68862,-0.0626 -1.50245,-0.56341 -1.94066,0.31301 -0.43821,0.87642 -0.78252,1.50244 1.94066,1.69025 2.72317,0.1878 1.62764,-0.43822 3.06748,-2.53537 1.43984,-2.09716 0.9407,-2.036188 2.38049,-3.382125 1.43984,-1.345937 1.44147,-2.817077 1.59798,-3.787404 0.1565,-0.970327 0,-1.471141 0,-1.471141"
         style="fill:none;stroke:#000000;stroke-width:1.5;stroke-linecap:round;stroke-linejoin:round;stroke-miterlimit:4;stroke-opacity:1;stroke-dasharray:none" />
      <path
         sodipodi:nodetypes="cscsssssssssc"
         transform="translate(0,1004.3622)"
         inkscape:connector-curvature="0"
         id="path3768"
         d="m 323.83874,98.394391 c 0.1878,1.345937 1.78415,2.943909 1.06423,3.382119 -0.71992,0.43821 -1.43984,1.06423 -0.78252,1.50244 0.65731,0.43822 3.16138,1.22074 3.7248,0.53212 0.56341,-0.68862 -0.21911,-2.56667 0.28171,-3.6622 0.50081,-1.09553 0.87642,-2.16139 0.71992,-4.289849 -0.15651,-2.128459 0.2817,-4.163015 -0.46952,-5.383749 -0.75122,-1.220733 -1.97195,-3.474395 -3.44309,-4.288218 -1.47114,-0.813822 -4.22562,-2.222361 -6.91749,-2.128459 -2.69188,0.0939 -5.22725,1.06423 -6.44798,1.189433 -1.22073,0.125204 -3.537,-0.845123 -4.91424,-0.688619 -1.37723,0.156504 -2.69187,3.349193 -3.00488,3.943909 -0.31301,0.594716 -1.34594,2.128459 -1.34594,2.128459"
         style="fill:none;stroke:#000000;stroke-width:1.5;stroke-linecap:round;stroke-linejoin:round;stroke-miterlimit:4;stroke-opacity:1;stroke-dasharray:none" />
    </g>
    <g
       style="display:inline"
       transform="translate(254,-60.00002)"
       id="g3782">
      <path
         sodipodi:nodetypes="cccccccccccc"
         transform="translate(0,1004.3622)"
         inkscape:connector-curvature="0"
         id="path3784"
         d="m 84,103 0,-36 4,0 0,6 4,0 0,-6 4,0 0,6 4,0 0,-6 4,0 0,36"
         style="fill:none;stroke:#000000;stroke-width:1.5;stroke-linecap:round;stroke-linejoin:round;stroke-miterlimit:4;stroke-opacity:1;stroke-dasharray:none" />
      <path
         sodipodi:nodetypes="czzzc"
         transform="translate(0,1004.3622)"
         inkscape:connector-curvature="0"
         id="path3786"
         d="m 89,103 c 0,0 0,-4 0,-8 0,-4 2,-7 5,-7 3,0 5,3 5,7 0,4 0,8 0,8"
         style="fill:none;stroke:#000000;stroke-width:1.5;stroke-linecap:round;stroke-linejoin:round;stroke-miterlimit:4;stroke-opacity:1;stroke-dasharray:none" />
    </g>
    <rect
       ry="4"
       y="1039.3622"
       x="364"
       height="8"
       width="40"
       id="rect3788"
       style="fill:none;stroke:#000000;stroke-width:1.5;stroke-linecap:round;stroke-linejoin:round;stroke-miterlimit:4;stroke-opacity:1;stroke-dasharray:none;display:inline" />
  </g>
</svg>
