<?xml version="1.0" encoding="UTF-8" standalone="no"?>
<!-- Created with Inkscape (http://www.inkscape.org/) -->

<svg
   xmlns:dc="http://purl.org/dc/elements/1.1/"
   xmlns:cc="http://creativecommons.org/ns#"
   xmlns:rdf="http://www.w3.org/1999/02/22-rdf-syntax-ns#"
   xmlns:svg="http://www.w3.org/2000/svg"
   xmlns="http://www.w3.org/2000/svg"
   xmlns:sodipodi="http://sodipodi.sourceforge.net/DTD/sodipodi-0.dtd"
   xmlns:inkscape="http://www.inkscape.org/namespaces/inkscape"
   width="136"
   height="48"
   id="svg2"
   version="1.1"
   inkscape:version="0.48.4 r9939"
   sodipodi:docname="pray-sack-yew-tree-person.svg">
  <defs
     id="defs4" />
  <sodipodi:namedview
     id="base"
     pagecolor="#ffffff"
     bordercolor="#666666"
     borderopacity="1.0"
     inkscape:pageopacity="0.0"
     inkscape:pageshadow="2"
     inkscape:zoom="6.4709491"
     inkscape:cx="39.455831"
     inkscape:cy="31.922417"
     inkscape:document-units="px"
     inkscape:current-layer="layer1"
     showgrid="true"
     inkscape:window-width="1867"
     inkscape:window-height="1059"
     inkscape:window-x="49"
     inkscape:window-y="-4"
     inkscape:window-maximized="1"
     width="120px"
     inkscape:snap-bbox="true"
     inkscape:bbox-paths="true"
     inkscape:bbox-nodes="true"
     inkscape:snap-bbox-edge-midpoints="true"
     inkscape:snap-bbox-midpoints="true">
    <inkscape:grid
       type="xygrid"
       id="grid2985"
       empspacing="4"
       visible="true"
       enabled="true"
       snapvisiblegridlinesonly="true" />
  </sodipodi:namedview>
  <metadata
     id="metadata7">
    <rdf:RDF>
      <cc:Work
         rdf:about="">
        <dc:format>image/svg+xml</dc:format>
        <dc:type
           rdf:resource="http://purl.org/dc/dcmitype/StillImage" />
        <dc:title></dc:title>
      </cc:Work>
    </rdf:RDF>
  </metadata>
  <g
     inkscape:label="Layer 1"
     inkscape:groupmode="layer"
     id="layer1"
     transform="translate(0,-1004.3622)">
    <g
       style="display:inline"
       transform="translate(-68.999968,46.845934)"
       id="g4084">
      <path
         style="fill:none;stroke:#000000;stroke-width:1.50000012;stroke-linecap:round;stroke-linejoin:round;stroke-miterlimit:4;stroke-opacity:1;stroke-dasharray:none"
         d="m 86.102947,975.90109 c 0,0 -2.779777,-2.97952 -2.779777,-3.7244 0,-0.74488 1.389889,-2.23464 1.389889,-3.7244 0,-1.48976 -4.169666,-2.23464 -4.86461,-1.48976 -0.694945,0.74488 -2.084833,2.97952 -2.084833,3.7244 0,0.74488 2.779777,2.23464 2.084833,2.97952 -0.694945,0.74488 -2.084833,2.23464 -2.084833,2.23464 C 79.848449,978.88061 80,987.3622 80,987.3622 l 4,-1 2.102947,-10.46111"
         id="path4086"
         inkscape:connector-curvature="0"
         sodipodi:nodetypes="cssssscccc" />
      <path
         style="fill:none;stroke:#000000;stroke-width:1.50000012;stroke-linecap:round;stroke-linejoin:round;stroke-miterlimit:4;stroke-opacity:1;stroke-dasharray:none"
         d="m 79.834353,969.80169 0.435047,0"
         id="path4088"
         inkscape:connector-curvature="0" />
      <path
         style="fill:none;stroke:#000000;stroke-width:1.5;stroke-linecap:round;stroke-linejoin:round;stroke-miterlimit:4;stroke-opacity:1;stroke-dasharray:none"
         d="m 80,987.3622 -6,10 17,-3 0,3"
         id="path4090"
         inkscape:connector-curvature="0"
         sodipodi:nodetypes="cccc" />
      <path
         sodipodi:nodetypes="cc"
         style="fill:none;stroke:#000000;stroke-width:1.50000012;stroke-linecap:round;stroke-linejoin:round;stroke-miterlimit:4;stroke-opacity:1;stroke-dasharray:none"
         d="m 84,986.3622 -4,9"
         id="path4092"
         inkscape:connector-curvature="0" />
      <path
         style="fill:none;stroke:#000000;stroke-width:1.5;stroke-linecap:round;stroke-linejoin:round;stroke-miterlimit:4;stroke-opacity:1;stroke-dasharray:none"
         d="M 77.588707,976.19758 73,983.3622 l 2,-9"
         id="path4094"
         inkscape:connector-curvature="0"
         sodipodi:nodetypes="ccc" />
      <path
         style="fill:none;stroke:#000000;stroke-width:1.5;stroke-linecap:round;stroke-linejoin:round;stroke-miterlimit:4;stroke-opacity:1;stroke-dasharray:none"
         d="m 79.328534,967.76286 c 2.256004,-0.1287 4.618055,2.51217 3.906348,4.05659"
         id="path4096"
         inkscape:connector-curvature="0"
         sodipodi:nodetypes="cc" />
      <path
         sodipodi:nodetypes="cc"
         inkscape:connector-curvature="0"
         id="path4098"
         d="m 87,998.3622 0,-3"
         style="fill:none;stroke:#000000;stroke-width:1.5;stroke-linecap:round;stroke-linejoin:round;stroke-miterlimit:4;stroke-opacity:1;stroke-dasharray:none" />
    </g>
    <g
       style="display:inline"
       transform="translate(-50.176608,143.02624)"
       id="g4141">
      <path
         sodipodi:nodetypes="cc"
         inkscape:connector-curvature="0"
         id="path4143"
         d="M 119.68394,903.33598 C 115.42431,891.55711 107.64,889.94075 104.01703,890.20005"
         style="fill:none;stroke:#000000;stroke-width:1.5;stroke-linecap:round;stroke-linejoin:round;stroke-miterlimit:4;stroke-opacity:1;stroke-dasharray:none" />
      <path
         style="fill:none;stroke:#000000;stroke-width:1.5;stroke-linecap:round;stroke-linejoin:round;stroke-miterlimit:4;stroke-opacity:1;stroke-dasharray:none"
         d="m 116.62124,891.51355 c -3.99979,-7.31274 -10.42202,-9.34627 -13.89998,-9.57713"
         id="path4145"
         inkscape:connector-curvature="0"
         sodipodi:nodetypes="cc" />
      <path
         sodipodi:nodetypes="cc"
         inkscape:connector-curvature="0"
         id="path4148"
         d="M 117.15132,886.50938 C 113.47204,876.01982 104.53354,873.5239 104.01703,873.62202"
         style="fill:none;stroke:#000000;stroke-width:1.5;stroke-linecap:round;stroke-linejoin:round;stroke-miterlimit:4;stroke-opacity:1;stroke-dasharray:none" />
      <path
         sodipodi:nodetypes="cc"
         inkscape:connector-curvature="0"
         id="path4150"
         d="m 117.5636,879.87896 c -3.65168,-9.2577 -7.24447,-11.25935 -7.24447,-11.25935"
         style="fill:none;stroke:#000000;stroke-width:1.5;stroke-linecap:round;stroke-linejoin:round;stroke-miterlimit:4;stroke-opacity:1;stroke-dasharray:none" />
      <path
         sodipodi:nodetypes="cc"
         inkscape:connector-curvature="0"
         id="path4152"
         d="m 117.6225,871.68465 c -0.64788,-2.43953 -3.94617,-5.44203 -3.94617,-5.44203"
         style="fill:none;stroke:#000000;stroke-width:1.5;stroke-linecap:round;stroke-linejoin:round;stroke-miterlimit:4;stroke-opacity:1;stroke-dasharray:none" />
      <path
         sodipodi:nodetypes="cc"
         inkscape:connector-curvature="0"
         id="path4154"
         d="m 118.56488,883.50698 c 4.66261,-6.74988 8.97332,-7.92593 11.54404,-8.69473"
         style="fill:none;stroke:#000000;stroke-width:1.5;stroke-linecap:round;stroke-linejoin:round;stroke-miterlimit:4;stroke-opacity:1;stroke-dasharray:none" />
      <path
         sodipodi:nodetypes="cc"
         inkscape:connector-curvature="0"
         id="path4156"
         d="m 118.68267,875.37521 c 4.06398,-4.6914 8.12795,-6.06754 8.12795,-6.06754"
         style="fill:none;stroke:#000000;stroke-width:1.5;stroke-linecap:round;stroke-linejoin:round;stroke-miterlimit:4;stroke-opacity:1;stroke-dasharray:none" />
      <path
         sodipodi:nodetypes="cc"
         inkscape:connector-curvature="0"
         id="path4158"
         d="m 119.27165,869.12002 c 1.88474,-2.7523 5.06524,-4.00334 5.06524,-4.00334"
         style="fill:none;stroke:#000000;stroke-width:1.5;stroke-linecap:round;stroke-linejoin:round;stroke-miterlimit:4;stroke-opacity:1;stroke-dasharray:none" />
      <path
         sodipodi:open="true"
         sodipodi:end="10.111014"
         sodipodi:start="5.5991711"
         transform="matrix(0.91412862,0.40542431,-0.42683055,0.96239424,-7.0865825,901.70941)"
         d="m 127.40136,-65.506451 c 3.00611,3.54299 2.45412,8.756888 -1.23289,11.645567 -3.68702,2.888678 -9.11286,2.358254 -12.11897,-1.184736 -2.58814,-3.050385 -2.58308,-7.43022 0.0121,-10.475071"
         sodipodi:ry="8.2771616"
         sodipodi:rx="8.6136312"
         sodipodi:cy="-60.276035"
         sodipodi:cx="120.72543"
         id="path4160"
         style="fill:none;stroke:#000000;stroke-width:1.4619025;stroke-linecap:round;stroke-linejoin:round;stroke-miterlimit:4;stroke-opacity:1;stroke-dasharray:none"
         sodipodi:type="arc" />
      <path
         transform="matrix(2.4088525,1.0683479,-0.59344721,1.3380724,-190.0985,866.87178)"
         d="m 117.02456,-75.547562 c 0,1.236698 -1.07518,2.239239 -2.4015,2.239239 -1.32631,0 -2.4015,-1.002541 -2.4015,-2.239239 0,-1.236697 1.07519,-2.239238 2.4015,-2.239238 1.32632,0 2.4015,1.002541 2.4015,2.239238 z"
         sodipodi:ry="2.2392387"
         sodipodi:rx="2.4015024"
         sodipodi:cy="-75.547562"
         sodipodi:cx="114.62306"
         id="path4162"
         style="fill:none;stroke:#000000;stroke-width:0.76375431;stroke-linecap:round;stroke-linejoin:round;stroke-miterlimit:4;stroke-opacity:1;stroke-dasharray:none"
         sodipodi:type="arc" />
    </g>
    <path
       style="fill:none;stroke:#000000;stroke-width:1.49999988;stroke-linecap:round;stroke-linejoin:round;stroke-miterlimit:4;stroke-opacity:1;stroke-dasharray:none;display:inline"
       d="m 29.000032,1040.9336 c 1,-16 2,-17.8571 8.5383,-23.5374 -0.70806,-1.6776 -3.72046,-3.9758 -3.5383,-5.8911 5,2.2857 3,2.2857 9,-1.1429 -2.58554,5.2181 -4.33767,4.32 -4,7 8.5697,5.0781 8.8918,15.2082 9,21.2857 0,1.8109 2,5.7143 2,5.7143 -3.8473,-3.452 -5,0 -11,0 -6,0 -7.00855,-1.9068 -12,0 0,0 1.21488,-1.963 2,-3.4286 z"
       id="path4170"
       inkscape:connector-curvature="0"
       sodipodi:nodetypes="ccccccczcc" />
    <g
       style="display:inline"
       id="g4189"
       transform="translate(-389.99997,389.00004)">
      <path
         sodipodi:nodetypes="cssc"
         transform="translate(0,1004.3622)"
         inkscape:connector-curvature="0"
         id="path4172"
         d="m 488,-346 c 0,0 4,0 4,-4 0,-2 0,-5 0,-8 0,-7 -11,-14 -11,-14"
         style="fill:none;stroke:#000000;stroke-width:1.5;stroke-linecap:round;stroke-linejoin:round;stroke-miterlimit:4;stroke-opacity:1;stroke-dasharray:none" />
      <path
         style="fill:none;stroke:#000000;stroke-width:1.5;stroke-linecap:round;stroke-linejoin:round;stroke-miterlimit:4;stroke-opacity:1;stroke-dasharray:none"
         d="m 499,658.3622 c 0,0 -4,0 -4,-4 0,-2 0,-10 0,-13 0,-7 7,-9 7,-9"
         id="path4174"
         inkscape:connector-curvature="0"
         sodipodi:nodetypes="cssc" />
      <path
         sodipodi:nodetypes="ccc"
         transform="translate(0,1004.3622)"
         inkscape:connector-curvature="0"
         id="path4176"
         d="m 491,-362 c -3,-6 -4,-21 -4,-21 l 0,-2"
         style="fill:none;stroke:#000000;stroke-width:1.5;stroke-linecap:round;stroke-linejoin:round;stroke-miterlimit:4;stroke-opacity:1;stroke-dasharray:none" />
      <path
         sodipodi:nodetypes="cc"
         transform="translate(0,1004.3622)"
         inkscape:connector-curvature="0"
         id="path4178"
         d="m 495,-364 c 1,-5 2,-20 2,-20"
         style="fill:none;stroke:#000000;stroke-width:1.5;stroke-linecap:round;stroke-linejoin:round;stroke-miterlimit:4;stroke-opacity:1;stroke-dasharray:none" />
      <path
         sodipodi:nodetypes="cc"
         transform="translate(0,1004.3622)"
         inkscape:connector-curvature="0"
         id="path4180"
         d="m 488,-374 c 0,-4 -7,-8 -7,-8"
         style="fill:none;stroke:#000000;stroke-width:1.5;stroke-linecap:round;stroke-linejoin:round;stroke-miterlimit:4;stroke-opacity:1;stroke-dasharray:none" />
      <path
         sodipodi:nodetypes="cc"
         transform="translate(0,1004.3622)"
         inkscape:connector-curvature="0"
         id="path4182"
         d="m 496,-372 c 2,-6 6,-10 6,-10"
         style="fill:none;stroke:#000000;stroke-width:1.5;stroke-linecap:round;stroke-linejoin:round;stroke-miterlimit:4;stroke-opacity:1;stroke-dasharray:none" />
      <path
         sodipodi:nodetypes="cc"
         transform="translate(0,1004.3622)"
         inkscape:connector-curvature="0"
         id="path4184"
         d="m 491,-362 c -1,-5 0,-18 0,-18"
         style="fill:none;stroke:#000000;stroke-width:1.5;stroke-linecap:round;stroke-linejoin:round;stroke-miterlimit:4;stroke-opacity:1;stroke-dasharray:none" />
      <path
         sodipodi:nodetypes="cc"
         transform="translate(0,1004.3622)"
         inkscape:connector-curvature="0"
         id="path4186"
         d="m 495,-364 c 0,-8 -2,-11 -2,-11"
         style="fill:none;stroke:#000000;stroke-width:1.5;stroke-linecap:round;stroke-linejoin:round;stroke-miterlimit:4;stroke-opacity:1;stroke-dasharray:none" />
    </g>
    <g
       style="display:inline"
       id="g4306"
       transform="translate(99.763651,94.700434)">
      <path
         sodipodi:nodetypes="cssssscccc"
         inkscape:connector-curvature="0"
         id="path4308"
         d="m 31.339331,922.20068 c 0,0 -2.779777,-2.97952 -2.779777,-3.7244 0,-0.74488 1.389889,-2.23464 1.389889,-3.7244 0,-1.48976 -4.169666,-2.23464 -4.86461,-1.48976 C 24.389888,914.007 23,916.24164 23,916.98652 c 0,0.74488 2.779777,2.23464 2.084833,2.97952 C 24.389888,920.71092 23,922.20068 23,922.20068 c 2.084833,2.97952 2.63391,11.59354 2.63391,11.59354 l 3.620588,-0.42035 2.084833,-11.17319"
         style="fill:none;stroke:#000000;stroke-width:1.50000012;stroke-linecap:round;stroke-linejoin:round;stroke-miterlimit:4;stroke-opacity:1;stroke-dasharray:none" />
      <path
         inkscape:connector-curvature="0"
         id="path4310"
         d="m 25.070737,916.10128 0.435047,0"
         style="fill:none;stroke:#000000;stroke-width:1.50000012;stroke-linecap:round;stroke-linejoin:round;stroke-miterlimit:4;stroke-opacity:1;stroke-dasharray:none" />
      <path
         sodipodi:nodetypes="ccc"
         transform="translate(0,1004.3622)"
         inkscape:connector-curvature="0"
         id="path4312"
         d="m 29.122702,-70.89067 -0.02342,18.828068 -3.623889,0"
         style="fill:none;stroke:#000000;stroke-width:1.5;stroke-linecap:round;stroke-linejoin:round;stroke-miterlimit:4;stroke-opacity:1;stroke-dasharray:none" />
      <path
         sodipodi:nodetypes="ccc"
         transform="translate(0,1004.3622)"
         inkscape:connector-curvature="0"
         id="path4314"
         d="m 25.691748,-70.236134 -3.894328,18.22762 -3.732064,0"
         style="fill:none;stroke:#000000;stroke-width:1.5;stroke-linecap:round;stroke-linejoin:round;stroke-miterlimit:4;stroke-opacity:1;stroke-dasharray:none" />
      <path
         inkscape:connector-curvature="0"
         id="path4316"
         d="m 31.370978,922.22677 0.865406,16.11818"
         style="fill:none;stroke:#000000;stroke-width:1.50000012;stroke-linecap:round;stroke-linejoin:round;stroke-miterlimit:4;stroke-opacity:1;stroke-dasharray:none" />
      <path
         sodipodi:nodetypes="ccc"
         inkscape:connector-curvature="0"
         id="path4318"
         d="m 22.825091,922.49717 -0.432703,7.35595 -4.723676,6.30275"
         style="fill:none;stroke:#000000;stroke-width:1.5;stroke-linecap:round;stroke-linejoin:round;stroke-miterlimit:4;stroke-opacity:1;stroke-dasharray:none" />
      <path
         sodipodi:nodetypes="cc"
         transform="translate(0,1004.3622)"
         inkscape:connector-curvature="0"
         id="path4320"
         d="m 24.564918,-90.299738 c 2.256004,-0.128705 4.618055,2.512173 3.906348,4.056593"
         style="fill:none;stroke:#000000;stroke-width:1.5;stroke-linecap:round;stroke-linejoin:round;stroke-miterlimit:4;stroke-opacity:1;stroke-dasharray:none" />
    </g>
  </g>
</svg>
