<?xml version="1.0" encoding="UTF-8" standalone="no"?>
<!-- Created with Inkscape (http://www.inkscape.org/) -->

<svg
   xmlns:dc="http://purl.org/dc/elements/1.1/"
   xmlns:cc="http://creativecommons.org/ns#"
   xmlns:rdf="http://www.w3.org/1999/02/22-rdf-syntax-ns#"
   xmlns:svg="http://www.w3.org/2000/svg"
   xmlns="http://www.w3.org/2000/svg"
   xmlns:sodipodi="http://sodipodi.sourceforge.net/DTD/sodipodi-0.dtd"
   xmlns:inkscape="http://www.inkscape.org/namespaces/inkscape"
   width="64"
   height="48"
   id="svg2"
   version="1.1"
   inkscape:version="0.48.4 r9939"
   sodipodi:docname="go-i.svg">
  <defs
     id="defs4" />
  <sodipodi:namedview
     id="base"
     pagecolor="#ffffff"
     bordercolor="#666666"
     borderopacity="1.0"
     inkscape:pageopacity="0.0"
     inkscape:pageshadow="2"
     inkscape:zoom="6.4709491"
     inkscape:cx="39.455831"
     inkscape:cy="60.135434"
     inkscape:document-units="px"
     inkscape:current-layer="layer1"
     showgrid="true"
     inkscape:window-width="1867"
     inkscape:window-height="1059"
     inkscape:window-x="49"
     inkscape:window-y="-4"
     inkscape:window-maximized="1"
     width="120px"
     inkscape:snap-bbox="true"
     inkscape:bbox-paths="true"
     inkscape:bbox-nodes="true"
     inkscape:snap-bbox-edge-midpoints="true"
     inkscape:snap-bbox-midpoints="true">
    <inkscape:grid
       type="xygrid"
       id="grid2985"
       empspacing="4"
       visible="true"
       enabled="true"
       snapvisiblegridlinesonly="true" />
  </sodipodi:namedview>
  <metadata
     id="metadata7">
    <rdf:RDF>
      <cc:Work
         rdf:about="">
        <dc:format>image/svg+xml</dc:format>
        <dc:type
           rdf:resource="http://purl.org/dc/dcmitype/StillImage" />
        <dc:title></dc:title>
      </cc:Work>
    </rdf:RDF>
  </metadata>
  <g
     inkscape:label="Layer 1"
     inkscape:groupmode="layer"
     id="layer1"
     transform="translate(0,-1004.3622)">
    <g
       style="display:inline"
       id="g3485"
       transform="translate(-69,45.845934)">
      <path
         sodipodi:nodetypes="cssssscccc"
         inkscape:connector-curvature="0"
         id="path3487"
         d="m 86.102947,975.90109 c 0,0 -2.779777,-2.97952 -2.779777,-3.7244 0,-0.74488 1.389889,-2.23464 1.389889,-3.7244 0,-1.48976 -4.169666,-2.23464 -4.86461,-1.48976 -0.694945,0.74488 -2.084833,2.97952 -2.084833,3.7244 0,0.74488 2.779777,2.23464 2.084833,2.97952 -0.694945,0.74488 -2.084833,2.23464 -2.084833,2.23464 C 79.848449,978.88061 80,987.3622 80,987.3622 l 4,-1 2.102947,-10.46111"
         style="fill:none;stroke:#000000;stroke-width:1.50000012;stroke-linecap:round;stroke-linejoin:round;stroke-miterlimit:4;stroke-opacity:1;stroke-dasharray:none" />
      <path
         inkscape:connector-curvature="0"
         id="path3489"
         d="m 79.834353,969.80169 0.435047,0"
         style="fill:none;stroke:#000000;stroke-width:1.50000012;stroke-linecap:round;stroke-linejoin:round;stroke-miterlimit:4;stroke-opacity:1;stroke-dasharray:none" />
      <path
         sodipodi:nodetypes="cccc"
         inkscape:connector-curvature="0"
         id="path3491"
         d="m 80,987.3622 -6,10 17,-3 0,3"
         style="fill:none;stroke:#000000;stroke-width:1.5;stroke-linecap:round;stroke-linejoin:round;stroke-miterlimit:4;stroke-opacity:1;stroke-dasharray:none" />
      <path
         inkscape:connector-curvature="0"
         id="path3493"
         d="m 84,986.3622 -4,9"
         style="fill:none;stroke:#000000;stroke-width:1.50000012;stroke-linecap:round;stroke-linejoin:round;stroke-miterlimit:4;stroke-opacity:1;stroke-dasharray:none"
         sodipodi:nodetypes="cc" />
      <path
         sodipodi:nodetypes="ccc"
         inkscape:connector-curvature="0"
         id="path3495"
         d="M 77.588707,976.19758 73,983.3622 l 2,-9"
         style="fill:none;stroke:#000000;stroke-width:1.5;stroke-linecap:round;stroke-linejoin:round;stroke-miterlimit:4;stroke-opacity:1;stroke-dasharray:none" />
      <path
         sodipodi:nodetypes="cc"
         inkscape:connector-curvature="0"
         id="path3497"
         d="m 79.328534,967.76286 c 2.256004,-0.1287 4.618055,2.51217 3.906348,4.05659"
         style="fill:none;stroke:#000000;stroke-width:1.5;stroke-linecap:round;stroke-linejoin:round;stroke-miterlimit:4;stroke-opacity:1;stroke-dasharray:none" />
      <path
         style="fill:none;stroke:#000000;stroke-width:1.5;stroke-linecap:round;stroke-linejoin:round;stroke-miterlimit:4;stroke-opacity:1;stroke-dasharray:none"
         d="m 87,998.3622 0,-3"
         id="path3499"
         inkscape:connector-curvature="0"
         sodipodi:nodetypes="cc" />
    </g>
    <g
       style="display:inline"
       id="g3503"
       transform="translate(-123.7,141.87254)">
      <path
         style="fill:none;stroke:#000000;stroke-width:1.5;stroke-linecap:round;stroke-linejoin:round;stroke-miterlimit:4;stroke-opacity:1;stroke-dasharray:none"
         d="m 151.9,904.4622 c 4.47313,-4.06504 7.91542,-7.47186 12.97938,-10.79746 m 6.3632,-3.96697 c 2.21058,-1.21802 5.92434,-1.79987 8.6257,0.27625 2.09673,1.42696 2.58727,4.61474 0.88758,6.53944 -2.70789,3.1236 -7.13628,3.70503 -11.03036,3.92113 -2.92873,0.0554 -5.40645,0.25268 -8.26815,-0.56485 m -5.7968,-2.94437 c -2.12892,-1.49661 -2.38553,-4.30896 -0.5474,-6.37786 2.18458,-2.60385 6.09323,-2.39953 8.93203,-1.082 4.16715,1.84618 7.1187,4.03264 10.6227,6.93386 m 5.82606,4.95692 c 1.25089,1.14373 2.00962,1.80516 3.20606,3.00591"
         id="path3505"
         inkscape:connector-curvature="0"
         sodipodi:nodetypes="ccccccccccccc" />
    </g>
    <g
       style="display:inline"
       id="g3515"
       transform="matrix(1.625,0,0,1.5000016,-671,-105.18228)">
      <path
         sodipodi:nodetypes="csc"
         transform="translate(0,1004.3622)"
         inkscape:connector-curvature="0"
         id="path3509"
         d="m 432,-256 c 0,-3 1,-4 4,-4 3,0 12,2 12,4"
         style="fill:none;stroke:#000000;stroke-width:0.96076846;stroke-linecap:round;stroke-linejoin:round;stroke-miterlimit:4;stroke-opacity:1;stroke-dasharray:none" />
      <path
         style="fill:none;stroke:#000000;stroke-width:0.96076846;stroke-linecap:round;stroke-linejoin:round;stroke-miterlimit:4;stroke-opacity:1;stroke-dasharray:none"
         d="m 432,748.3622 c 0,3 1,4 4,4 3,0 12,-2 12,-4"
         id="path3511"
         inkscape:connector-curvature="0"
         sodipodi:nodetypes="csc" />
      <path
         inkscape:connector-curvature="0"
         id="path3513"
         d="m 433.00001,748.3622 14,0"
         style="fill:none;stroke:#000000;stroke-width:0.96076846;stroke-linecap:round;stroke-linejoin:round;stroke-miterlimit:4;stroke-opacity:1;stroke-dasharray:none" />
    </g>
  </g>
</svg>
