<?xml version="1.0" encoding="UTF-8" standalone="no"?>
<!-- Created with Inkscape (http://www.inkscape.org/) -->

<svg
   xmlns:dc="http://purl.org/dc/elements/1.1/"
   xmlns:cc="http://creativecommons.org/ns#"
   xmlns:rdf="http://www.w3.org/1999/02/22-rdf-syntax-ns#"
   xmlns:svg="http://www.w3.org/2000/svg"
   xmlns="http://www.w3.org/2000/svg"
   xmlns:sodipodi="http://sodipodi.sourceforge.net/DTD/sodipodi-0.dtd"
   xmlns:inkscape="http://www.inkscape.org/namespaces/inkscape"
   width="84"
   height="48"
   id="svg2"
   version="1.1"
   inkscape:version="0.48.4 r9939"
   sodipodi:docname="round-i-node.svg">
  <defs
     id="defs4" />
  <sodipodi:namedview
     id="base"
     pagecolor="#ffffff"
     bordercolor="#666666"
     borderopacity="1.0"
     inkscape:pageopacity="0.0"
     inkscape:pageshadow="2"
     inkscape:zoom="6.4709491"
     inkscape:cx="39.455831"
     inkscape:cy="60.135434"
     inkscape:document-units="px"
     inkscape:current-layer="layer1"
     showgrid="true"
     inkscape:window-width="1867"
     inkscape:window-height="1059"
     inkscape:window-x="49"
     inkscape:window-y="-4"
     inkscape:window-maximized="1"
     width="120px"
     inkscape:snap-bbox="true"
     inkscape:bbox-paths="true"
     inkscape:bbox-nodes="true"
     inkscape:snap-bbox-edge-midpoints="true"
     inkscape:snap-bbox-midpoints="true">
    <inkscape:grid
       type="xygrid"
       id="grid2985"
       empspacing="4"
       visible="true"
       enabled="true"
       snapvisiblegridlinesonly="true" />
  </sodipodi:namedview>
  <metadata
     id="metadata7">
    <rdf:RDF>
      <cc:Work
         rdf:about="">
        <dc:format>image/svg+xml</dc:format>
        <dc:type
           rdf:resource="http://purl.org/dc/dcmitype/StillImage" />
        <dc:title></dc:title>
      </cc:Work>
    </rdf:RDF>
  </metadata>
  <g
     inkscape:label="Layer 1"
     inkscape:groupmode="layer"
     id="layer1"
     transform="translate(0,-1004.3622)">
    <g
       style="display:inline"
       transform="translate(-51,47.845934)"
       id="g3731">
      <path
         style="fill:none;stroke:#000000;stroke-width:1.50000012;stroke-linecap:round;stroke-linejoin:round;stroke-miterlimit:4;stroke-opacity:1;stroke-dasharray:none"
         d="m 86.102947,975.90109 c 0,0 -2.779777,-2.97952 -2.779777,-3.7244 0,-0.74488 1.389889,-2.23464 1.389889,-3.7244 0,-1.48976 -4.169666,-2.23464 -4.86461,-1.48976 -0.694945,0.74488 -2.084833,2.97952 -2.084833,3.7244 0,0.74488 2.779777,2.23464 2.084833,2.97952 -0.694945,0.74488 -2.084833,2.23464 -2.084833,2.23464 C 79.848449,978.88061 80,987.3622 80,987.3622 l 4,-1 2.102947,-10.46111"
         id="path3733"
         inkscape:connector-curvature="0"
         sodipodi:nodetypes="cssssscccc" />
      <path
         style="fill:none;stroke:#000000;stroke-width:1.50000012;stroke-linecap:round;stroke-linejoin:round;stroke-miterlimit:4;stroke-opacity:1;stroke-dasharray:none"
         d="m 79.834353,969.80169 0.435047,0"
         id="path3735"
         inkscape:connector-curvature="0" />
      <path
         style="fill:none;stroke:#000000;stroke-width:1.5;stroke-linecap:round;stroke-linejoin:round;stroke-miterlimit:4;stroke-opacity:1;stroke-dasharray:none"
         d="m 80,987.3622 -6,10 17,-3 0,3"
         id="path3737"
         inkscape:connector-curvature="0"
         sodipodi:nodetypes="cccc" />
      <path
         sodipodi:nodetypes="cc"
         style="fill:none;stroke:#000000;stroke-width:1.50000012;stroke-linecap:round;stroke-linejoin:round;stroke-miterlimit:4;stroke-opacity:1;stroke-dasharray:none"
         d="m 84,986.3622 -4,9"
         id="path3739"
         inkscape:connector-curvature="0" />
      <path
         style="fill:none;stroke:#000000;stroke-width:1.5;stroke-linecap:round;stroke-linejoin:round;stroke-miterlimit:4;stroke-opacity:1;stroke-dasharray:none"
         d="M 77.588707,976.19758 73,983.3622 l 2,-9"
         id="path3741"
         inkscape:connector-curvature="0"
         sodipodi:nodetypes="ccc" />
      <path
         style="fill:none;stroke:#000000;stroke-width:1.5;stroke-linecap:round;stroke-linejoin:round;stroke-miterlimit:4;stroke-opacity:1;stroke-dasharray:none"
         d="m 79.328534,967.76286 c 2.256004,-0.1287 4.618055,2.51217 3.906348,4.05659"
         id="path3743"
         inkscape:connector-curvature="0"
         sodipodi:nodetypes="cc" />
      <path
         sodipodi:nodetypes="cc"
         inkscape:connector-curvature="0"
         id="path3745"
         d="m 87,998.3622 0,-3"
         style="fill:none;stroke:#000000;stroke-width:1.5;stroke-linecap:round;stroke-linejoin:round;stroke-miterlimit:4;stroke-opacity:1;stroke-dasharray:none" />
    </g>
    <path
       style="fill:none;stroke:#000000;stroke-width:1.5;stroke-linecap:round;stroke-linejoin:round;stroke-miterlimit:4;stroke-opacity:1;stroke-dasharray:none;stroke-dashoffset:0;display:inline"
       d="m 16,1010.3622 -12,0 4,4 -4,4 4,4 -4,4 4,4 -4,4 4,4 -4,4 4,4 8,0 z"
       id="path3761"
       inkscape:connector-curvature="0"
       sodipodi:nodetypes="ccccccccccccc" />
    <g
       style="display:inline"
       id="g3763"
       transform="translate(-11.5537,143.91804)">
      <path
         style="fill:none;stroke:#000000;stroke-width:1.5;stroke-linecap:round;stroke-linejoin:round;stroke-miterlimit:4;stroke-opacity:1;stroke-dasharray:none"
         d="m 63.916667,-102.33333 c 2.25,-1.58334 4.25,-3.08334 4.25,-4.5 0,-1.41667 -5.833334,-3.25 -8.166667,-9.08334 C 57.666667,-121.75 59.5,-124.5 58.333333,-126.25 c -1.166666,-1.75 -6.5,-11.83333 -6.5,-11.83333 0,0 6.5,0.83333 7.833334,2.08333 1.333333,1.25 0.666666,5.83333 3.5,9.16667 C 66,-123.5 67.083333,-122 72.75,-126.08333 78.416667,-130.16667 85.916667,-135.75 87,-135.75 c 1.083333,0 2.5,4.25 -0.166667,10.25 -2.666666,6 -11.333333,8.08333 -11.5,9.25 -0.166666,1.16667 3.75,3.58333 7.5,3.66667 3.75,0.0833 8.833334,0 8.416667,1.5 -0.416667,1.5 -5.333333,4.75 -9.416667,5.41666 -4.083333,0.66667 -5.75,-1 -7.583333,0.16667 -1.833333,1.16667 -5.75,5.16667 -5.75,5.16667"
         id="path3765"
         inkscape:connector-curvature="0"
         transform="translate(0,1004.3622)" />
      <path
         style="fill:none;stroke:#000000;stroke-width:1.5;stroke-linecap:round;stroke-linejoin:round;stroke-miterlimit:4;stroke-opacity:1;stroke-dasharray:none"
         d="m 66.583333,-126.08333 c 2.666667,-4.41667 8.636509,-13.59936 9,-13.41667 4.784576,2.40474 2.308591,7.07181 2.308591,7.07181"
         id="path3767"
         inkscape:connector-curvature="0"
         transform="translate(0,1004.3622)"
         sodipodi:nodetypes="csc" />
      <path
         style="fill:none;stroke:#000000;stroke-width:1.5;stroke-linecap:round;stroke-linejoin:round;stroke-miterlimit:4;stroke-opacity:1;stroke-dasharray:none"
         d="m 57.166667,-134.58333 0.583333,0.5"
         id="path3769"
         inkscape:connector-curvature="0"
         transform="translate(0,1004.3622)" />
    </g>
  </g>
</svg>
