<?xml version="1.0" encoding="UTF-8" standalone="no"?>
<!-- Created with Inkscape (http://www.inkscape.org/) -->

<svg
   xmlns:dc="http://purl.org/dc/elements/1.1/"
   xmlns:cc="http://creativecommons.org/ns#"
   xmlns:rdf="http://www.w3.org/1999/02/22-rdf-syntax-ns#"
   xmlns:svg="http://www.w3.org/2000/svg"
   xmlns="http://www.w3.org/2000/svg"
   xmlns:sodipodi="http://sodipodi.sourceforge.net/DTD/sodipodi-0.dtd"
   xmlns:inkscape="http://www.inkscape.org/namespaces/inkscape"
   width="96"
   height="48"
   id="svg2"
   version="1.1"
   inkscape:version="0.48.4 r9939"
   sodipodi:docname="eye.svg">
  <defs
     id="defs4" />
  <sodipodi:namedview
     id="base"
     pagecolor="#ffffff"
     bordercolor="#666666"
     borderopacity="1.0"
     inkscape:pageopacity="0.0"
     inkscape:pageshadow="2"
     inkscape:zoom="9.3181667"
     inkscape:cx="30.039887"
     inkscape:cy="29.24395"
     inkscape:document-units="px"
     inkscape:current-layer="layer1"
     showgrid="true"
     inkscape:window-width="1867"
     inkscape:window-height="1059"
     inkscape:window-x="49"
     inkscape:window-y="-4"
     inkscape:window-maximized="1"
     width="120px"
     inkscape:snap-bbox="true"
     inkscape:bbox-paths="true"
     inkscape:bbox-nodes="true"
     inkscape:snap-bbox-edge-midpoints="true"
     inkscape:snap-bbox-midpoints="true">
    <inkscape:grid
       type="xygrid"
       id="grid2985"
       empspacing="4"
       visible="true"
       enabled="true"
       snapvisiblegridlinesonly="true" />
  </sodipodi:namedview>
  <metadata
     id="metadata7">
    <rdf:RDF>
      <cc:Work
         rdf:about="">
        <dc:format>image/svg+xml</dc:format>
        <dc:type
           rdf:resource="http://purl.org/dc/dcmitype/StillImage" />
        <dc:title></dc:title>
      </cc:Work>
    </rdf:RDF>
  </metadata>
  <g
     inkscape:label="Layer 1"
     inkscape:groupmode="layer"
     id="layer1"
     transform="translate(0,-1004.3622)">
    <g
       style="display:inline"
       transform="translate(1.4463,143.91804)"
       id="g5467">
      <path
         transform="translate(0,1004.3622)"
         inkscape:connector-curvature="0"
         id="path5469"
         d="m 63.916667,-102.33333 c 2.25,-1.58334 4.25,-3.08334 4.25,-4.5 0,-1.41667 -5.833334,-3.25 -8.166667,-9.08334 C 57.666667,-121.75 59.5,-124.5 58.333333,-126.25 c -1.166666,-1.75 -6.5,-11.83333 -6.5,-11.83333 0,0 6.5,0.83333 7.833334,2.08333 1.333333,1.25 0.666666,5.83333 3.5,9.16667 C 66,-123.5 67.083333,-122 72.75,-126.08333 78.416667,-130.16667 85.916667,-135.75 87,-135.75 c 1.083333,0 2.5,4.25 -0.166667,10.25 -2.666666,6 -11.333333,8.08333 -11.5,9.25 -0.166666,1.16667 3.75,3.58333 7.5,3.66667 3.75,0.0833 8.833334,0 8.416667,1.5 -0.416667,1.5 -5.333333,4.75 -9.416667,5.41666 -4.083333,0.66667 -5.75,-1 -7.583333,0.16667 -1.833333,1.16667 -5.75,5.16667 -5.75,5.16667"
         style="fill:none;stroke:#000000;stroke-width:1.5;stroke-linecap:round;stroke-linejoin:round;stroke-miterlimit:4;stroke-opacity:1;stroke-dasharray:none" />
      <path
         sodipodi:nodetypes="csc"
         transform="translate(0,1004.3622)"
         inkscape:connector-curvature="0"
         id="path5471"
         d="m 66.583333,-126.08333 c 2.666667,-4.41667 8.636509,-13.59936 9,-13.41667 4.784576,2.40474 2.308591,7.07181 2.308591,7.07181"
         style="fill:none;stroke:#000000;stroke-width:1.5;stroke-linecap:round;stroke-linejoin:round;stroke-miterlimit:4;stroke-opacity:1;stroke-dasharray:none" />
      <path
         transform="translate(0,1004.3622)"
         inkscape:connector-curvature="0"
         id="path5473"
         d="m 57.166667,-134.58333 0.583333,0.5"
         style="fill:none;stroke:#000000;stroke-width:1.5;stroke-linecap:round;stroke-linejoin:round;stroke-miterlimit:4;stroke-opacity:1;stroke-dasharray:none" />
    </g>
    <g
       style="display:inline"
       transform="matrix(1.0712998,0,0,1,-146.64343,94.171934)"
       id="g5477">
      <path
         style="fill:none;stroke:#000000;stroke-width:1.44922471;stroke-linecap:round;stroke-linejoin:round;stroke-miterlimit:4;stroke-opacity:1;stroke-dasharray:none"
         d="m 171.49631,927.0921 c 7.77787,1.06055 10.44515,15.30622 8.80278,24.54947"
         id="path5479"
         inkscape:connector-curvature="0"
         sodipodi:nodetypes="cc" />
      <path
         style="fill:none;stroke:#000000;stroke-width:1.44922471;stroke-linecap:round;stroke-linejoin:round;stroke-miterlimit:4;stroke-opacity:1;stroke-dasharray:none"
         d="m 157.37226,917.641 c 6.67649,-2.8754 9.20099,-3.30567 11.47542,1.09816"
         id="path5481"
         inkscape:connector-curvature="0"
         sodipodi:nodetypes="cc" />
      <path
         style="fill:none;stroke:#000000;stroke-width:1.44922471;stroke-linecap:round;stroke-linejoin:round;stroke-miterlimit:4;stroke-opacity:1;stroke-dasharray:none"
         d="m 157.38567,917.81457 c 5.75298,3.93192 1.72813,6.53379 7.81731,8.14716 1.75927,0.46612 3.28025,4.87236 3.03736,6.46259"
         id="path5483"
         inkscape:connector-curvature="0"
         sodipodi:nodetypes="csc" />
      <path
         style="fill:none;stroke:#000000;stroke-width:1.44922471;stroke-linecap:round;stroke-linejoin:round;stroke-miterlimit:4;stroke-opacity:1;stroke-dasharray:none"
         d="m 166.88216,936.83118 c 1.27054,5.74887 0.68024,3.82887 2.44056,9.0124 0.34133,1.00508 2.66495,3.53579 2.64559,4.19131 -0.024,0.81399 -3.85873,-2.55761 -5.12144,-1.00475 -0.37514,0.46134 -1.41779,2.71509 -0.7192,3.72057 0.32579,0.4689 2.11946,-0.13949 2.38889,-0.24352 3.77226,-1.45653 6.77181,-0.2751 11.74904,0.26796 4.97721,0.54308 2.92815,-8.78408 2.48683,-12.42167 -1.14712,-6.42241 -0.41297,-13.89361 2.67039,-3.59174"
         id="path5485"
         inkscape:connector-curvature="0"
         sodipodi:nodetypes="cssssszcc" />
      <path
         style="fill:none;stroke:#000000;stroke-width:1.44922471;stroke-linecap:round;stroke-linejoin:round;stroke-miterlimit:4;stroke-opacity:1;stroke-dasharray:none"
         d="m 168.0542,932.8357 c -0.96235,0.94139 -1.76641,-0.19396 -2.77091,-0.24649 -0.55346,-0.0289 -4.12743,-1.63239 -4.34285,-1.11141 -0.25704,0.62163 -0.37471,2.29877 0.079,2.95173 0.45944,0.66127 1.96248,-0.85627 2.61445,-0.3791 2.57546,1.88497 5.88648,4.96241 7.76158,1.2307"
         id="path5487"
         inkscape:connector-curvature="0" />
      <path
         style="fill:none;stroke:#000000;stroke-width:1.44922471;stroke-linecap:round;stroke-linejoin:round;stroke-miterlimit:4;stroke-opacity:1;stroke-dasharray:none"
         d="m 169.30819,919.27719 c 0.45969,-0.2931 2.7892,-2.16532 3.85592,-2.10953 2.2893,0.11973 5.61577,7.61674 2.64292,8.78409 -1.36831,0.53728 -4.15232,1.68452 -5.52274,0.68152 -0.93845,-0.68686 -1.82573,-1.41461 -2.27242,-1.33353"
         id="path5489"
         inkscape:connector-curvature="0"
         sodipodi:nodetypes="csssc" />
      <path
         style="fill:none;stroke:#000000;stroke-width:1.44922471;stroke-linecap:round;stroke-linejoin:round;stroke-miterlimit:4;stroke-opacity:1;stroke-dasharray:none"
         d="m 166.53662,918.7651 -1.94716,-0.16226"
         id="path5491"
         inkscape:connector-curvature="0"
         sodipodi:nodetypes="cc" />
    </g>
    <g
       style="display:inline"
       id="g5497"
       transform="translate(-47.79167,96.000034)">
      <path
         style="fill:none;stroke:#000000;stroke-width:1.5;stroke-linecap:round;stroke-linejoin:round;stroke-miterlimit:4;stroke-opacity:1;stroke-dasharray:none"
         d="m 52.083336,913.36224 c 1.266666,8.86667 7.6,13.93333 11.4,19 3.398824,4.53177 3.8,6.33333 5.066667,7.6 1.266667,1.26667 1.266667,1.26667 0,2.53333 -1.266667,1.26667 -1.266667,8.86667 -8.866667,8.86667 -5.066667,0 -7.6,-3.8 -7.6,-3.8"
         id="path5499"
         inkscape:connector-curvature="0"
         sodipodi:nodetypes="cssssc" />
      <path
         sodipodi:type="arc"
         style="fill:none;stroke:#000000;stroke-width:1.02324331;stroke-linecap:round;stroke-linejoin:round;stroke-miterlimit:4;stroke-opacity:1;stroke-dasharray:none"
         id="path5501"
         sodipodi:cx="64"
         sodipodi:cy="-65.5"
         sodipodi:rx="2"
         sodipodi:ry="4.5"
         d="m 63.266481,-61.313579 c -1.027598,-0.9115 -1.532224,-3.524742 -1.127113,-5.836838 0.150345,-0.858063 0.414243,-1.591457 0.755968,-2.100892"
         transform="matrix(1.4636445,-0.0817756,0.0817756,1.4636445,-22.021261,1042.1004)"
         sodipodi:start="1.9463196"
         sodipodi:end="4.1272297"
         sodipodi:open="true" />
    </g>
  </g>
</svg>
