<?xml version="1.0" encoding="UTF-8" standalone="no"?>
<!-- Created with Inkscape (http://www.inkscape.org/) -->

<svg
   xmlns:dc="http://purl.org/dc/elements/1.1/"
   xmlns:cc="http://creativecommons.org/ns#"
   xmlns:rdf="http://www.w3.org/1999/02/22-rdf-syntax-ns#"
   xmlns:svg="http://www.w3.org/2000/svg"
   xmlns="http://www.w3.org/2000/svg"
   xmlns:sodipodi="http://sodipodi.sourceforge.net/DTD/sodipodi-0.dtd"
   xmlns:inkscape="http://www.inkscape.org/namespaces/inkscape"
   width="296"
   height="48"
   id="svg2"
   version="1.1"
   inkscape:version="0.48.4 r9939"
   sodipodi:docname="yew-crane-land.svg">
  <defs
     id="defs4" />
  <sodipodi:namedview
     id="base"
     pagecolor="#ffffff"
     bordercolor="#666666"
     borderopacity="1.0"
     inkscape:pageopacity="0.0"
     inkscape:pageshadow="2"
     inkscape:zoom="2.6005293"
     inkscape:cx="211.92481"
     inkscape:cy="127.07734"
     inkscape:document-units="px"
     inkscape:current-layer="layer1"
     showgrid="true"
     inkscape:window-width="1867"
     inkscape:window-height="1059"
     inkscape:window-x="49"
     inkscape:window-y="-4"
     inkscape:window-maximized="1"
     width="120px"
     inkscape:snap-bbox="true"
     inkscape:bbox-paths="true"
     inkscape:bbox-nodes="true"
     inkscape:snap-bbox-edge-midpoints="true"
     inkscape:snap-bbox-midpoints="true">
    <inkscape:grid
       type="xygrid"
       id="grid2985"
       empspacing="4"
       visible="true"
       enabled="true"
       snapvisiblegridlinesonly="true" />
  </sodipodi:namedview>
  <metadata
     id="metadata7">
    <rdf:RDF>
      <cc:Work
         rdf:about="">
        <dc:format>image/svg+xml</dc:format>
        <dc:type
           rdf:resource="http://purl.org/dc/dcmitype/StillImage" />
        <dc:title></dc:title>
      </cc:Work>
    </rdf:RDF>
  </metadata>
  <g
     inkscape:label="Layer 1"
     inkscape:groupmode="layer"
     id="layer1"
     transform="translate(0,-1004.3622)">
    <path
       sodipodi:nodetypes="ccccccccccccc"
       inkscape:connector-curvature="0"
       id="path4687"
       d="m 99,1010.3622 -12,0 4,4 -4,4 4,4 -4,4 4,4 -4,4 4,4 -4,4 4,4 8,0 z"
       style="fill:none;stroke:#000000;stroke-width:1.5;stroke-linecap:round;stroke-linejoin:round;stroke-miterlimit:4;stroke-opacity:1;stroke-dasharray:none;stroke-dashoffset:0;display:inline" />
    <g
       style="display:inline"
       id="g4689"
       transform="translate(55.20833,96.000034)">
      <path
         style="fill:none;stroke:#000000;stroke-width:1.5;stroke-linecap:round;stroke-linejoin:round;stroke-miterlimit:4;stroke-opacity:1;stroke-dasharray:none"
         d="m 52.083336,913.36224 c 1.266666,8.86667 7.6,13.93333 11.4,19 3.398824,4.53177 3.8,6.33333 5.066667,7.6 1.266667,1.26667 1.266667,1.26667 0,2.53333 -1.266667,1.26667 -1.266667,8.86667 -8.866667,8.86667 -5.066667,0 -7.6,-3.8 -7.6,-3.8"
         id="path4691"
         inkscape:connector-curvature="0"
         sodipodi:nodetypes="cssssc" />
      <path
         sodipodi:type="arc"
         style="fill:none;stroke:#000000;stroke-width:1.02324331;stroke-linecap:round;stroke-linejoin:round;stroke-miterlimit:4;stroke-opacity:1;stroke-dasharray:none"
         id="path4693"
         sodipodi:cx="64"
         sodipodi:cy="-65.5"
         sodipodi:rx="2"
         sodipodi:ry="4.5"
         d="m 63.266481,-61.313579 c -1.027598,-0.9115 -1.532224,-3.524742 -1.127113,-5.836838 0.150345,-0.858063 0.414243,-1.591457 0.755968,-2.100892"
         transform="matrix(1.4636445,-0.0817756,0.0817756,1.4636445,-22.021261,1042.1004)"
         sodipodi:start="1.9463196"
         sodipodi:end="4.1272297"
         sodipodi:open="true" />
    </g>
    <rect
       style="fill:none;stroke:#000000;stroke-width:1.5;stroke-linecap:round;stroke-linejoin:round;stroke-miterlimit:4;stroke-opacity:1;stroke-dasharray:none;display:inline"
       id="rect4695"
       width="40"
       height="8"
       x="125"
       y="1010.3622"
       ry="4" />
    <path
       inkscape:connector-curvature="0"
       id="path4697"
       d="m 137,1048.3622 0,-20"
       style="fill:none;stroke:#000000;stroke-width:1.5;stroke-linecap:round;stroke-linejoin:round;stroke-miterlimit:4;stroke-opacity:1;stroke-dasharray:none;display:inline" />
    <path
       style="fill:none;stroke:#000000;stroke-width:1.5;stroke-linecap:round;stroke-linejoin:round;stroke-miterlimit:4;stroke-opacity:1;stroke-dasharray:none;display:inline"
       d="m 153,1048.3622 0,-20"
       id="path4699"
       inkscape:connector-curvature="0" />
    <g
       style="display:inline"
       transform="translate(-99.63203,143.02624)"
       id="g4701">
      <path
         sodipodi:nodetypes="cc"
         inkscape:connector-curvature="0"
         id="path4703"
         d="M 119.68394,903.33598 C 115.42431,891.55711 107.64,889.94075 104.01703,890.20005"
         style="fill:none;stroke:#000000;stroke-width:1.5;stroke-linecap:round;stroke-linejoin:round;stroke-miterlimit:4;stroke-opacity:1;stroke-dasharray:none" />
      <path
         style="fill:none;stroke:#000000;stroke-width:1.5;stroke-linecap:round;stroke-linejoin:round;stroke-miterlimit:4;stroke-opacity:1;stroke-dasharray:none"
         d="m 116.62124,891.51355 c -3.99979,-7.31274 -10.42202,-9.34627 -13.89998,-9.57713"
         id="path4705"
         inkscape:connector-curvature="0"
         sodipodi:nodetypes="cc" />
      <path
         sodipodi:nodetypes="cc"
         inkscape:connector-curvature="0"
         id="path4707"
         d="M 117.15132,886.50938 C 113.47204,876.01982 104.53354,873.5239 104.01703,873.62202"
         style="fill:none;stroke:#000000;stroke-width:1.5;stroke-linecap:round;stroke-linejoin:round;stroke-miterlimit:4;stroke-opacity:1;stroke-dasharray:none" />
      <path
         sodipodi:nodetypes="cc"
         inkscape:connector-curvature="0"
         id="path4709"
         d="m 117.5636,879.87896 c -3.65168,-9.2577 -7.24447,-11.25935 -7.24447,-11.25935"
         style="fill:none;stroke:#000000;stroke-width:1.5;stroke-linecap:round;stroke-linejoin:round;stroke-miterlimit:4;stroke-opacity:1;stroke-dasharray:none" />
      <path
         sodipodi:nodetypes="cc"
         inkscape:connector-curvature="0"
         id="path4711"
         d="m 117.6225,871.68465 c -0.64788,-2.43953 -3.94617,-5.44203 -3.94617,-5.44203"
         style="fill:none;stroke:#000000;stroke-width:1.5;stroke-linecap:round;stroke-linejoin:round;stroke-miterlimit:4;stroke-opacity:1;stroke-dasharray:none" />
      <path
         sodipodi:nodetypes="cc"
         inkscape:connector-curvature="0"
         id="path4713"
         d="m 118.56488,883.50698 c 4.66261,-6.74988 8.97332,-7.92593 11.54404,-8.69473"
         style="fill:none;stroke:#000000;stroke-width:1.5;stroke-linecap:round;stroke-linejoin:round;stroke-miterlimit:4;stroke-opacity:1;stroke-dasharray:none" />
      <path
         sodipodi:nodetypes="cc"
         inkscape:connector-curvature="0"
         id="path4715"
         d="m 118.68267,875.37521 c 4.06398,-4.6914 8.12795,-6.06754 8.12795,-6.06754"
         style="fill:none;stroke:#000000;stroke-width:1.5;stroke-linecap:round;stroke-linejoin:round;stroke-miterlimit:4;stroke-opacity:1;stroke-dasharray:none" />
      <path
         sodipodi:nodetypes="cc"
         inkscape:connector-curvature="0"
         id="path4717"
         d="m 119.27165,869.12002 c 1.88474,-2.7523 5.06524,-4.00334 5.06524,-4.00334"
         style="fill:none;stroke:#000000;stroke-width:1.5;stroke-linecap:round;stroke-linejoin:round;stroke-miterlimit:4;stroke-opacity:1;stroke-dasharray:none" />
      <path
         sodipodi:open="true"
         sodipodi:end="10.111014"
         sodipodi:start="5.5991711"
         transform="matrix(0.91412862,0.40542431,-0.42683055,0.96239424,-7.0865825,901.70941)"
         d="m 127.40136,-65.506451 c 3.00611,3.54299 2.45412,8.756888 -1.23289,11.645567 -3.68702,2.888678 -9.11286,2.358254 -12.11897,-1.184736 -2.58814,-3.050385 -2.58308,-7.43022 0.0121,-10.475071"
         sodipodi:ry="8.2771616"
         sodipodi:rx="8.6136312"
         sodipodi:cy="-60.276035"
         sodipodi:cx="120.72543"
         id="path4719"
         style="fill:none;stroke:#000000;stroke-width:1.4619025;stroke-linecap:round;stroke-linejoin:round;stroke-miterlimit:4;stroke-opacity:1;stroke-dasharray:none"
         sodipodi:type="arc" />
      <path
         transform="matrix(2.4088525,1.0683479,-0.59344721,1.3380724,-190.0985,866.87178)"
         d="m 117.02456,-75.547562 c 0,1.236698 -1.07518,2.239239 -2.4015,2.239239 -1.32631,0 -2.4015,-1.002541 -2.4015,-2.239239 0,-1.236697 1.07519,-2.239238 2.4015,-2.239238 1.32632,0 2.4015,1.002541 2.4015,2.239238 z"
         sodipodi:ry="2.2392387"
         sodipodi:rx="2.4015024"
         sodipodi:cy="-75.547562"
         sodipodi:cx="114.62306"
         id="path4721"
         style="fill:none;stroke:#000000;stroke-width:0.76375431;stroke-linecap:round;stroke-linejoin:round;stroke-miterlimit:4;stroke-opacity:1;stroke-dasharray:none"
         sodipodi:type="arc" />
    </g>
    <g
       style="display:inline"
       id="g4723"
       transform="translate(-107.9,120.84494)">
      <path
         style="fill:none;stroke:#000000;stroke-width:1.5;stroke-linecap:round;stroke-linejoin:round;stroke-miterlimit:4;stroke-opacity:1;stroke-dasharray:none"
         d="m 151.9,904.4622 c 4.47313,-4.06504 7.91542,-7.47186 12.97938,-10.79746 m 6.3632,-3.96697 c 2.21058,-1.21802 5.92434,-1.79987 8.6257,0.27625 2.09673,1.42696 2.58727,4.61474 0.88758,6.53944 -2.70789,3.1236 -7.13628,3.70503 -11.03036,3.92113 -2.92873,0.0554 -5.40645,0.25268 -8.26815,-0.56485 m -5.7968,-2.94437 c -2.12892,-1.49661 -2.38553,-4.30896 -0.5474,-6.37786 2.18458,-2.60385 6.09323,-2.39953 8.93203,-1.082 4.16715,1.84618 7.1187,4.03264 10.6227,6.93386 m 5.82606,4.95692 c 1.25089,1.14373 2.00962,1.80516 3.20606,3.00591"
         id="path4726"
         inkscape:connector-curvature="0"
         sodipodi:nodetypes="ccccccccccccc" />
    </g>
    <path
       style="fill:none;stroke:#000000;stroke-width:1.5;stroke-linecap:round;stroke-linejoin:round;stroke-miterlimit:4;stroke-opacity:1;stroke-dasharray:none;display:inline"
       d="m 42,1047.3622 37,0"
       id="path4706"
       inkscape:connector-curvature="0"
       sodipodi:nodetypes="cc" />
    <path
       style="fill:none;stroke:#000000;stroke-width:1.5;stroke-linecap:round;stroke-linejoin:round;stroke-miterlimit:4;stroke-opacity:1;stroke-dasharray:none;display:inline"
       d="m 53,1047.3622 c -4,0 -6,-2 -6,-5 0,-3 4,-8 8,-8 5,0 5,5 12,4 3.9598,-0.5657 7,2 7,4 0,2 -1,5 -7,5 -6,0 -14,0 -14,0 z"
       id="path4708"
       inkscape:connector-curvature="0"
       sodipodi:nodetypes="csssssc" />
    <g
       style="display:inline"
       id="g4736"
       transform="translate(-360,209.00004)">
      <path
         sodipodi:nodetypes="cc"
         inkscape:connector-curvature="0"
         id="path4710"
         d="m 525,838.3622 48,0"
         style="fill:none;stroke:#000000;stroke-width:1.5;stroke-linecap:round;stroke-linejoin:round;stroke-miterlimit:4;stroke-opacity:1;stroke-dasharray:none" />
      <path
         sodipodi:open="true"
         sodipodi:end="6.9720438"
         sodipodi:start="2.4589712"
         transform="matrix(1.2,0,0,1.2,-111,1039.1622)"
         d="m 542.24078,-167.69171 c -3.48397,-4.28529 -2.83437,-10.58353 1.45093,-14.06751 4.28529,-3.48397 10.58353,-2.83437 14.06751,1.45093 3.00249,3.69307 2.98597,8.99058 -0.0395,12.66485"
         sodipodi:ry="10"
         sodipodi:rx="10"
         sodipodi:cy="-174"
         sodipodi:cx="550"
         id="path4712"
         style="fill:none;stroke:#000000;stroke-width:1.25;stroke-linecap:round;stroke-linejoin:round;stroke-miterlimit:4;stroke-opacity:1;stroke-dasharray:none"
         sodipodi:type="arc" />
      <path
         sodipodi:nodetypes="cc"
         inkscape:connector-curvature="0"
         id="path4714"
         d="m 549,814.3622 0,-8"
         style="fill:none;stroke:#000000;stroke-width:1.5;stroke-linecap:round;stroke-linejoin:round;stroke-miterlimit:4;stroke-opacity:1;stroke-dasharray:none" />
      <path
         inkscape:connector-curvature="0"
         id="path4716"
         d="m 533,830.3622 -8,0"
         style="fill:none;stroke:#000000;stroke-width:1.5;stroke-linecap:round;stroke-linejoin:round;stroke-miterlimit:4;stroke-opacity:1;stroke-dasharray:none" />
      <path
         style="fill:none;stroke:#000000;stroke-width:1.5;stroke-linecap:round;stroke-linejoin:round;stroke-miterlimit:4;stroke-opacity:1;stroke-dasharray:none"
         d="m 573,830.3622 -8,0"
         id="path4718"
         inkscape:connector-curvature="0" />
      <path
         inkscape:connector-curvature="0"
         id="path4720"
         d="m 537,818.3622 -4,-4"
         style="fill:none;stroke:#000000;stroke-width:1.5;stroke-linecap:round;stroke-linejoin:round;stroke-miterlimit:4;stroke-opacity:1;stroke-dasharray:none" />
      <path
         inkscape:connector-curvature="0"
         id="path4722"
         d="m 561,818.3622 4,-4"
         style="fill:none;stroke:#000000;stroke-width:1.5;stroke-linecap:round;stroke-linejoin:round;stroke-miterlimit:4;stroke-opacity:1;stroke-dasharray:none" />
    </g>
    <g
       style="display:inline"
       id="g4745"
       transform="translate(-369,208.00004)">
      <path
         sodipodi:type="arc"
         style="fill:none;stroke:#000000;stroke-width:1.25;stroke-linecap:round;stroke-linejoin:round;stroke-miterlimit:4;stroke-opacity:1;stroke-dasharray:none"
         id="path4724"
         sodipodi:cx="550"
         sodipodi:cy="-174"
         sodipodi:rx="10"
         sodipodi:ry="10"
         d="m 560,-174 c 0,5.52285 -4.47715,10 -10,10 -5.52285,0 -10,-4.47715 -10,-10 0,-5.52285 4.47715,-10 10,-10 5.52285,0 10,4.47715 10,10 z"
         transform="matrix(1.2,0,0,1.2,-60,1029.1622)" />
      <path
         transform="translate(0,1004.3622)"
         inkscape:connector-curvature="0"
         id="path4727"
         d="m 584,-184 12,0"
         style="fill:none;stroke:#000000;stroke-width:1.5;stroke-linecap:round;stroke-linejoin:round;stroke-miterlimit:4;stroke-opacity:1;stroke-dasharray:none" />
      <path
         style="fill:none;stroke:#000000;stroke-width:1.5;stroke-linecap:round;stroke-linejoin:round;stroke-miterlimit:4;stroke-opacity:1;stroke-dasharray:none"
         d="m 604,820.3622 12,0"
         id="path4730"
         inkscape:connector-curvature="0" />
      <path
         transform="translate(0,1004.3622)"
         inkscape:connector-curvature="0"
         id="path4732"
         d="m 600,-188 0,-12"
         style="fill:none;stroke:#000000;stroke-width:1.5;stroke-linecap:round;stroke-linejoin:round;stroke-miterlimit:4;stroke-opacity:1;stroke-dasharray:none" />
      <path
         transform="translate(0,1004.3622)"
         inkscape:connector-curvature="0"
         id="path4734"
         d="m 600,-180 0,12"
         style="fill:none;stroke:#000000;stroke-width:1.5;stroke-linecap:round;stroke-linejoin:round;stroke-miterlimit:4;stroke-opacity:1;stroke-dasharray:none" />
    </g>
    <rect
       ry="4"
       y="1039.3622"
       x="252"
       height="8"
       width="40"
       id="rect4752"
       style="fill:none;stroke:#000000;stroke-width:1.5;stroke-linecap:round;stroke-linejoin:round;stroke-miterlimit:4;stroke-opacity:1;stroke-dasharray:none;display:inline" />
    <path
       style="fill:none;stroke:#000000;stroke-width:1.5;stroke-linecap:round;stroke-linejoin:round;stroke-miterlimit:4;stroke-opacity:1;stroke-dasharray:none;display:inline"
       d="m 256,1029.3622 4,-11 3,3 5,-13 7,8 5,1 6,12 z"
       id="path4754"
       inkscape:connector-curvature="0"
       sodipodi:nodetypes="cccccccc" />
  </g>
</svg>
