<?xml version="1.0" encoding="UTF-8" standalone="no"?>
<!-- Created with Inkscape (http://www.inkscape.org/) -->

<svg
   xmlns:dc="http://purl.org/dc/elements/1.1/"
   xmlns:cc="http://creativecommons.org/ns#"
   xmlns:rdf="http://www.w3.org/1999/02/22-rdf-syntax-ns#"
   xmlns:svg="http://www.w3.org/2000/svg"
   xmlns="http://www.w3.org/2000/svg"
   xmlns:sodipodi="http://sodipodi.sourceforge.net/DTD/sodipodi-0.dtd"
   xmlns:inkscape="http://www.inkscape.org/namespaces/inkscape"
   width="116"
   height="48"
   id="svg2"
   version="1.1"
   inkscape:version="0.48.4 r9939"
   sodipodi:docname="ark-can-saw-land.svg">
  <defs
     id="defs4" />
  <sodipodi:namedview
     id="base"
     pagecolor="#ffffff"
     bordercolor="#666666"
     borderopacity="1.0"
     inkscape:pageopacity="0.0"
     inkscape:pageshadow="2"
     inkscape:zoom="6.4709491"
     inkscape:cx="39.383714"
     inkscape:cy="40.524968"
     inkscape:document-units="px"
     inkscape:current-layer="layer1"
     showgrid="true"
     inkscape:window-width="1867"
     inkscape:window-height="1059"
     inkscape:window-x="49"
     inkscape:window-y="-4"
     inkscape:window-maximized="1"
     width="120px"
     inkscape:snap-bbox="true"
     inkscape:bbox-paths="true"
     inkscape:bbox-nodes="true"
     inkscape:snap-bbox-edge-midpoints="true"
     inkscape:snap-bbox-midpoints="true">
    <inkscape:grid
       type="xygrid"
       id="grid2985"
       empspacing="4"
       visible="true"
       enabled="true"
       snapvisiblegridlinesonly="true" />
  </sodipodi:namedview>
  <metadata
     id="metadata7">
    <rdf:RDF>
      <cc:Work
         rdf:about="">
        <dc:format>image/svg+xml</dc:format>
        <dc:type
           rdf:resource="http://purl.org/dc/dcmitype/StillImage" />
        <dc:title></dc:title>
      </cc:Work>
    </rdf:RDF>
  </metadata>
  <g
     inkscape:label="Layer 1"
     inkscape:groupmode="layer"
     id="layer1"
     transform="translate(0,-1004.3622)">
    <rect
       ry="4"
       y="1038.3622"
       x="71"
       height="8"
       width="40"
       id="rect4581"
       style="fill:none;stroke:#000000;stroke-width:1.5;stroke-linecap:round;stroke-linejoin:round;stroke-miterlimit:4;stroke-opacity:1;stroke-dasharray:none;display:inline" />
    <g
       style="display:inline"
       id="g4608"
       transform="translate(179.00001,328.00002)">
      <path
         sodipodi:nodetypes="cssssssscccscsc"
         transform="translate(0,1004.3622)"
         inkscape:connector-curvature="0"
         id="path4598"
         d="m -143,-320 c 0,0 4,-2 6,-3 2,-1 2,-2 4,-1 1.26491,0.63246 0,5 0,7 0,2 0.97036,4.16173 6,5 6,1 10,4 12,6 2,2 3,6 3,7 0,1 -1,4 -2,2 -1,-2 -3,-5 -5,-5 -3,0 -1,3 -1,5 l -2,0 c 0,0 0.1693,-3.45767 -2,-4 -8,-2 -12.29625,-7.709 -11,-17 0.31623,-2.21359 0,-4 -1,-4 -1,0 -7,2 -7,2 z"
         style="fill:none;stroke:#000000;stroke-width:1.5;stroke-linecap:round;stroke-linejoin:round;stroke-miterlimit:4;stroke-opacity:1;stroke-dasharray:none" />
      <path
         sodipodi:nodetypes="ccc"
         transform="translate(0,1004.3622)"
         inkscape:connector-curvature="0"
         id="path4600"
         d="m -126,-285 5,-1 2,1"
         style="fill:none;stroke:#000000;stroke-width:1.5;stroke-linecap:round;stroke-linejoin:round;stroke-miterlimit:4;stroke-opacity:1;stroke-dasharray:none" />
      <path
         sodipodi:nodetypes="cc"
         transform="translate(0,1004.3622)"
         inkscape:connector-curvature="0"
         id="path4602"
         d="m -121,-286 -1,-11"
         style="fill:none;stroke:#000000;stroke-width:1.5;stroke-linecap:round;stroke-linejoin:round;stroke-miterlimit:4;stroke-opacity:1;stroke-dasharray:none" />
      <path
         sodipodi:nodetypes="cccc"
         transform="translate(0,1004.3622)"
         inkscape:connector-curvature="0"
         id="path4604"
         d="m -132,-288 3,-4 9,-3 0,-2"
         style="fill:none;stroke:#000000;stroke-width:1.5;stroke-linecap:round;stroke-linejoin:round;stroke-miterlimit:4;stroke-opacity:1;stroke-dasharray:none" />
    </g>
    <g
       style="display:inline"
       transform="translate(-99.17664,144.13592)"
       id="g4614">
      <path
         sodipodi:nodetypes="cc"
         inkscape:connector-curvature="0"
         id="path4616"
         d="M 119.68394,903.33598 C 115.42431,891.55711 107.64,889.94075 104.01703,890.20005"
         style="fill:none;stroke:#000000;stroke-width:1.5;stroke-linecap:round;stroke-linejoin:round;stroke-miterlimit:4;stroke-opacity:1;stroke-dasharray:none" />
      <path
         style="fill:none;stroke:#000000;stroke-width:1.5;stroke-linecap:round;stroke-linejoin:round;stroke-miterlimit:4;stroke-opacity:1;stroke-dasharray:none"
         d="m 116.62124,891.51355 c -3.99979,-7.31274 -10.42202,-9.34627 -13.89998,-9.57713"
         id="path4618"
         inkscape:connector-curvature="0"
         sodipodi:nodetypes="cc" />
      <path
         sodipodi:nodetypes="cc"
         inkscape:connector-curvature="0"
         id="path4620"
         d="M 117.15132,886.50938 C 113.47204,876.01982 104.53354,873.5239 104.01703,873.62202"
         style="fill:none;stroke:#000000;stroke-width:1.5;stroke-linecap:round;stroke-linejoin:round;stroke-miterlimit:4;stroke-opacity:1;stroke-dasharray:none" />
      <path
         sodipodi:nodetypes="cc"
         inkscape:connector-curvature="0"
         id="path4622"
         d="m 117.5636,879.87896 c -3.65168,-9.2577 -7.24447,-11.25935 -7.24447,-11.25935"
         style="fill:none;stroke:#000000;stroke-width:1.5;stroke-linecap:round;stroke-linejoin:round;stroke-miterlimit:4;stroke-opacity:1;stroke-dasharray:none" />
      <path
         sodipodi:nodetypes="cc"
         inkscape:connector-curvature="0"
         id="path4624"
         d="m 117.6225,871.68465 c -0.64788,-2.43953 -3.94617,-5.44203 -3.94617,-5.44203"
         style="fill:none;stroke:#000000;stroke-width:1.5;stroke-linecap:round;stroke-linejoin:round;stroke-miterlimit:4;stroke-opacity:1;stroke-dasharray:none" />
      <path
         sodipodi:nodetypes="cc"
         inkscape:connector-curvature="0"
         id="path4626"
         d="m 118.56488,883.50698 c 4.66261,-6.74988 8.97332,-7.92593 11.54404,-8.69473"
         style="fill:none;stroke:#000000;stroke-width:1.5;stroke-linecap:round;stroke-linejoin:round;stroke-miterlimit:4;stroke-opacity:1;stroke-dasharray:none" />
      <path
         sodipodi:nodetypes="cc"
         inkscape:connector-curvature="0"
         id="path4628"
         d="m 118.68267,875.37521 c 4.06398,-4.6914 8.12795,-6.06754 8.12795,-6.06754"
         style="fill:none;stroke:#000000;stroke-width:1.5;stroke-linecap:round;stroke-linejoin:round;stroke-miterlimit:4;stroke-opacity:1;stroke-dasharray:none" />
      <path
         sodipodi:nodetypes="cc"
         inkscape:connector-curvature="0"
         id="path4630"
         d="m 119.27165,869.12002 c 1.88474,-2.7523 5.06524,-4.00334 5.06524,-4.00334"
         style="fill:none;stroke:#000000;stroke-width:1.5;stroke-linecap:round;stroke-linejoin:round;stroke-miterlimit:4;stroke-opacity:1;stroke-dasharray:none" />
      <path
         sodipodi:open="true"
         sodipodi:end="10.111014"
         sodipodi:start="5.5991711"
         transform="matrix(0.91412862,0.40542431,-0.42683055,0.96239424,-7.0865825,901.70941)"
         d="m 127.40136,-65.506451 a 8.6136312,8.2771616 0 1 1 -13.33975,-0.01424"
         sodipodi:ry="8.2771616"
         sodipodi:rx="8.6136312"
         sodipodi:cy="-60.276035"
         sodipodi:cx="120.72543"
         id="path4632"
         style="fill:none;stroke:#000000;stroke-width:1.4619025;stroke-linecap:round;stroke-linejoin:round;stroke-miterlimit:4;stroke-opacity:1;stroke-dasharray:none"
         sodipodi:type="arc" />
      <path
         transform="matrix(2.4088525,1.0683479,-0.59344721,1.3380724,-190.0985,866.87178)"
         d="m 117.02456,-75.547562 a 2.4015024,2.2392387 0 1 1 -4.803,0 2.4015024,2.2392387 0 1 1 4.803,0 z"
         sodipodi:ry="2.2392387"
         sodipodi:rx="2.4015024"
         sodipodi:cy="-75.547562"
         sodipodi:cx="114.62306"
         id="path4634"
         style="fill:none;stroke:#000000;stroke-width:0.76375431;stroke-linecap:round;stroke-linejoin:round;stroke-miterlimit:4;stroke-opacity:1;stroke-dasharray:none"
         sodipodi:type="arc" />
    </g>
  </g>
</svg>
