<?xml version="1.0" encoding="UTF-8" standalone="no"?>
<svg version="1.1" width="140" height="140" xmlns="http://www.w3.org/2000/svg">
  <path fill="#231f20" stroke="none" d="M 70.006413,117.99998 C 43.495119,117.99998 22,96.50694 22,69.999927 22,43.492246 43.495119,22 70.006413,22 96.51699,22 118,43.492205 118,69.999948 118,96.506961 96.51699,118 70.006413,118 z m 0,-4.31009 c 24.133604,0 43.695847,-19.559575 43.695847,-43.689963 0,-24.131004 -19.562243,-43.689956 -43.695847,-43.689956 -24.134471,0 -43.70867,19.558952 -43.70867,43.689956 0,24.130388 19.574199,43.689963 43.70867,43.689963 z m 0,-9.68462 c -3.322119,0 -6.535443,-0.47207 -9.570492,-1.35976 l 9.570492,-21.145668 9.557666,21.145688 c -3.031765,0.8856 -6.24053,1.35976 -9.557666,1.35976 z M 51.737809,98.694696 c -3.5729,-2.277078 -6.686568,-5.198607 -9.18562,-8.607128 l 15.664304,-34.704239 6.055323,13.572362 11.469195,0 6.042498,-13.572362 15.689963,34.665735 c -2.503214,3.421773 -5.626318,6.360311 -9.211281,8.645632 l -12.482693,-27.635322 -11.507682,0 z M 37.138316,78.799514 c -0.749888,-2.808165 -1.154618,-5.756357 -1.154618,-8.799566 0,-13.327207 7.669165,-24.861605 18.833086,-30.439298 z M 102.88734,78.722506 85.183216,39.560608 c 11.163866,5.577703 18.833094,17.112091 18.833094,30.439309 0,3.017028 -0.39156,5.937515 -1.12897,8.722589 z M 70.006413,58.205331 60.589867,37.315826 c 2.987581,-0.858594 6.152157,-1.32122 9.416546,-1.32122 3.26018,0 6.405815,0.452139 9.390892,1.308386 z" />
</svg>