<?xml version="1.0" encoding="UTF-8" standalone="no"?>
<!-- Created with Inkscape (http://www.inkscape.org/) -->

<svg
   xmlns:dc="http://purl.org/dc/elements/1.1/"
   xmlns:cc="http://creativecommons.org/ns#"
   xmlns:rdf="http://www.w3.org/1999/02/22-rdf-syntax-ns#"
   xmlns:svg="http://www.w3.org/2000/svg"
   xmlns="http://www.w3.org/2000/svg"
   xmlns:sodipodi="http://sodipodi.sourceforge.net/DTD/sodipodi-0.dtd"
   xmlns:inkscape="http://www.inkscape.org/namespaces/inkscape"
   width="140"
   height="140"
   id="svg2"
   version="1.1"
   inkscape:version="0.48.5 r10040"
   sodipodi:docname="141019_LomD10-VolksWagen.svg">
  <defs
     id="defs4" />
  <sodipodi:namedview
     id="base"
     pagecolor="#ffffff"
     bordercolor="#666666"
     borderopacity="1.0"
     inkscape:pageopacity="0.0"
     inkscape:pageshadow="2"
     inkscape:zoom="2.6005293"
     inkscape:cx="154.09043"
     inkscape:cy="23.367039"
     inkscape:document-units="px"
     inkscape:current-layer="layer1"
     showgrid="true"
     inkscape:snap-bbox="true"
     inkscape:bbox-paths="true"
     inkscape:bbox-nodes="true"
     inkscape:snap-bbox-edge-midpoints="true"
     inkscape:snap-bbox-midpoints="true"
     inkscape:object-paths="true"
     inkscape:snap-intersection-paths="true"
     inkscape:object-nodes="true"
     inkscape:snap-smooth-nodes="true"
     inkscape:snap-midpoints="true"
     inkscape:snap-object-midpoints="true"
     inkscape:snap-center="true"
     inkscape:window-width="1868"
     inkscape:window-height="1059"
     inkscape:window-x="48"
     inkscape:window-y="-4"
     inkscape:window-maximized="1">
    <inkscape:grid
       type="xygrid"
       id="grid2985"
       empspacing="4"
       visible="true"
       enabled="true"
       snapvisiblegridlinesonly="true" />
  </sodipodi:namedview>
  <metadata
     id="metadata7">
    <rdf:RDF>
      <cc:Work
         rdf:about="">
        <dc:format>image/svg+xml</dc:format>
        <dc:type
           rdf:resource="http://purl.org/dc/dcmitype/StillImage" />
        <dc:title></dc:title>
      </cc:Work>
    </rdf:RDF>
  </metadata>
  <g
     inkscape:label="Layer 1"
     inkscape:groupmode="layer"
     id="layer1"
     transform="translate(0,-912.36218)">
    <path
       style="fill:#231f20;fill-opacity:1;fill-rule:evenodd;stroke:none"
       d="m 70.006145,1028.3622 c -25.403238,0 -45.999955,-20.5975 -45.999955,-46.00006 0,-25.40322 20.596717,-45.99996 45.999955,-45.99996 25.402551,0 45.987665,20.5967 45.987665,45.99996 0,25.40256 -20.585114,46.00006 -45.987665,46.00006 z m 0,-4.1305 c 23.124925,0 41.869545,-18.7446 41.869545,-41.86956 0,-23.12555 -18.74462,-41.86955 -41.869545,-41.86955 -23.125756,0 -41.881839,18.744 -41.881839,41.86955 0,23.12496 18.756083,41.86956 41.881839,41.86956 z m 0,-9.2811 c -3.18327,0 -6.262289,-0.4524 -9.170488,-1.3031 l 9.170488,-20.29552 9.158198,20.29552 c -2.905052,0.8487 -5.979703,1.3031 -9.158198,1.3031 z m -17.505056,-5.0893 c -3.423569,-2.1822 -6.407099,-4.982 -8.801701,-8.2485 l 15.009604,-33.28913 5.802236,12.89523 10.989834,0 5.789947,-12.89523 15.034192,33.25223 c -2.39859,3.2792 -5.391163,6.0953 -8.82629,8.2854 l -11.96097,-26.62637 -11.026713,0 -12.010139,26.62637 z M 38.511791,990.79506 c -0.718547,-2.69116 -1.106361,-5.51651 -1.106361,-8.43292 0,-12.77191 7.348628,-23.82571 18.045946,-29.171 l -16.939585,37.60392 z m 63.000999,-0.0738 -16.964166,-37.53016 c 10.697265,5.3453 18.045956,16.39909 18.045956,29.17101 0,2.89132 -0.37519,5.69012 -1.08179,8.35915 z M 70.006145,971.02807 60.983172,951.03985 c 2.862711,-0.82282 5.895021,-1.26617 9.022973,-1.26617 3.123919,0 6.138079,0.4333 8.998394,1.25387 l -8.998394,20.00052 z"
       id="path16"
       inkscape:connector-curvature="0" />
  </g>
</svg>
