<?xml version="1.0" encoding="UTF-8" standalone="no"?>
<svg version="1.1" width="140" height="140" xmlns="http://www.w3.org/2000/svg">
  <path fill="#231f20" stroke="none" d="M 70,116 c -25.403238,0 -45.999955,-20.5975 -45.999955,-46.00006 C 24.000045,44.59674 44.596762,24 70,24 c 25.402551,0 45.98766,20.5967 45.98766,45.99996 0,25.40256 -20.585109,46.00006 -45.98766,46.00006 z m 0,-4.1305 c 23.124925,0 41.86955,-18.7446 41.86955,-41.86956 0,-23.12555 -18.744625,-41.86955 -41.86955,-41.86955 -23.125756,0 -41.881839,18.744 -41.881839,41.86955 0,23.12496 18.756083,41.86956 41.881839,41.86956 z m 0,-9.2811 c -3.18327,0 -6.262289,-0.4524 -9.170488,-1.3031 L 70,80.9898 l 9.158198,20.29552 c -2.905052,0.8487 -5.979703,1.3031 -9.158198,1.3031 z m -17.505056,-5.0893 c -3.423569,-2.1822 -6.407099,-4.982 -8.801701,-8.2485 l 15.009604,-33.28913 5.802236,12.89523 10.989834,0 5.789947,-12.89523 15.034192,33.25223 c -2.39859,3.2792 -5.391163,6.0953 -8.82629,8.2854 l -11.96097,-26.62637 -11.026713,0 z M 38.505646,78.43288 c -0.718547,-2.69116 -1.106361,-5.51651 -1.106361,-8.43292 0,-12.77191 7.348628,-23.82571 18.045946,-29.171 z M 101.50664,78.35908 84.542479,40.82892 c 10.697265,5.3453 18.045951,16.39909 18.045951,29.17101 0,2.89132 -0.37519,5.69012 -1.08179,8.35915 z M 70,58.66589 60.977025,38.67767 C 63.839738,37.85485 66.872048,37.4115 70,37.4115 c 3.123919,0 6.138079,0.4333 8.998394,1.25387 z" />
</svg>