<?xml version="1.0" encoding="UTF-8" standalone="no"?>
<!-- Created with Inkscape (http://www.inkscape.org/) -->

<svg
   xmlns:dc="http://purl.org/dc/elements/1.1/"
   xmlns:cc="http://creativecommons.org/ns#"
   xmlns:rdf="http://www.w3.org/1999/02/22-rdf-syntax-ns#"
   xmlns:svg="http://www.w3.org/2000/svg"
   xmlns="http://www.w3.org/2000/svg"
   xmlns:sodipodi="http://sodipodi.sourceforge.net/DTD/sodipodi-0.dtd"
   xmlns:inkscape="http://www.inkscape.org/namespaces/inkscape"
   width="140"
   height="140"
   viewBox="0 0 140 140"
   id="svg2"
   version="1.1"
   inkscape:version="0.91 r13725"
   sodipodi:docname="NozzlesLF.svg"
   inkscape:export-filename="R:\User\Emul\PC\KSP\KSP-saves\Flags\SoyuzNozzleFlag.png"
   inkscape:export-xdpi="90"
   inkscape:export-ydpi="90">
  <defs
     id="defs4" />
  <sodipodi:namedview
     id="base"
     pagecolor="#ffffff"
     bordercolor="#666666"
     borderopacity="1.0"
     inkscape:pageopacity="0.0"
     inkscape:pageshadow="2"
     inkscape:zoom="2.2554769"
     inkscape:cx="181.97495"
     inkscape:cy="-34.194775"
     inkscape:document-units="px"
     inkscape:current-layer="layer1"
     showgrid="true"
     units="px"
     objecttolerance="20"
     inkscape:snap-bbox="true"
     inkscape:bbox-paths="true"
     inkscape:bbox-nodes="true"
     inkscape:snap-bbox-edge-midpoints="false"
     inkscape:snap-bbox-midpoints="false"
     inkscape:object-paths="true"
     inkscape:snap-intersection-paths="true"
     inkscape:object-nodes="true"
     inkscape:snap-smooth-nodes="true"
     inkscape:snap-midpoints="true">
    <inkscape:grid
       type="xygrid"
       id="grid4136"
       snapvisiblegridlinesonly="false"
       empspacing="3" />
  </sodipodi:namedview>
  <metadata
     id="metadata7">
    <rdf:RDF>
      <cc:Work
         rdf:about="">
        <dc:format>image/svg+xml</dc:format>
        <dc:type
           rdf:resource="http://purl.org/dc/dcmitype/StillImage" />
        <dc:title></dc:title>
      </cc:Work>
    </rdf:RDF>
  </metadata>
  <g
     inkscape:label="Layer 1"
     inkscape:groupmode="layer"
     id="layer1"
     transform="translate(0,-912.36216)">
    <g
       id="g4235"
       transform="matrix(0.954545,0,0,0.954545,-52.18176,54.198723)">
      <g
         transform="matrix(1.6666667,0,0,1.6666667,-392.00001,-591.57484)"
         id="g4576">
        <path
           id="path4578"
           transform="translate(0,892.36216)"
           d="m 303,31 -6,6 0,1 2.75586,3.675781 A 13,13.000011 0 0 0 299,46 a 13,13.000011 0 0 0 0.75586,4.326172 L 297,54 l 0,1 6,6 1,0 3.67578,-2.755859 A 13,13.000011 0 0 0 312,59 13,13.000011 0 0 0 316.32617,58.244141 L 320,61 l 1,0 6,-6 0,-1 -2.75586,-3.675781 A 13,13.000011 0 0 0 325,46 13,13.000011 0 0 0 324.24414,41.673828 L 327,38 l 0,-1 -6,-6 -1,0 -3.67578,2.755859 A 13,13.000011 0 0 0 312,33 13,13.000011 0 0 0 307.67383,33.755859 L 304,31 l -1,0 z"
           style="opacity:1;fill:#b4b4b4;fill-opacity:1;stroke:none;stroke-width:0.09999999;stroke-linecap:round;stroke-linejoin:round;stroke-miterlimit:4;stroke-dasharray:none;stroke-dashoffset:0;stroke-opacity:1"
           inkscape:connector-curvature="0" />
        <path
           id="path4580"
           d="m 268,894.36216 0,0.56445 8,8.43555 0,1 0.74219,0.74219 A 16,16 0 0 0 273,915.36216 a 16,16 0 0 0 16,16 16,16 0 0 0 3.38086,-0.38086 l 12.25391,-12.25391 A 16,16 0 0 0 305,915.36216 a 16,16 0 0 0 -16,-16 16,16 0 0 0 -10.26758,3.73242 L 278,902.36216 l -1,0 -8.43555,-8 -0.56445,0 z"
           style="opacity:1;fill:#b4b4b4;fill-opacity:1;stroke:none;stroke-width:0.1;stroke-linecap:round;stroke-linejoin:round;stroke-miterlimit:4;stroke-dasharray:none;stroke-dashoffset:0;stroke-opacity:1"
           inkscape:connector-curvature="0" />
        <path
           inkscape:connector-curvature="0"
           style="opacity:1;fill:#b4b4b4;fill-opacity:1;stroke:none;stroke-width:0.1;stroke-linecap:round;stroke-linejoin:round;stroke-miterlimit:4;stroke-dasharray:none;stroke-dashoffset:0;stroke-opacity:1"
           d="m 268,982.3622 0,-0.56449 8,-8.43555 0,-1 0.74219,-0.74219 A 16,16 0 0 1 273,961.36216 a 16,16 0 0 1 16,-16 16,16 0 0 1 3.38086,0.38086 l 12.25391,12.25391 a 16,16 0 0 1 0.36523,3.36523 16,16 0 0 1 -16,16 16,16 0 0 1 -10.26758,-3.73242 L 278,974.36216 l -1,0 -8.43555,8.00004 -0.56445,0 z"
           id="path4582" />
        <path
           inkscape:connector-curvature="0"
           style="opacity:1;fill:#b4b4b4;fill-opacity:1;stroke:none;stroke-width:0.1;stroke-linecap:round;stroke-linejoin:round;stroke-miterlimit:4;stroke-dasharray:none;stroke-dashoffset:0;stroke-opacity:1"
           d="m 356,894.36216 0,0.56445 -8,8.43555 0,1 -0.74219,0.74219 A 16,16 0 0 1 351,915.36216 a 16,16 0 0 1 -16,16 16,16 0 0 1 -3.38086,-0.38086 L 319.36523,918.72739 A 16,16 0 0 1 319,915.36216 a 16,16 0 0 1 16,-16 16,16 0 0 1 10.26758,3.73242 L 346,902.36216 l 1,0 8.43555,-8 0.56445,0 z"
           id="path4584" />
        <path
           id="path4586"
           d="m 356,982.3622 0,-0.56449 -8,-8.43555 0,-1 -0.74219,-0.74219 A 16,16 0 0 0 351,961.36216 a 16,16 0 0 0 -16,-16 16,16 0 0 0 -3.38086,0.38086 l -12.25391,12.25391 A 16,16 0 0 0 319,961.36216 a 16,16 0 0 0 16,16 16,16 0 0 0 10.26758,-3.73242 l 0.73242,0.73242 1,0 8.43555,8.00004 0.56445,0 z"
           style="opacity:1;fill:#b4b4b4;fill-opacity:1;stroke:none;stroke-width:0.1;stroke-linecap:round;stroke-linejoin:round;stroke-miterlimit:4;stroke-dasharray:none;stroke-dashoffset:0;stroke-opacity:1"
           inkscape:connector-curvature="0" />
      </g>
      <g
         id="g4588"
         style="fill:#e82c00;fill-opacity:1;stroke:none"
         transform="matrix(1.6666667,0,0,1.6666667,-152.00001,-621.57484)">
        <g
           id="g4590"
           style="fill:#e82c00;fill-opacity:1;stroke:none">
          <circle
             r="4"
             cy="927.36218"
             cx="146"
             id="circle4592"
             style="opacity:1;fill:#e82c00;fill-opacity:1;stroke:none;stroke-width:0.1;stroke-linecap:round;stroke-linejoin:round;stroke-miterlimit:4;stroke-dasharray:none;stroke-dashoffset:0;stroke-opacity:1" />
          <circle
             style="opacity:1;fill:#e82c00;fill-opacity:1;stroke:none;stroke-width:0.1;stroke-linecap:round;stroke-linejoin:round;stroke-miterlimit:4;stroke-dasharray:none;stroke-dashoffset:0;stroke-opacity:1"
             id="circle4594"
             cx="146"
             cy="941.36218"
             r="4" />
          <circle
             r="4"
             cy="934.36218"
             cx="153"
             id="circle4596"
             style="opacity:1;fill:#e82c00;fill-opacity:1;stroke:none;stroke-width:0.1;stroke-linecap:round;stroke-linejoin:round;stroke-miterlimit:4;stroke-dasharray:none;stroke-dashoffset:0;stroke-opacity:1" />
          <circle
             style="opacity:1;fill:#e82c00;fill-opacity:1;stroke:none;stroke-width:0.1;stroke-linecap:round;stroke-linejoin:round;stroke-miterlimit:4;stroke-dasharray:none;stroke-dashoffset:0;stroke-opacity:1"
             id="circle4598"
             cx="139"
             cy="934.36218"
             r="4" />
          <circle
             style="opacity:1;fill:#e82c00;fill-opacity:1;stroke:none;stroke-width:0.1;stroke-linecap:round;stroke-linejoin:round;stroke-miterlimit:4;stroke-dasharray:none;stroke-dashoffset:0;stroke-opacity:1"
             id="circle4600"
             cx="133"
             cy="929.36218"
             r="2" />
          <circle
             r="2"
             cy="921.36218"
             cx="141"
             id="circle4602"
             style="opacity:1;fill:#e82c00;fill-opacity:1;stroke:none;stroke-width:0.1;stroke-linecap:round;stroke-linejoin:round;stroke-miterlimit:4;stroke-dasharray:none;stroke-dashoffset:0;stroke-opacity:1" />
        </g>
        <g
           id="g4604"
           style="fill:#e82c00;fill-opacity:1;stroke:none">
          <circle
             style="opacity:1;fill:#e82c00;fill-opacity:1;stroke:none;stroke-width:0.1;stroke-linecap:round;stroke-linejoin:round;stroke-miterlimit:4;stroke-dasharray:none;stroke-dashoffset:0;stroke-opacity:1"
             id="circle4606"
             cx="146"
             cy="-985.36212"
             r="4"
             transform="scale(1,-1)" />
          <circle
             r="4"
             cy="-971.36212"
             cx="146"
             id="circle4608"
             style="opacity:1;fill:#e82c00;fill-opacity:1;stroke:none;stroke-width:0.1;stroke-linecap:round;stroke-linejoin:round;stroke-miterlimit:4;stroke-dasharray:none;stroke-dashoffset:0;stroke-opacity:1"
             transform="scale(1,-1)" />
          <circle
             style="opacity:1;fill:#e82c00;fill-opacity:1;stroke:none;stroke-width:0.1;stroke-linecap:round;stroke-linejoin:round;stroke-miterlimit:4;stroke-dasharray:none;stroke-dashoffset:0;stroke-opacity:1"
             id="circle4610"
             cx="153"
             cy="-978.36212"
             r="4"
             transform="scale(1,-1)" />
          <circle
             r="4"
             cy="-978.36212"
             cx="139"
             id="circle4612"
             style="opacity:1;fill:#e82c00;fill-opacity:1;stroke:none;stroke-width:0.1;stroke-linecap:round;stroke-linejoin:round;stroke-miterlimit:4;stroke-dasharray:none;stroke-dashoffset:0;stroke-opacity:1"
             transform="scale(1,-1)" />
          <circle
             r="2"
             cy="-983.36212"
             cx="133"
             id="circle4614"
             style="opacity:1;fill:#e82c00;fill-opacity:1;stroke:none;stroke-width:0.1;stroke-linecap:round;stroke-linejoin:round;stroke-miterlimit:4;stroke-dasharray:none;stroke-dashoffset:0;stroke-opacity:1"
             transform="scale(1,-1)" />
          <circle
             style="opacity:1;fill:#e82c00;fill-opacity:1;stroke:none;stroke-width:0.1;stroke-linecap:round;stroke-linejoin:round;stroke-miterlimit:4;stroke-dasharray:none;stroke-dashoffset:0;stroke-opacity:1"
             id="circle4616"
             cx="141"
             cy="-991.36212"
             r="2"
             transform="scale(1,-1)" />
        </g>
        <g
           id="g4618"
           style="fill:#e82c00;fill-opacity:1;stroke:none">
          <circle
             style="opacity:1;fill:#e82c00;fill-opacity:1;stroke:none;stroke-width:0.1;stroke-linecap:round;stroke-linejoin:round;stroke-miterlimit:4;stroke-dasharray:none;stroke-dashoffset:0;stroke-opacity:1"
             id="circle4620"
             cx="-190"
             cy="927.36218"
             r="4"
             transform="scale(-1,1)" />
          <circle
             r="4"
             cy="941.36218"
             cx="-190"
             id="circle4622"
             style="opacity:1;fill:#e82c00;fill-opacity:1;stroke:none;stroke-width:0.1;stroke-linecap:round;stroke-linejoin:round;stroke-miterlimit:4;stroke-dasharray:none;stroke-dashoffset:0;stroke-opacity:1"
             transform="scale(-1,1)" />
          <circle
             style="opacity:1;fill:#e82c00;fill-opacity:1;stroke:none;stroke-width:0.1;stroke-linecap:round;stroke-linejoin:round;stroke-miterlimit:4;stroke-dasharray:none;stroke-dashoffset:0;stroke-opacity:1"
             id="circle4624"
             cx="-183"
             cy="934.36218"
             r="4"
             transform="scale(-1,1)" />
          <circle
             r="4"
             cy="934.36218"
             cx="-197"
             id="circle4626"
             style="opacity:1;fill:#e82c00;fill-opacity:1;stroke:none;stroke-width:0.1;stroke-linecap:round;stroke-linejoin:round;stroke-miterlimit:4;stroke-dasharray:none;stroke-dashoffset:0;stroke-opacity:1"
             transform="scale(-1,1)" />
          <circle
             r="2"
             cy="929.36218"
             cx="-203"
             id="circle4628"
             style="opacity:1;fill:#e82c00;fill-opacity:1;stroke:none;stroke-width:0.1;stroke-linecap:round;stroke-linejoin:round;stroke-miterlimit:4;stroke-dasharray:none;stroke-dashoffset:0;stroke-opacity:1"
             transform="scale(-1,1)" />
          <circle
             style="opacity:1;fill:#e82c00;fill-opacity:1;stroke:none;stroke-width:0.1;stroke-linecap:round;stroke-linejoin:round;stroke-miterlimit:4;stroke-dasharray:none;stroke-dashoffset:0;stroke-opacity:1"
             id="circle4630"
             cx="-195"
             cy="921.36218"
             r="2"
             transform="scale(-1,1)" />
        </g>
        <g
           id="g4632"
           style="fill:#e82c00;fill-opacity:1;stroke:none">
          <circle
             transform="scale(-1,-1)"
             r="4"
             cy="-985.36212"
             cx="-190"
             id="circle4634"
             style="opacity:1;fill:#e82c00;fill-opacity:1;stroke:none;stroke-width:0.1;stroke-linecap:round;stroke-linejoin:round;stroke-miterlimit:4;stroke-dasharray:none;stroke-dashoffset:0;stroke-opacity:1" />
          <circle
             transform="scale(-1,-1)"
             style="opacity:1;fill:#e82c00;fill-opacity:1;stroke:none;stroke-width:0.1;stroke-linecap:round;stroke-linejoin:round;stroke-miterlimit:4;stroke-dasharray:none;stroke-dashoffset:0;stroke-opacity:1"
             id="circle4636"
             cx="-190"
             cy="-971.36212"
             r="4" />
          <circle
             transform="scale(-1,-1)"
             r="4"
             cy="-978.36212"
             cx="-183"
             id="circle4638"
             style="opacity:1;fill:#e82c00;fill-opacity:1;stroke:none;stroke-width:0.1;stroke-linecap:round;stroke-linejoin:round;stroke-miterlimit:4;stroke-dasharray:none;stroke-dashoffset:0;stroke-opacity:1" />
          <circle
             transform="scale(-1,-1)"
             style="opacity:1;fill:#e82c00;fill-opacity:1;stroke:none;stroke-width:0.1;stroke-linecap:round;stroke-linejoin:round;stroke-miterlimit:4;stroke-dasharray:none;stroke-dashoffset:0;stroke-opacity:1"
             id="circle4640"
             cx="-197"
             cy="-978.36212"
             r="4" />
          <circle
             transform="scale(-1,-1)"
             style="opacity:1;fill:#e82c00;fill-opacity:1;stroke:none;stroke-width:0.1;stroke-linecap:round;stroke-linejoin:round;stroke-miterlimit:4;stroke-dasharray:none;stroke-dashoffset:0;stroke-opacity:1"
             id="circle4642"
             cx="-203"
             cy="-983.36212"
             r="2" />
          <circle
             transform="scale(-1,-1)"
             r="2"
             cy="-991.36212"
             cx="-195"
             id="circle4644"
             style="opacity:1;fill:#e82c00;fill-opacity:1;stroke:none;stroke-width:0.1;stroke-linecap:round;stroke-linejoin:round;stroke-miterlimit:4;stroke-dasharray:none;stroke-dashoffset:0;stroke-opacity:1" />
        </g>
        <g
           id="g4646"
           style="fill:#e82c00;fill-opacity:1;stroke:none">
          <circle
             style="opacity:1;fill:#e82c00;fill-opacity:1;stroke:none;stroke-width:0.1;stroke-linecap:round;stroke-linejoin:round;stroke-miterlimit:4;stroke-dasharray:none;stroke-dashoffset:0;stroke-opacity:1"
             id="circle4648"
             cx="168"
             cy="949.36218"
             r="4" />
          <circle
             r="4"
             cy="963.36218"
             cx="168"
             id="circle4650"
             style="opacity:1;fill:#e82c00;fill-opacity:1;stroke:none;stroke-width:0.1;stroke-linecap:round;stroke-linejoin:round;stroke-miterlimit:4;stroke-dasharray:none;stroke-dashoffset:0;stroke-opacity:1" />
          <circle
             style="opacity:1;fill:#e82c00;fill-opacity:1;stroke:none;stroke-width:0.1;stroke-linecap:round;stroke-linejoin:round;stroke-miterlimit:4;stroke-dasharray:none;stroke-dashoffset:0;stroke-opacity:1"
             id="circle4652"
             cx="175"
             cy="956.36218"
             r="4" />
          <circle
             r="4"
             cy="956.36218"
             cx="161"
             id="circle4654"
             style="opacity:1;fill:#e82c00;fill-opacity:1;stroke:none;stroke-width:0.1;stroke-linecap:round;stroke-linejoin:round;stroke-miterlimit:4;stroke-dasharray:none;stroke-dashoffset:0;stroke-opacity:1" />
          <circle
             r="2"
             cy="946.36218"
             cx="158"
             id="circle4656"
             style="opacity:1;fill:#e82c00;fill-opacity:1;stroke:none;stroke-width:0.1;stroke-linecap:round;stroke-linejoin:round;stroke-miterlimit:4;stroke-dasharray:none;stroke-dashoffset:0;stroke-opacity:1" />
          <circle
             style="opacity:1;fill:#e82c00;fill-opacity:1;stroke:none;stroke-width:0.1;stroke-linecap:round;stroke-linejoin:round;stroke-miterlimit:4;stroke-dasharray:none;stroke-dashoffset:0;stroke-opacity:1"
             id="circle4658"
             cx="158"
             cy="-966.36212"
             r="2"
             transform="scale(1,-1)" />
          <circle
             style="opacity:1;fill:#e82c00;fill-opacity:1;stroke:none;stroke-width:0.1;stroke-linecap:round;stroke-linejoin:round;stroke-miterlimit:4;stroke-dasharray:none;stroke-dashoffset:0;stroke-opacity:1"
             id="circle4660"
             cx="-178"
             cy="946.36218"
             r="2"
             transform="scale(-1,1)" />
          <circle
             transform="scale(-1,-1)"
             r="2"
             cy="-966.36212"
             cx="-178"
             id="circle4662"
             style="opacity:1;fill:#e82c00;fill-opacity:1;stroke:none;stroke-width:0.1;stroke-linecap:round;stroke-linejoin:round;stroke-miterlimit:4;stroke-dasharray:none;stroke-dashoffset:0;stroke-opacity:1" />
        </g>
      </g>
    </g>
  </g>
</svg>
