<?xml version="1.0" encoding="utf-8"?>
<svg version="1.1" width="320" height="320" viewBox="0 0 320 320" xmlns="http://www.w3.org/2000/svg">
 <rect x="0" y="0" width="320" height="320" fill="#76aecf"/>
 <g fill="#f7dc57" stroke="#000" stroke-width="1.5">
  <path d="M8 161V159L80 152V168Z"/>
  <path d="M38.6 185.2L38.2 183.2L80 167.8L83.1 183.5Z"/>
  <path d="M20 219.1L19.2 217.2L83 183.2L89.2 198Z"/>
  <path d="M57.5 229.7L56.3 228.1L89 197.8L97.9 211.1Z"/>
  <path d="M53.2 268.2L51.8 266.8L97.8 210.9L109.1 222.2Z"/>
  <path d="M91.9 263.7L90.3 262.5L108.9 222.1L122.2 231Z"/>
  <path d="M102.8 300.8L100.9 300L122 230.8L136.8 237Z"/>
  <path d="M136.8 281.8L134.8 281.4L136.5 236.9L152.2 240Z"/>
  <path d="M161 312H159L152 240H168Z"/>
  <path d="M185.2 281.4L183.2 281.8L167.8 240L183.5 236.9Z"/>
  <path d="M219.1 300L217.2 300.8L183.2 237L198 230.8Z"/>
  <path d="M229.7 262.5L228.1 263.7L197.8 231L211.1 222.1Z"/>
  <path d="M268.2 266.8L266.8 268.2L210.9 222.2L222.2 210.9Z"/>
  <path d="M263.7 228.1L262.5 229.7L222.1 211.1L231 197.8Z"/>
  <path d="M300.8 217.2L300 219.1L230.8 198L237 183.2Z"/>
  <path d="M281.8 183.2L281.4 185.2L236.9 183.5L240 167.8Z"/>
  <path d="M312 159V161L240 168V152Z"/>
  <path d="M281.4 134.8L281.8 136.8L240 152.2L236.9 136.5Z"/>
  <path d="M300 100.9L300.8 102.8L237 136.8L230.8 122Z"/>
  <path d="M262.5 90.3L263.7 91.9L231 122.2L222.1 108.9Z"/>
  <path d="M266.8 51.8L268.2 53.2L222.2 109.1L210.9 97.8Z"/>
  <path d="M228.1 56.3L229.7 57.5L211.1 97.9L197.8 89Z"/>
  <path d="M217.2 19.2L219.1 20L198 89.2L183.2 83Z"/>
  <path d="M183.2 38.2L185.2 38.6L183.5 83.1L167.8 80Z"/>
  <path d="M159 8H161L168 80H152Z"/>
  <path d="M134.8 38.6L136.8 38.2L152.2 80L136.5 83.1Z"/>
  <path d="M100.9 20L102.8 19.2L136.8 83L122 89.2Z"/>
  <path d="M90.3 57.5L91.9 56.3L122.2 89L108.9 97.9Z"/>
  <path d="M51.8 53.2L53.2 51.8L109.1 97.8L97.8 109.1Z"/>
  <path d="M56.3 91.9L57.5 90.3L97.9 108.9L89 122.2Z"/>
  <path d="M19.2 102.8L20 100.9L89.2 122L83 136.8Z"/>
  <path d="M38.2 136.8L38.6 134.8L83.1 136.5L80 152.2Z"/>
  <circle cx="160" cy="160" r="96" stroke-width="2.5"/>
  <path d="M105 82C110 81 115 81 120 81C186 81 239 134 239 200C239 205 239 210 238 215" stroke-width="2"/>
 </g>
 <rect x="80" y="4" width="160" height="32" fill="#76aecf"/>
 <path d="M128.5 13.2C126.5 13.2 124.8 13.5 123.2 14.1C121.7 14.7 120.4 15.6 119.4 16.6S117.6 19 117.1 20.4C116.6 21.8 116.3 23.3 116.3 25C116.3 26.8 116.6 28.4 117.1 29.8C117.7 31.2 118.4 32.4 119.4 33.4S121.7 35.1 123.2 35.6C124.7 36.1 126.4 36.4 128.3 36.4C128.9 36.4 129.5 36.4 130.1 36.3C130.7 36.2 131.4 36.2 132 36.1C132.6 36 133.1 35.9 133.6 35.8C134.2 35.6 134.6 35.5 134.9 35.4L135.1 30.4H132.3L132.2 33.5C131.7 33.6 131.1 33.7 130.4 33.8C129.7 33.9 129 34 128.3 34C126.9 34 125.7 33.7 124.6 33.3C123.6 32.9 122.7 32.3 121.9 31.5C121.2 30.7 120.7 29.7 120.3 28.6C119.9 27.4 119.7 26.2 119.7 24.7C119.7 23.3 119.9 22 120.3 20.8C120.7 19.7 121.3 18.8 122 18C122.8 17.2 123.7 16.6 124.8 16.2C125.8 15.8 127.1 15.6 128.4 15.6C129.3 15.6 130.1 15.7 130.8 15.8C131.5 16 132.1 16.1 132.4 16.2V19.1H135.2V14.4C134.8 14.2 134.4 14.1 133.9 13.9C133.4 13.8 132.8 13.7 132.3 13.6C131.7 13.5 131.1 13.4 130.4 13.3C129.8 13.3 129.2 13.2 128.5 13.2Z M87.6 13.6V15.9H90.2L90.1 33.7H87.6V36H95.3V33.7H92.6L92.7 18H92.8C92.9 18.4 93 18.8 93.1 19.2S93.3 19.8 93.4 20.2L99.8 36H102.7L109.1 20C109.3 19.5 109.5 18.8 109.7 17.8H109.8L109.7 33.7H107.4V36H115.3V33.7H112.7L112.5 15.9H115.3V13.6H108.8L101.9 31C101.8 31.4 101.6 31.9 101.5 32.5H101.4C101.3 31.9 101.2 31.4 101 31L94.1 13.6Z M136.4 13.6V15.9H139.1L138.9 33.7H136.4V36H144.1V33.7H141.4L141.5 18H141.6C141.7 18.4 141.8 18.8 141.9 19.2S142.1 19.8 142.2 20.2L148.6 36H151.5L157.9 20C158.1 19.5 158.3 18.8 158.5 17.8H158.6L158.5 33.7H156.2V36H164.1V33.7H161.5L161.4 15.9H164.1V13.6H157.6L150.7 31C150.6 31.4 150.4 31.9 150.3 32.5H150.2C150.1 31.9 150 31.4 149.8 31L142.9 13.6Z M165 13.6V15.9H167.5L167.4 33.7H165V36H180.3L180.6 30.1H178L177.7 33.7H170.5L170.6 15.9H172.9V13.6Z M181.5 13.6V15.9H183.7L190 24.7L183.1 33.7H181.1V36H188.7V33.7H186.2C186.5 33.5 186.7 33.2 186.9 32.9L191.5 26.7L195.8 32.9C196 33.2 196.2 33.5 196.4 33.7H194V36H202.3V33.7H200.2L193.5 24.5L200 15.9H201.9V13.6H194.5V15.9H197.1C196.9 16.1 196.6 16.4 196.4 16.7L192 22.5L188 16.8C187.9 16.6 187.8 16.4 187.7 16.3C187.6 16.2 187.5 16 187.3 15.9H189.8V13.6Z M203 13.6V15.9H205.5L205.3 33.7H203V36H210.9V33.7H208.4L208.6 15.9H210.9V13.6Z M212 13.6V15.9H214.2L220.5 24.7L213.6 33.7H211.6V36H219.2V33.7H216.7C217 33.5 217.2 33.2 217.4 32.9L222 26.7L226.3 32.9C226.5 33.2 226.7 33.5 226.9 33.7H224.5V36H232.8V33.7H230.7L224 24.5L230.5 15.9H232.4V13.6H225V15.9H227.6C227.4 16.1 227.1 16.4 226.9 16.7L222.5 22.5L218.5 16.8C218.4 16.6 218.3 16.4 218.2 16.3C218.1 16.2 218 16 217.8 15.9H220.3V13.6Z" fill="#000"/>
 <g fill="none" stroke="#000" stroke-width="1.5">
  <path d="M135.5 167.9C127.7 178.4 111.1 197.5 94.1 186.8C72.9 173.6 90.2 147.8 96.9 139S108.2 115.4 114.6 108.8S133.2 88.6 151.9 100.3C167.4 111.2 165.7 129 158.8 140"/>
  <path d="M154.5 133.8L123.4 115.5L119.9 119.2"/>
  <path d="M148.6 143.1L118.1 124L114.6 127.7"/>
  <path d="M140.6 152.2L112 131.9L109.8 135.3"/>
  <path d="M132.5 161.3L106.7 140.4L105.1 143L105.9 143.5"/>
  <path d="M127.4 167.6L101.9 148.1L100.3 150.6"/>
  <path d="M121.5 173.3C120.6 172.8 98.5 155.4 98.5 155.4L95.5 158.2"/>
  <path d="M114.7 178.5L96.8 163.7L94.9 164.9"/>
  <path d="M151.9 100.3C167.4 111.2 165.7 129 158.8 140C168.3 122.1 145.8 121.3 130 122C114.6 122.7 117 112.7 100.5 138.9C97.3 144 90.1 153.8 89.7 160.1C89 170 87.9 181.7 94.1 186.8C72.9 173.6 90.2 147.8 96.9 139S108.2 115.4 114.6 108.8S133.2 88.6 151.9 100.3Z" fill="#000"/>
 </g>
</svg>