<?xml version="1.0" encoding="UTF-8" standalone="no"?>
<!-- Created with Inkscape (http://www.inkscape.org/) -->

<svg
   xmlns:dc="http://purl.org/dc/elements/1.1/"
   xmlns:cc="http://creativecommons.org/ns#"
   xmlns:rdf="http://www.w3.org/1999/02/22-rdf-syntax-ns#"
   xmlns:svg="http://www.w3.org/2000/svg"
   xmlns="http://www.w3.org/2000/svg"
   version="1.1"
   width="456"
   height="128"
   id="svg2">
  <defs
     id="defs4" />
  <metadata
     id="metadata7">
    <rdf:RDF>
      <cc:Work
         rdf:about="">
        <dc:format>image/svg+xml</dc:format>
        <dc:type
           rdf:resource="http://purl.org/dc/dcmitype/StillImage" />
        <dc:title></dc:title>
      </cc:Work>
    </rdf:RDF>
  </metadata>
  <g
     transform="translate(0,-924.36218)"
     id="layer1">
    <g
       id="text2983"
       style="font-size:171.448349px;font-style:normal;font-variant:normal;font-weight:normal;font-stretch:normal;line-height:125%;letter-spacing:0px;word-spacing:0px;fill:#000000;fill-opacity:1;stroke:none;font-family:Segoe UI;-inkscape-font-specification:Segoe UI">
      <path
         d="m 6.4006777,1048.3622 0,-120.04735 56.0890593,0 0,7.61807 -47.801273,0 0,48.13613 44.368958,0 0,7.53435 -44.368958,0 0,49.2244 50.563869,0 0,7.5344 z"
         id="path3063"
         style="font-weight:300;text-align:start;line-height:125%;writing-mode:lr-tb;text-anchor:start;font-family:Segoe UI Light;-inkscape-font-specification:'Segoe UI Light, Light'" />
      <path
         d="m 177.01188,1048.3622 -71.49263,-97.02572 c -1.45108,-1.95325 -2.73471,-3.9066 -3.85089,-5.86005 l -1.08829,-1.6743 -0.33486,0 c 0.11159,1.45116 0.1674,3.20918 0.16743,5.27405 l 0,99.28602 -8.287788,0 0,-120.04735 6.362341,0 70.990337,96.18855 c 1.56258,2.1208 3.26478,4.6881 5.10661,7.7018 l 0.41858,0 c -0.27915,-3.9067 -0.41868,-7.2553 -0.41858,-10.0458 l 0,-93.84455 8.28779,0 0,120.04735 z"
         id="path3065"
         style="font-weight:300;text-align:start;line-height:125%;writing-mode:lr-tb;text-anchor:start;font-family:Segoe UI Light;-inkscape-font-specification:'Segoe UI Light, Light'" />
      <path
         d="m 213.67906,1048.3622 0,-120.04735 56.08906,0 0,7.61807 -47.80127,0 0,48.13613 44.36895,0 0,7.53435 -44.36895,0 0,49.2244 50.56386,0 0,7.5344 z"
         id="path3067"
         style="font-weight:300;text-align:start;line-height:125%;writing-mode:lr-tb;text-anchor:start;font-family:Segoe UI Light;-inkscape-font-specification:'Segoe UI Light, Light'" />
    </g>
    <g
       id="text2987"
       style="font-size:78.9315567px;font-style:normal;font-variant:normal;font-weight:normal;font-stretch:normal;line-height:125%;letter-spacing:8px;word-spacing:0px;fill:#000000;fill-opacity:1;stroke:none;font-family:Segoe UI;-inkscape-font-specification:Segoe UI">
      <path
         d="m 298.72052,962.74114 0,20.88911 -6.47485,0 0,-55.26751 15.18508,0 c 5.90956,6e-5 10.48948,1.43891 13.73979,4.31657 3.25023,2.87776 4.87537,6.93739 4.87541,12.1789 -4e-5,5.24158 -1.80503,9.53245 -5.41498,12.87262 -3.61002,3.34023 -8.48543,5.01033 -14.62623,5.01031 z m 0,-28.5202 0,22.66199 6.78319,0 c 4.4707,3e-5 7.88156,-1.0213 10.23258,-3.06399 2.35095,-2.04263 3.52645,-4.92676 3.52648,-8.65241 -3e-5,-7.29701 -4.3166,-10.94554 -12.94971,-10.94559 z"
         id="path3058"
         style="text-align:start;line-height:125%;writing-mode:lr-tb;text-anchor:start;font-family:Segoe UI;-inkscape-font-specification:Segoe UI" />
      <path
         d="m 373.16486,934.37511 -22.16096,0 0,49.25514 -6.51339,0 0,-55.26751 28.67435,0 z"
         id="path3060"
         style="text-align:start;line-height:125%;writing-mode:lr-tb;text-anchor:start;font-family:Segoe UI;-inkscape-font-specification:Segoe UI" />
    </g>
    <g
       id="text2991"
       style="font-size:78.9315567px;font-style:normal;font-variant:normal;font-weight:normal;font-stretch:normal;line-height:125%;letter-spacing:0px;word-spacing:0px;fill:#000000;fill-opacity:1;stroke:none;font-family:Segoe UI;-inkscape-font-specification:Segoe UI">
      <path
         d="m 331.86561,1048.3622 -7.70816,0 -9.24979,-15.4934 c -0.84793,-1.4389 -1.67013,-2.6657 -2.46661,-3.6807 -0.79654,-1.0149 -1.61232,-1.8435 -2.44734,-2.4858 -0.83508,-0.6424 -1.73436,-1.1113 -2.69786,-1.4068 -0.96354,-0.2954 -2.0491,-0.4432 -3.2567,-0.4432 l -5.31863,0 0,23.5099 -6.47485,0 0,-55.26752 16.49546,0 c 2.4152,5e-5 4.64414,0.30195 6.68683,0.90571 2.04263,0.60385 3.81551,1.52241 5.31863,2.75566 1.50306,1.23336 2.67855,2.76857 3.52648,4.60565 0.84786,1.8371 1.27181,3.989 1.27185,6.4556 -4e-5,1.927 -0.2891,3.6935 -0.86717,5.2993 -0.57815,1.6059 -1.40035,3.0384 -2.46661,4.2973 -1.06633,1.2591 -2.35102,2.3318 -3.85408,3.2182 -1.50312,0.8864 -3.19249,1.5738 -5.06811,2.0619 l 0,0.1542 c 0.92495,0.4111 1.72788,0.88 2.4088,1.4067 0.68085,0.5268 1.32962,1.1498 1.94631,1.8692 0.61662,0.7195 1.22685,1.5353 1.83068,2.4474 0.60378,0.9121 1.27824,1.972 2.0234,3.1796 z m -33.14509,-49.40932 0,20.04122 8.78731,0 c 1.61869,0 3.11535,-0.2441 4.49,-0.7323 1.37459,-0.4881 2.56293,-1.1883 3.56502,-2.1005 1.00203,-0.9121 1.7857,-2.0297 2.35099,-3.353 0.56523,-1.3232 0.84787,-2.807 0.8479,-4.4515 -3e-5,-2.9547 -0.95713,-5.2607 -2.87129,-6.918 -1.91422,-1.65725 -4.68273,-2.48587 -8.30554,-2.48592 z"
         id="path3053"
         style="text-align:start;line-height:125%;writing-mode:lr-tb;text-anchor:start;font-family:Segoe UI;-inkscape-font-specification:Segoe UI" />
      <path
         d="m 380.73535,1044.5852 c -5.54992,3.1346 -11.71644,4.702 -18.49959,4.702 -7.88804,0 -14.26653,-2.5437 -19.1355,-7.6311 -4.869,-5.0874 -7.30349,-11.8192 -7.30349,-20.1954 0,-8.556 2.70428,-15.5769 8.11284,-21.0625 5.40854,-5.48563 12.26238,-8.22845 20.56152,-8.2285 6.01232,5e-5 11.06116,0.97642 15.14653,2.9291 l 0,7.1686 c -4.47077,-2.82629 -9.7637,-4.23945 -15.87881,-4.2395 -6.19224,5e-5 -11.26678,2.1326 -15.22361,6.3978 -3.95687,4.2652 -5.9353,9.7894 -5.93529,16.5725 -10e-6,6.9888 1.8371,12.4808 5.51134,16.4762 3.6742,3.9954 8.65881,5.9931 14.95383,5.9931 4.31653,0 8.05499,-0.8607 11.21537,-2.5822 l 0,-15.4934 -12.10181,0 0,-5.8582 18.57667,0 z"
         id="path3055"
         style="text-align:start;line-height:125%;writing-mode:lr-tb;text-anchor:start;font-family:Segoe UI;-inkscape-font-specification:Segoe UI" />
    </g>
    <g
       id="text2995"
       style="font-size:110.04914093px;font-style:normal;font-variant:normal;font-weight:normal;font-stretch:normal;line-height:125%;letter-spacing:0px;word-spacing:0px;fill:#000000;fill-opacity:1;stroke:none;font-family:Segoe UI;-inkscape-font-specification:Segoe UI">
      <path
         d="m 404.92416,1005.3945 -7.14675,0 0,-77.05592 7.14675,0 z"
         id="path3050"
         style="font-weight:300;text-align:start;line-height:125%;writing-mode:lr-tb;text-anchor:start;font-family:Segoe UI Semilight;-inkscape-font-specification:Segoe UI Semilight Light" />
    </g>
    <g
       id="text2999"
       style="font-size:48.91478729px;font-style:normal;font-variant:normal;font-weight:normal;font-stretch:normal;line-height:125%;letter-spacing:0px;word-spacing:0px;fill:#000000;fill-opacity:1;stroke:none;font-family:Segoe UI;-inkscape-font-specification:Segoe UI">
      <path
         d="m 450.03157,962.59924 -6.23377,0 -3.08105,-8.71772 -13.47068,0 -2.96164,8.71772 -6.20988,0 12.8258,-34.2499 6.40096,0 z m -10.81953,-13.35125 -4.75295,-13.66175 c -0.14332,-0.44581 -0.29459,-1.16233 -0.4538,-2.14957 l -0.0955,0 c -0.14333,0.90762 -0.30255,1.62415 -0.47769,2.14957 l -4.70518,13.66175 z"
         id="path3047"
         style="font-weight:600;text-align:start;line-height:125%;writing-mode:lr-tb;text-anchor:start;font-family:Segoe UI Semibold;-inkscape-font-specification:'Segoe UI Semibold, Semi-Bold'" />
    </g>
    <g
       id="text3003"
       style="font-size:48.91478729px;font-style:normal;font-variant:normal;font-weight:normal;font-stretch:normal;line-height:125%;letter-spacing:0px;word-spacing:0px;fill:#000000;fill-opacity:1;stroke:none;font-family:Segoe UI;-inkscape-font-specification:Segoe UI">
      <path
         d="m 442.4784,1005.4807 -19.22676,0 0,-34.24989 18.46246,0 0,4.8246 -12.77803,0 0,9.69698 11.7749,0 0,4.80071 -11.7749,0 0,10.1269 13.54233,0 z"
         id="path3044"
         style="font-weight:600;text-align:start;line-height:125%;writing-mode:lr-tb;text-anchor:start;font-family:Segoe UI Semibold;-inkscape-font-specification:'Segoe UI Semibold, Semi-Bold'" />
    </g>
    <g
       id="text3007"
       style="font-size:48.91478729px;font-style:normal;font-variant:normal;font-weight:normal;font-stretch:normal;line-height:125%;letter-spacing:0px;word-spacing:0px;fill:#000000;fill-opacity:1;stroke:none;font-family:Segoe UI;-inkscape-font-specification:Segoe UI">
      <path
         d="m 426.59749,1014.1123 -11.22556,21.8062 0,12.4437 -5.68443,0 0,-12.3243 -10.93895,-21.9256 6.47261,0 6.73533,14.6887 c 0.0796,0.1752 0.31845,0.836 0.71653,1.9824 l 0.0716,0 c 0.14329,-0.5095 0.40602,-1.1703 0.78818,-1.9824 l 7.04583,-14.6887 z"
         id="path3041"
         style="font-weight:600;text-align:start;line-height:125%;writing-mode:lr-tb;text-anchor:start;font-family:Segoe UI Semibold;-inkscape-font-specification:'Segoe UI Semibold, Semi-Bold'" />
    </g>
  </g>
</svg>
