<?xml version="1.0" encoding="UTF-8" standalone="no"?>
<!-- Created with Inkscape (http://www.inkscape.org/) -->

<svg
   xmlns:dc="http://purl.org/dc/elements/1.1/"
   xmlns:cc="http://creativecommons.org/ns#"
   xmlns:rdf="http://www.w3.org/1999/02/22-rdf-syntax-ns#"
   xmlns:svg="http://www.w3.org/2000/svg"
   xmlns="http://www.w3.org/2000/svg"
   version="1.1"
   width="320"
   height="280"
   id="svg2">
  <defs
     id="defs4" />
  <metadata
     id="metadata7">
    <rdf:RDF>
      <cc:Work
         rdf:about="">
        <dc:format>image/svg+xml</dc:format>
        <dc:type
           rdf:resource="http://purl.org/dc/dcmitype/StillImage" />
        <dc:title></dc:title>
      </cc:Work>
    </rdf:RDF>
  </metadata>
  <g
     transform="translate(0,-772.3622)"
     id="layer1">
    <g
       transform="scale(0.88857769,1.125394)"
       id="text2995"
       style="font-size:229.20350647px;font-style:normal;font-variant:normal;font-weight:normal;font-stretch:normal;text-align:center;line-height:125%;letter-spacing:0px;word-spacing:0px;text-anchor:middle;fill:#000000;fill-opacity:1;stroke:none;font-family:Segoe UI;-inkscape-font-specification:Segoe UI">
      <path
         d="m 101.63,873.06586 -85.055988,0 0,-160.48722 81.474684,0 0,17.01119 -62.672834,0 0,53.38383 57.972372,0 0,16.89928 -57.972372,0 0,56.18172 66.254138,0 z"
         id="path3060"
         style="font-family:Segoe WP;-inkscape-font-specification:Segoe WP" />
    </g>
    <g
       transform="scale(0.55763749,1.7932797)"
       id="text2999"
       style="font-size:146.30070496px;font-style:normal;font-variant:normal;font-weight:normal;font-stretch:normal;text-align:center;line-height:125%;letter-spacing:0px;word-spacing:0px;text-anchor:middle;fill:#000000;fill-opacity:1;stroke:none;font-family:Segoe UI;-inkscape-font-specification:Segoe UI">
      <path
         d="m 239.06781,546.92908 -11.71548,0 0,-41.71856 c -7e-5,-15.52535 -5.66731,-23.28804 -17.00175,-23.2881 -5.85778,6e-5 -10.70351,2.20267 -14.5372,6.60782 -3.83375,4.40526 -5.75061,9.96535 -5.75059,16.68028 l 0,41.71856 -11.71549,0 0,-73.15036 11.71549,0 0,12.14411 0.28574,0 c 5.52435,-9.23898 13.52516,-13.85849 24.00246,-13.85857 8.00077,8e-5 14.12044,2.58367 18.35903,7.7508 4.23846,5.16726 6.35772,12.6323 6.35779,22.39515 z"
         id="path3051" />
      <path
         d="m 320.00467,513.28277 -51.64815,0 c 0.19048,8.14372 2.38118,14.43007 6.57211,18.85908 4.19087,4.42903 9.95336,6.64354 17.28748,6.64354 8.23889,0 15.81109,-2.71456 22.71662,-8.1437 l 0,11.00113 c -6.42929,4.66715 -14.93016,7.00072 -25.50262,7.00072 -10.33442,0 -18.45429,-3.32177 -24.35964,-9.96531 -5.90537,-6.64352 -8.85805,-15.98971 -8.85805,-28.03859 0,-11.38207 3.22651,-20.65682 9.67957,-27.82428 6.45302,-7.16732 14.46573,-10.75102 24.03817,-10.7511 9.57236,8e-5 16.97788,3.09563 22.21657,9.28667 5.23856,6.19117 7.85787,14.78728 7.85794,25.78836 z m -12.00123,-9.92959 c -0.0477,-6.76254 -1.6788,-12.02498 -4.89335,-15.78733 -3.21467,-3.76223 -7.67941,-5.64337 -13.39423,-5.64343 -5.52441,6e-5 -10.21537,1.97645 -14.07287,5.92918 -3.85757,3.95284 -6.23876,9.12003 -7.14359,15.50158 z"
         id="path3053" />
      <path
         d="m 375.93899,485.63708 c -2.04788,-1.57152 -5.00056,-2.35732 -8.85805,-2.35738 -5.00055,6e-5 -9.17955,2.35744 -12.537,7.07215 -3.35752,4.71482 -5.03626,11.14405 -5.03623,19.28769 l 0,37.28954 -11.71549,0 0,-73.15036 11.71549,0 0,15.07298 0.28574,0 c 1.66681,-5.14332 4.21469,-9.15564 7.64364,-12.03695 3.42889,-2.88117 7.26261,-4.3218 11.50118,-4.32187 3.04788,7e-5 5.38145,0.33344 7.00072,1.0001 z"
         id="path3055" />
      <path
         d="m 451.08954,541.07133 c -8e-5,26.85988 -12.85852,40.28981 -38.57538,40.28985 -9.04858,-4e-5 -16.95414,-1.7145 -23.71672,-5.14339 l 0,-11.71548 c 8.23892,4.57187 16.09686,6.85782 23.57385,6.85784 18.00179,-2e-5 27.0027,-9.57242 27.00276,-28.71723 l 0,-8.00082 -0.28574,0 c -5.57206,9.3343 -13.95386,14.00144 -25.14543,14.00144 -9.0962,0 -16.41837,-3.25033 -21.96654,-9.751 -5.5482,-6.50065 -8.32229,-15.22773 -8.32228,-26.18125 -1e-5,-12.4298 2.98839,-22.31176 8.9652,-29.6459 5.97678,-7.33401 14.15618,-11.00105 24.53823,-11.00113 9.8581,8e-5 17.16837,3.95286 21.93082,11.85836 l 0.28574,0 0,-10.1439 11.71549,0 z m -11.71549,-27.21707 0,-10.78682 c -6e-5,-5.81007 -1.96454,-10.78676 -5.89346,-14.9301 -3.92902,-4.14322 -8.82238,-6.21486 -14.68007,-6.21492 -7.23888,6e-5 -12.90612,2.63128 -17.00175,7.89366 -4.09567,5.2625 -6.1435,12.63229 -6.14348,22.10941 -2e-5,8.14372 1.96446,14.65628 5.89346,19.53772 3.92894,4.88146 9.13185,7.32218 15.60874,7.32218 6.57206,0 11.91784,-2.33357 16.03736,-7.00072 4.11941,-4.66713 6.17914,-10.64392 6.1792,-17.93041 z"
         id="path3057" />
    </g>
    <g
       transform="scale(0.894635,1.1177743)"
       id="text3003"
       style="font-size:104.27545929px;font-style:normal;font-variant:normal;font-weight:normal;font-stretch:normal;text-align:center;line-height:125%;letter-spacing:0px;word-spacing:0px;text-anchor:middle;fill:#000000;fill-opacity:1;stroke:none;font-family:Segoe UI;-inkscape-font-specification:Segoe UI">
      <path
         d="m 299.15612,813.36954 c -1.49354,6e-5 -2.76643,-0.5091 -3.81868,-1.52748 -1.05227,-1.01824 -1.57839,-2.30811 -1.57839,-3.86959 0,-1.56135 0.52612,-2.8597 1.57839,-3.89506 1.05225,-1.03521 2.32514,-1.55285 3.81868,-1.55293 1.52746,8e-5 2.82581,0.51772 3.89506,1.55293 1.06921,1.03536 1.60383,2.33371 1.60384,3.89506 -10e-6,1.49359 -0.53463,2.76649 -1.60384,3.81868 -1.06925,1.05232 -2.3676,1.57845 -3.89506,1.57839 z m 4.07326,65.37582 -8.35018,0 0,-52.13773 8.35018,0 z"
         id="path3048" />
    </g>
    <g
       transform="scale(0.90005853,1.1110389)"
       id="text3007"
       style="font-size:52.20339584px;font-style:normal;font-variant:normal;font-weight:normal;font-stretch:normal;text-align:center;line-height:125%;letter-spacing:0px;word-spacing:0px;text-anchor:middle;fill:#000000;fill-opacity:1;stroke:none;font-family:Segoe UI;-inkscape-font-specification:Segoe UI">
      <path
         d="m 334.03305,882.67163 -4.18035,0 0,-4.07839 -0.10196,0 c -1.8183,3.12677 -4.49474,4.69015 -8.02933,4.69015 -2.59999,0 -4.63493,-0.68823 -6.10484,-2.06469 -1.46993,-1.37645 -2.20489,-3.20323 -2.20488,-5.48033 -1e-5,-4.87707 2.87186,-7.71494 8.6156,-8.51364 l 7.82541,-1.09607 c -2e-5,-4.43523 -1.79281,-6.65285 -5.37838,-6.65287 -3.14377,2e-5 -5.98165,1.0706 -8.51364,3.21173 l 0,-4.28231 c 2.56598,-1.63133 5.52281,-2.44701 8.8705,-2.44704 6.13456,3e-5 9.20184,3.24575 9.20187,9.73716 z m -4.18035,-13.20379 -6.29602,0.86666 c -1.93724,0.2719 -3.39867,0.75196 -4.38427,1.44018 -0.98562,0.68824 -1.47842,1.90751 -1.47841,3.65781 -1e-5,1.2745 0.45456,2.31534 1.36371,3.12252 0.90913,0.80718 2.1199,1.21077 3.63231,1.21077 2.07317,0 3.78524,-0.72646 5.13623,-2.17939 1.35095,-1.45292 2.02643,-3.29244 2.02645,-5.51857 z"
         id="path3045" />
    </g>
    <g
       transform="scale(0.88135624,1.134615)"
       id="text3011"
       style="font-size:51.11865997px;font-style:normal;font-variant:normal;font-weight:normal;font-stretch:normal;text-align:center;line-height:125%;letter-spacing:0px;word-spacing:0px;text-anchor:middle;fill:#000000;fill-opacity:1;stroke:none;font-family:Segoe UI;-inkscape-font-specification:Segoe UI">
      <path
         d="m 340.38449,805.86248 -18.04628,0 c 0.0666,2.84548 0.832,5.04198 2.29634,6.58952 1.46433,1.54754 3.47779,2.3213 6.04039,2.3213 2.87874,0 5.52452,-0.94848 7.93737,-2.84547 l 0,3.84388 c -2.24644,1.63074 -5.21671,2.44611 -8.91082,2.44611 -3.61093,0 -6.44808,-1.16065 -8.51146,-3.48196 -2.06338,-2.3213 -3.09507,-5.58693 -3.09507,-9.79691 0,-3.97699 1.12737,-7.21766 3.38212,-9.72203 2.25474,-2.50432 5.05444,-3.7565 8.39913,-3.75652 3.34466,2e-5 5.93221,1.08163 7.76265,3.24483 1.8304,2.16325 2.74561,5.1668 2.74563,9.01067 z m -4.19333,-3.46948 c -0.0167,-2.36289 -0.58658,-4.20163 -1.70977,-5.51622 -1.12323,-1.31455 -2.68325,-1.97184 -4.68006,-1.97186 -1.93027,2e-5 -3.56933,0.69059 -4.91717,2.0717 -1.34787,1.38116 -2.17988,3.18661 -2.49603,5.41638 z"
         id="path3042" />
    </g>
    <g
       transform="scale(1.0341148,0.96701062)"
       id="text3015"
       style="font-size:59.97866058px;font-style:normal;font-variant:normal;font-weight:normal;font-stretch:normal;text-align:center;line-height:125%;letter-spacing:0px;word-spacing:0px;text-anchor:middle;fill:#000000;fill-opacity:1;stroke:none;font-family:Segoe UI;-inkscape-font-specification:Segoe UI">
      <path
         d="m 286.23515,874.05107 -13.79392,34.79231 c -2.46007,6.20872 -5.91587,9.31308 -10.36741,9.3131 -1.24955,-2e-5 -2.2941,-0.12693 -3.13365,-0.38073 l 0,-4.30511 c 1.03479,0.35143 1.98172,0.52715 2.84079,0.52716 2.42101,-10e-6 4.23677,-1.44481 5.44728,-4.3344 l 2.40149,-5.68157 -11.71458,-29.93076 5.33013,0 8.11235,23.07773 c 0.0976,0.29287 0.30261,1.05432 0.61502,2.28435 l 0.17572,0 c 0.0976,-0.46858 0.29284,-1.21051 0.58572,-2.22578 l 8.52236,-23.1363 z"
         id="path3039" />
    </g>
    <g
       transform="scale(1.0185079,0.98182839)"
       id="text3019"
       style="font-size:59.07345963px;font-style:normal;font-variant:normal;font-weight:normal;font-stretch:normal;text-align:center;line-height:125%;letter-spacing:0px;word-spacing:0px;text-anchor:middle;fill:#000000;fill-opacity:1;stroke:none;font-family:Segoe UI;-inkscape-font-specification:Segoe UI">
      <path
         d="m 108.41073,845.91345 -4.73049,0 -11.768539,-29.53673 5.220848,0 9.662891,25.037 c 5.23045,-6.59576 7.84567,-12.92231 7.8457,-18.97966 -3e-5,-2.34599 -0.32693,-4.3651 -0.98071,-6.05734 l 5.10547,0 c 0.44225,1.34611 0.66339,3.13446 0.66342,5.36507 -3e-5,7.26882 -3.67289,15.32604 -11.01859,24.17166 z"
         id="path3024" />
      <path
         d="m 146.45658,845.27887 c -2.49987,0.9038 -5.62469,1.35569 -9.37445,1.35569 -3.74979,0 -6.70635,-0.79322 -8.86967,-2.37966 -2.16334,-1.58645 -3.24501,-3.6969 -3.245,-6.33136 -1e-5,-1.78835 0.66822,-3.33634 2.00469,-4.64396 1.33645,-1.3076 3.10077,-2.16332 5.29295,-2.56716 l 0,-0.11538 c -1.65375,-0.34612 -3.09597,-1.13934 -4.32666,-2.37967 -1.23071,-1.24029 -1.84605,-2.65847 -1.84605,-4.25455 0,-2.61521 1.02397,-4.65355 3.07194,-6.11503 2.04794,-1.46142 4.78336,-2.19215 8.20624,-2.19218 2.74983,3e-5 5.34582,0.4327 7.78801,1.298 l 0,4.75934 c -2.55756,-1.36528 -5.24971,-2.04793 -8.07645,-2.04796 -4.13438,3e-5 -6.20157,1.4134 -6.20156,4.24014 -1e-5,1.44224 0.77879,2.60563 2.3364,3.49018 1.55759,0.88458 3.53824,1.32686 5.94196,1.32684 1.40375,2e-5 2.53829,-0.0384 3.40365,-0.11538 l 0,4.2113 c -1.40378,-0.0769 -2.74986,-0.11537 -4.03823,-0.11538 -5.84582,1e-5 -8.76872,1.71145 -8.76871,5.13431 -1e-5,1.44223 0.67783,2.60082 2.03353,3.47576 1.35568,0.87495 3.26422,1.31243 5.72563,1.31242 3.21133,10e-6 6.19192,-0.70187 8.94178,-2.10564 z m -3.46134,-43.69936 -5.04778,10.47054 -2.71138,0 2.94214,-10.47054 z"
         id="path3026" />
      <path
         d="m 157.90783,843.05785 -0.11538,0 0,14.27801 -4.70164,0 0,-26.5946 c -1e-5,-4.7497 1.10569,-8.44659 3.31711,-11.09069 2.2114,-2.64405 5.45159,-3.96608 9.72058,-3.96611 4.28819,3e-5 7.72068,1.4134 10.29748,4.24013 2.57674,2.82678 3.86512,6.40349 3.86515,10.73014 -3e-5,5.01895 -1.18746,8.93218 -3.56229,11.7397 -2.37488,2.80753 -5.68719,4.21129 -9.93692,4.21129 -3.71133,0 -6.67269,-1.18262 -8.88409,-3.54787 z m -0.11538,-4.61511 c 0.74995,1.19224 1.91334,2.17776 3.49018,2.95655 1.57682,0.77881 3.22095,1.16821 4.93241,1.1682 6.115,10e-6 9.17251,-3.88438 9.17253,-11.65316 -2e-5,-3.26902 -0.85574,-5.95155 -2.56715,-8.0476 -1.71146,-2.09601 -3.91325,-3.14402 -6.60538,-3.14405 -2.74986,3e-5 -4.84108,0.95189 -6.27367,2.8556 -1.43262,1.90376 -2.14893,4.64398 -2.14892,8.22067 z"
         id="path3028" />
      <path
         d="m 199.41501,847.90372 c -1e-5,6.15348 -0.0385,10.11478 -0.11537,11.88392 l -5.04778,0 c 0.28843,-3.24982 0.43265,-8.00915 0.43266,-14.27801 -0.76919,-4.13437 -2.28833,-9.0908 -4.55742,-14.86932 -2.2691,-5.77849 -4.57666,-10.53301 -6.92267,-14.26359 l 5.42276,0 c 4.78817,8.53798 8.08605,17.00863 9.89365,25.41197 l 0.11537,0 c 3.19211,-4.69202 5.38909,-8.68697 6.59096,-11.98487 1.20183,-3.29786 1.80276,-6.52363 1.80278,-9.67732 -2e-5,-1.19221 -0.0962,-2.44213 -0.28844,-3.74978 l 4.9324,0 c 0.11535,1.0192 0.17304,1.83646 0.17307,2.45178 -3e-5,2.5768 -0.28848,5.10549 -0.86534,7.5861 -0.57691,2.48064 -1.4759,4.93722 -2.69695,7.36976 -1.22111,2.43255 -2.30278,4.33148 -3.24501,5.69678 z"
         id="path3030" />
      <path
         d="m 237.60508,845.27887 c -2.49987,0.9038 -5.62469,1.35569 -9.37445,1.35569 -3.74979,0 -6.70634,-0.79322 -8.86967,-2.37966 -2.16334,-1.58645 -3.24501,-3.6969 -3.245,-6.33136 -1e-5,-1.78835 0.66822,-3.33634 2.00469,-4.64396 1.33645,-1.3076 3.10077,-2.16332 5.29296,-2.56716 l 0,-0.11538 c -1.65376,-0.34612 -3.09598,-1.13934 -4.32667,-2.37967 -1.23071,-1.24029 -1.84605,-2.65847 -1.84605,-4.25455 0,-2.61521 1.02397,-4.65355 3.07194,-6.11503 2.04794,-1.46142 4.78336,-2.19215 8.20625,-2.19218 2.74982,3e-5 5.34582,0.4327 7.788,1.298 l 0,4.75934 c -2.55756,-1.36528 -5.24971,-2.04793 -8.07645,-2.04796 -4.13438,3e-5 -6.20157,1.4134 -6.20156,4.24014 -1e-5,1.44224 0.77879,2.60563 2.3364,3.49018 1.55759,0.88458 3.53824,1.32686 5.94196,1.32684 1.40375,2e-5 2.5383,-0.0384 3.40365,-0.11538 l 0,4.2113 c -1.40378,-0.0769 -2.74986,-0.11537 -4.03823,-0.11538 -5.84582,1e-5 -8.76872,1.71145 -8.76871,5.13431 -1e-5,1.44223 0.67783,2.60082 2.03353,3.47576 1.35568,0.87495 3.26422,1.31243 5.72563,1.31242 3.21133,10e-6 6.19192,-0.70187 8.94178,-2.10564 z"
         id="path3032" />
      <path
         d="m 254.59447,845.62501 c -1.19225,0.42305 -2.35564,0.63458 -3.49018,0.63458 -4.48051,0 -6.72076,-2.66331 -6.72076,-7.98992 l 0,-21.89295 4.70165,0 0,21.74873 c -1e-5,2.65369 0.97109,3.98054 2.91329,3.98053 0.80763,10e-6 1.67297,-0.17306 2.596,-0.5192 z"
         id="path3034" />
      <path
         d="m 290.6212,845.76923 c -1.0192,0.24999 -1.93261,0.37498 -2.74022,0.37498 -2.96139,0 -4.96127,-2.81714 -5.99965,-8.45143 l -0.11538,0 c -2.84601,5.94196 -6.82654,8.91294 -11.9416,8.91294 -3.57673,0 -6.44194,-1.37973 -8.59565,-4.13918 -2.15373,-2.75945 -3.23059,-6.24482 -3.23058,-10.45612 -10e-6,-4.80739 1.24031,-8.73023 3.72093,-11.76854 2.48062,-3.03825 5.83619,-4.55739 10.06672,-4.55742 2.42292,3e-5 4.58625,0.72114 6.49,2.16333 1.90371,1.44225 3.34594,3.47097 4.32667,6.08618 l 0.11538,0 2.45178,-7.55725 4.96125,0 -5.56698,14.47992 c 0.65378,4.21131 1.34604,7.07171 2.0768,8.58123 0.73069,1.50953 1.67294,2.26429 2.82676,2.26429 0.44224,0 0.82684,-0.0481 1.15377,-0.14422 z m -10.03787,-14.8549 c -0.73075,-3.65361 -1.84607,-6.45152 -3.34596,-8.39374 -1.49993,-1.94217 -3.30751,-2.91326 -5.42276,-2.91329 -2.73062,3e-5 -4.90837,1.16342 -6.53327,3.49018 -1.62491,2.32681 -2.43736,5.20164 -2.43735,8.6245 -1e-5,3.03829 0.68745,5.58622 2.06238,7.64378 1.3749,2.05758 3.22576,3.08636 5.55256,3.08636 2.03832,0 3.88917,-0.87014 5.55255,-2.61043 1.66335,-1.74027 3.05269,-4.30262 4.16803,-7.68705 z"
         id="path3036" />
    </g>
  </g>
</svg>
