<?xml version="1.0" encoding="UTF-8" standalone="no"?>
<!-- Created with Inkscape (http://www.inkscape.org/) -->

<svg
   xmlns:dc="http://purl.org/dc/elements/1.1/"
   xmlns:cc="http://creativecommons.org/ns#"
   xmlns:rdf="http://www.w3.org/1999/02/22-rdf-syntax-ns#"
   xmlns:svg="http://www.w3.org/2000/svg"
   xmlns="http://www.w3.org/2000/svg"
   version="1.1"
   width="464"
   height="128"
   id="svg2">
  <defs
     id="defs4" />
  <metadata
     id="metadata7">
    <rdf:RDF>
      <cc:Work
         rdf:about="">
        <dc:format>image/svg+xml</dc:format>
        <dc:type
           rdf:resource="http://purl.org/dc/dcmitype/StillImage" />
        <dc:title></dc:title>
      </cc:Work>
    </rdf:RDF>
  </metadata>
  <g
     transform="translate(0,-924.36218)"
     id="layer1">
    <g
       id="text2983"
       style="font-size:171.448349px;font-style:normal;font-variant:normal;font-weight:normal;font-stretch:normal;line-height:125%;letter-spacing:0px;word-spacing:0px;fill:#000000;fill-opacity:1;stroke:none;font-family:Segoe UI;-inkscape-font-specification:Segoe UI">
      <path
         d="m 7.4006777,1048.3622 0,-120.04735 56.0890593,0 0,7.61807 -47.801273,0 0,48.13613 44.368958,0 0,7.53435 -44.368958,0 0,49.2244 50.563869,0 0,7.5344 z"
         id="path3022"
         style="font-weight:300;text-align:start;line-height:125%;writing-mode:lr-tb;text-anchor:start;font-family:Segoe UI Light;-inkscape-font-specification:'Segoe UI Light, Light'" />
      <path
         d="m 178.01188,1048.3622 -71.49263,-97.02572 c -1.45108,-1.95325 -2.73471,-3.9066 -3.85089,-5.86005 l -1.08829,-1.6743 -0.33486,0 c 0.11159,1.45116 0.1674,3.20918 0.16743,5.27405 l 0,99.28602 -8.287788,0 0,-120.04735 6.362341,0 70.990337,96.18855 c 1.56258,2.1208 3.26478,4.6881 5.10661,7.7018 l 0.41858,0 c -0.27915,-3.9067 -0.41868,-7.2553 -0.41858,-10.0458 l 0,-93.84455 8.28779,0 0,120.04735 z"
         id="path3024"
         style="font-weight:300;text-align:start;line-height:125%;writing-mode:lr-tb;text-anchor:start;font-family:Segoe UI Light;-inkscape-font-specification:'Segoe UI Light, Light'" />
      <path
         d="m 214.67906,1048.3622 0,-120.04735 56.08906,0 0,7.61807 -47.80127,0 0,48.13613 44.36895,0 0,7.53435 -44.36895,0 0,49.2244 50.56386,0 0,7.5344 z"
         id="path3026"
         style="font-weight:300;text-align:start;line-height:125%;writing-mode:lr-tb;text-anchor:start;font-family:Segoe UI Light;-inkscape-font-specification:'Segoe UI Light, Light'" />
    </g>
    <g
       id="text2987"
       style="font-size:78.9315567px;font-style:normal;font-variant:normal;font-weight:600;font-stretch:normal;text-align:start;line-height:125%;letter-spacing:0px;word-spacing:0px;writing-mode:lr-tb;text-anchor:start;fill:#000000;fill-opacity:1;stroke:none;font-family:Segoe UI Semibold;-inkscape-font-specification:'Segoe UI Semibold, Semi-Bold'">
      <path
         d="m 295.91602,958.88367 0,18.52539 -5.74219,0 0,-49.01367 13.46679,0 c 5.24087,4e-5 9.30255,1.27609 12.18506,3.82812 2.88246,2.55213 4.3237,6.15238 4.32373,10.80078 -3e-5,4.64847 -1.60078,8.4538 -4.80224,11.41602 -3.20153,2.96226 -7.52525,4.44338 -12.97119,4.44336 z m 0,-25.29297 0,20.09765 6.01562,0 c 3.96482,3e-5 6.98972,-0.90573 9.07471,-2.71728 2.08493,-1.8115 3.12741,-4.36927 3.12744,-7.67334 -3e-5,-6.47131 -3.82815,-9.70699 -11.48438,-9.70703 z"
         id="path3015"
         style="font-size:70px;font-weight:normal;line-height:125%;font-family:Segoe UI;-inkscape-font-specification:Segoe UI" />
      <path
         d="m 354.8418,933.72742 -19.65332,0 0,43.68164 -5.77637,0 0,-49.01367 25.42969,0 z"
         id="path3017"
         style="font-size:70px;font-weight:normal;line-height:125%;font-family:Segoe UI;-inkscape-font-specification:Segoe UI" />
      <path
         d="m 388.47461,977.40906 -25.97656,0 0,-49.01367 24.88281,0 0,5.19531 -19.14063,0 0,16.30371 17.70508,0 0,5.16113 -17.70508,0 0,17.15821 20.23438,0 z"
         id="path3019"
         style="font-size:70px;font-weight:normal;line-height:125%;font-family:Segoe UI;-inkscape-font-specification:Segoe UI" />
    </g>
    <g
       id="text2991"
       style="font-size:78.9315567px;font-style:normal;font-variant:normal;font-weight:300;font-stretch:normal;text-align:start;line-height:125%;letter-spacing:0px;word-spacing:0px;writing-mode:lr-tb;text-anchor:start;fill:#000000;fill-opacity:1;stroke:none;font-family:Segoe UI Semilight;-inkscape-font-specification:Segoe UI Semilight Light">
      <path
         d="m 324.49512,1048.3622 -9.49219,-18.0615 c -0.93753,-1.7871 -1.84573,-3.2813 -2.72461,-4.4825 -0.87894,-1.2011 -1.78714,-2.1606 -2.72461,-2.8784 -0.93753,-0.7177 -1.94094,-1.2304 -3.01025,-1.5381 -1.06936,-0.3076 -2.26321,-0.4614 -3.58155,-0.4614 l -6.94336,0 0,27.4219 -5.84472,0 0,-63.0176 18.14941,0 c 2.37302,7e-5 4.6655,0.35163 6.87744,1.05469 2.21188,0.70319 4.1821,1.74323 5.91065,3.12012 1.72847,1.37701 3.11275,3.10552 4.15283,5.18555 1.03999,2.08013 1.56001,4.49712 1.56006,7.25094 -5e-5,2.2266 -0.33696,4.2774 -1.01074,6.1524 -0.67387,1.875 -1.63335,3.5376 -2.87842,4.9878 -1.24516,1.4502 -2.75395,2.6807 -4.52637,3.6914 -1.77249,1.0107 -3.772,1.7651 -5.99853,2.2632 l 0,0.1757 c 0.84957,0.3516 1.62594,0.8057 2.3291,1.3623 0.70309,0.5567 1.38424,1.2305 2.04345,2.0215 0.65915,0.7911 1.311,1.6993 1.95557,2.7246 0.6445,1.0255 1.31832,2.1973 2.02149,3.5157 l 10.59082,19.5117 z m -28.47657,-57.65627 0,24.91697 10.45899,0 c 2.10935,1e-4 4.04294,-0.3076 5.80078,-0.9228 1.75778,-0.6152 3.25924,-1.4941 4.50439,-2.6367 1.24509,-1.1426 2.21188,-2.5195 2.9004,-4.1309 0.68843,-1.6113 1.03267,-3.4277 1.03271,-5.4492 -4e-5,-3.66208 -1.17924,-6.5405 -3.5376,-8.63528 -2.35843,-2.09467 -5.76419,-3.14203 -10.21728,-3.14209 z"
         id="path3010"
         style="font-size:90px;line-height:125%;font-family:Segoe UI Semilight;-inkscape-font-specification:Segoe UI Semilight Light" />
      <path
         d="m 388.34766,1044.0116 c -6.47466,3.6328 -13.33012,5.4492 -20.56641,5.4492 -4.57034,0 -8.6719,-0.7837 -12.30469,-2.3511 -3.63283,-1.5673 -6.72365,-3.75 -9.27246,-6.5478 -2.54884,-2.7979 -4.5044,-6.1377 -5.8667,-10.0195 -1.36231,-3.8819 -2.04346,-8.1519 -2.04345,-12.8101 -10e-6,-3.0761 0.32958,-6.0351 0.98876,-8.877 0.65918,-2.8417 1.62597,-5.5077 2.9004,-7.998 1.2744,-2.49018 2.83446,-4.74604 4.68017,-6.76758 1.84569,-2.02143 3.96239,-3.76459 6.3501,-5.22949 2.38767,-1.46478 5.01706,-2.59271 7.88818,-3.38379 2.87107,-0.79095 5.96188,-1.18646 9.27246,-1.18652 6.2402,6e-5 11.8066,1.11334 16.69922,3.33984 l 0,6.45996 c -5.39067,-2.98822 -11.19145,-4.48236 -17.40234,-4.48242 -3.83792,6e-5 -7.3096,0.70318 -10.41504,2.10937 -3.10549,1.40631 -5.74953,3.3399 -7.93213,5.80079 -2.18263,2.46098 -3.87452,5.36874 -5.07568,8.72314 -1.20119,3.3545 -1.81642,6.9947 -1.84571,10.9204 -0.0293,3.8965 0.47607,7.4927 1.51612,10.7886 1.04002,3.2959 2.58543,6.145 4.63623,8.5473 2.05076,2.4024 4.58494,4.2774 7.60254,5.625 3.01755,1.3477 6.50387,2.0215 10.45898,2.0215 5.33199,0 9.96089,-1.1132 13.88672,-3.3398 l 0,-19.2041 -14.32617,0 0,-5.3174 20.1709,0 z"
         id="path3012"
         style="font-size:90px;line-height:125%;font-family:Segoe UI Semilight;-inkscape-font-specification:Segoe UI Semilight Light" />
    </g>
    <g
       transform="scale(0.92264858,1.0838363)"
       id="text2995"
       style="font-size:101.53668213px;font-style:normal;font-variant:normal;font-weight:normal;font-stretch:normal;line-height:125%;letter-spacing:0px;word-spacing:0px;fill:#000000;fill-opacity:1;stroke:none;font-family:Segoe UI;-inkscape-font-specification:Segoe UI">
      <path
         d="m 445.3662,927.62579 -6.59099,0 0,-71.06376 6.59099,0 z"
         id="path3007"
         style="font-size:101.49134064px;font-weight:300;text-align:start;line-height:125%;writing-mode:lr-tb;text-anchor:start;font-family:Segoe UI Semilight;-inkscape-font-specification:Segoe UI Semilight Light" />
    </g>
    <g
       id="text2999"
       style="font-size:48.91478729px;font-style:normal;font-variant:normal;font-weight:normal;font-stretch:normal;line-height:125%;letter-spacing:0px;word-spacing:0px;fill:#000000;fill-opacity:1;stroke:none;font-family:Segoe UI;-inkscape-font-specification:Segoe UI">
      <path
         d="m 458.03157,962.59924 -6.23377,0 -3.08105,-8.71772 -13.47068,0 -2.96164,8.71772 -6.20988,0 12.8258,-34.2499 6.40096,0 z m -10.81953,-13.35125 -4.75295,-13.66175 c -0.14332,-0.44581 -0.29459,-1.16233 -0.4538,-2.14957 l -0.0955,0 c -0.14333,0.90762 -0.30255,1.62415 -0.47769,2.14957 l -4.70518,13.66175 z"
         id="path3004"
         style="font-weight:600;text-align:start;line-height:125%;writing-mode:lr-tb;text-anchor:start;font-family:Segoe UI Semibold;-inkscape-font-specification:'Segoe UI Semibold, Semi-Bold'" />
    </g>
    <g
       id="text3003"
       style="font-size:48.91478729px;font-style:normal;font-variant:normal;font-weight:normal;font-stretch:normal;line-height:125%;letter-spacing:0px;word-spacing:0px;fill:#000000;fill-opacity:1;stroke:none;font-family:Segoe UI;-inkscape-font-specification:Segoe UI">
      <path
         d="m 450.4784,1005.4807 -19.22676,0 0,-34.24989 18.46246,0 0,4.8246 -12.77803,0 0,9.69698 11.7749,0 0,4.80071 -11.7749,0 0,10.1269 13.54233,0 z"
         id="path3001"
         style="font-weight:600;text-align:start;line-height:125%;writing-mode:lr-tb;text-anchor:start;font-family:Segoe UI Semibold;-inkscape-font-specification:'Segoe UI Semibold, Semi-Bold'" />
    </g>
    <g
       id="text3007"
       style="font-size:48.91478729px;font-style:normal;font-variant:normal;font-weight:normal;font-stretch:normal;line-height:125%;letter-spacing:0px;word-spacing:0px;fill:#000000;fill-opacity:1;stroke:none;font-family:Segoe UI;-inkscape-font-specification:Segoe UI">
      <path
         d="m 433.59749,1014.1123 -11.22556,21.8062 0,12.4437 -5.68443,0 0,-12.3243 -10.93895,-21.9256 6.47261,0 6.73533,14.6887 c 0.0796,0.1752 0.31845,0.836 0.71653,1.9824 l 0.0716,0 c 0.14329,-0.5095 0.40602,-1.1703 0.78818,-1.9824 l 7.04583,-14.6887 z"
         id="path2998"
         style="font-weight:600;text-align:start;line-height:125%;writing-mode:lr-tb;text-anchor:start;font-family:Segoe UI Semibold;-inkscape-font-specification:'Segoe UI Semibold, Semi-Bold'" />
    </g>
  </g>
</svg>
