<?xml version="1.0" encoding="UTF-8" standalone="no"?>
<!-- Created with Inkscape (http://www.inkscape.org/) -->

<svg
   xmlns:dc="http://purl.org/dc/elements/1.1/"
   xmlns:cc="http://creativecommons.org/ns#"
   xmlns:rdf="http://www.w3.org/1999/02/22-rdf-syntax-ns#"
   xmlns:svg="http://www.w3.org/2000/svg"
   xmlns="http://www.w3.org/2000/svg"
   xmlns:sodipodi="http://sodipodi.sourceforge.net/DTD/sodipodi-0.dtd"
   xmlns:inkscape="http://www.inkscape.org/namespaces/inkscape"
   version="1.0"
   width="1134.4929"
   height="1707.2766"
   viewBox="0 0 1134.4929 1707.2766"
   id="svg2"
   xml:space="preserve"
   inkscape:version="0.91 r13725"
   sodipodi:docname="150628_Mozambique.svg"><metadata
     id="metadata144"><rdf:RDF><cc:Work
         rdf:about=""><dc:format>image/svg+xml</dc:format><dc:type
           rdf:resource="http://purl.org/dc/dcmitype/StillImage" /></cc:Work></rdf:RDF></metadata><sodipodi:namedview
     pagecolor="#ffffff"
     bordercolor="#666666"
     borderopacity="1"
     objecttolerance="10"
     gridtolerance="10"
     guidetolerance="10"
     inkscape:pageopacity="0"
     inkscape:pageshadow="2"
     inkscape:window-width="640"
     inkscape:window-height="480"
     id="namedview142"
     showgrid="false"
     inkscape:zoom="0.57870371"
     inkscape:cx="635.72778"
     inkscape:cy="1378.7758"
     inkscape:current-layer="svg2" /><defs
     id="defs278" /><g
     style="display:none"
     id="Hilfslinien_anzeigen" /><path
     style="fill:#f9f9f9;fill-rule:evenodd;stroke:#000000;stroke-width:1;stroke-linecap:round;stroke-linejoin:round;stroke-miterlimit:4;stroke-dasharray:none;stroke-opacity:1"
     d="M 1007.4857,33.395455 C 953.78692,80.649491 885.90235,95.168434 823.44295,119.18461 766.90018,75.88174 749.287,191.43235 686.1193,140.44053 c -42.32639,23.41758 -77.62463,6.85213 -111.79576,-16.55641 -28.54649,42.71261 -114.31677,-21.43376 -121.66057,45.17519 -14.47081,50.83135 -3.26624,111.84753 10.89449,157.08603 56.8993,15.23513 92.95605,86.93932 118.15597,135.25177 -15.99335,45.85897 19.47513,137.46684 -50.93427,133.04908 -30.84693,33.503 8.00254,65.46548 -11.91468,96.78948 -28.49641,-6.0581 8.82756,-39.25509 -32.6334,-47.63761 -40.46042,-34.7589 -72.9765,-83.44191 -39.12174,-119.45786 35.90288,-49.44022 -3.19955,-143.47281 -70.7877,-89.90873 -32.89383,-21.87495 -46.84745,-78.09758 -96.30381,-36.26237 -60.41495,16.27509 -116.08889,43.99503 -176.73326,58.71641 -44.454331,8.50712 -70.311261,29.39038 -41.364672,71.07541 -12.960403,85.98928 81.854372,30.48085 119.115492,69.51194 40.48162,37.57048 138.60158,18.54084 122.04186,95.00225 7.10901,40.50563 7.88636,96.68238 1.84846,130.9069 3.20833,28.48075 -41.68866,39.64708 -9.05241,65.47589 -12.964,44.45825 39.298,72.35414 -2.15386,113.3211 -48.13486,34.201 -22.96713,99.1942 -67.38201,131.1469 -37.04619,46.5245 -104.73659,80.967 -57.27626,145.5152 8.77915,69.4235 60.90702,128.5569 49.44743,204.3314 -5.69765,55.8416 -11.04246,135.8307 28.76649,172.7378 59.13646,20.3233 56.10684,-38.9332 58.00221,-77.6426 -4.47947,43.6341 -73.8925,-27.3935 -25.24059,-20.5655 34.91867,-78.6106 137.83988,-78.9452 205.77682,-115.3787 57.00354,-10.5166 74.81728,-120.0546 45.81254,-80.3913 0.0354,-39.423 29.7583,-87.281 13.32448,-135.5087 5.44963,-28.0659 4.82639,-43.8582 -13.39768,-35.3689 -8.75203,-29.6827 -15.14375,-88.7577 -27.67405,-90.4753 -5.52973,-18.1837 -2.0411,-21.2703 2.9863,-33.8604 -17.80692,-23.5396 -20.92059,-22.5793 -39.82191,-38.2331 0.23978,4.9054 17.06671,-34.68819 6.23768,-37.86527 13.28535,-32.67578 -28.30435,-62.4663 17.62179,-33.70361 50.23205,-28.94191 72.07759,-94.47712 134.96324,-100.07685 13.02223,-36.31767 52.90664,-61.64576 65.41197,-88.78163 32.43994,-44.92599 85.37936,-40.11175 96.09782,-72.00532 41.82802,-1.26759 56.48596,-12.76812 97.25546,-27.14788 37.85778,-25.14275 70.38405,-43.31063 74.20144,-72.64182 18.99044,9.76006 20.74586,-20.61018 20.18274,-21.95433 30.10685,-20.82463 62.47265,-75.9616 44.39445,-83.8242 40.0657,-14.17765 -13.764,-24.19769 25.3831,-31.31083 0.4348,-17.26942 1.3796,-52.04551 -17.9799,-32.8655 19.5914,-35.01238 -17.8576,-14.91601 -3.0893,-50.8637 -14.7835,-33.14917 4.7483,-82.61794 -11.1514,-96.06146 -15.6685,0.83644 30.0626,-37.51431 -1.4251,-51.13288 7.9916,-25.45296 -1.2721,-74.90205 -5.6186,-108.54518 10.5223,-46.993513 16.2136,-52.301093 11.4308,-65.052342 23.2993,4.3367 -6.4424,-35.748111 -13.4737,-21.057543 z"
     id="path10"
     inkscape:connector-curvature="0" /><path
     style="fill:#f2f2f2;fill-rule:evenodd;stroke:#000000;stroke-width:1;stroke-linecap:round;stroke-linejoin:round;stroke-miterlimit:4;stroke-dasharray:none;stroke-opacity:1"
     d="M 1001.6035,63.605469 C 951.91946,99.403432 891.87439,115.2864 835.23633,136.2832 c -11.49874,3.05604 -23.84475,-0.25208 -33.59375,-6.56054 -12.57983,-1.29805 -21.49386,10.19975 -30.37828,17.22772 -15.56583,14.4923 -35.22454,29.07466 -57.73305,26.45392 -10.43544,-0.78496 -20.59414,-4.21952 -29.60742,-9.48828 -35.25608,14.72624 -76.72919,6.49255 -107.75,-14.35938 -23.07593,14.64345 -51.82958,10.65166 -77.48633,7.45508 -8.2733,-1.14067 -20.93077,-1.83762 -24.25977,7.99023 -7.72005,22.17406 -8.16541,46.03282 -8.01095,69.31757 0.98376,26.01813 5.4839,52.01612 14.73752,76.42071 20.38518,9.10501 38.45372,22.78473 53.48068,39.24052 24.8435,27.29213 42.65284,60.03881 59.7908,92.46066 5.34481,11.2089 7.03407,24.1362 3.58398,36.14326 -4.16104,35.3977 5.29361,73.21375 -10.53431,106.71612 -7.54771,16.23353 -24.35514,26.10089 -41.55553,28.93944 -4.47833,0.57571 -7.79561,4.34818 -6.92383,8.88868 -1.52174,21.00091 10.99941,41.97053 4.11914,63.03711 -3.15587,13.52374 -15.87,27.00302 -30.80468,23.85351 -18.89152,-3.31715 -30.33854,-25.37516 -24.78125,-43.12695 -2.73336,-5.94617 -11.01634,-4.82724 -15.10938,-9.5918 -19.95315,-14.05867 -34.14117,-34.62085 -47.11328,-54.89258 -12.79485,-23.36222 -17.75468,-54.02986 -2.86719,-77.64648 9.19101,-14.92737 21.24699,-30.85883 18.47071,-49.48633 -0.95401,-15.25722 -8.78037,-33.61057 -25.28516,-36.70898 -13.87138,-1.32217 -23.69534,11.07176 -36.5,14.05273 -15.8456,1.91919 -27.86989,-11.4275 -36.93945,-22.57422 -8.41209,-10.07598 -16.73395,-23.41344 -30.5293,-26.10351 -14.06379,1.32441 -23.18032,14.57579 -37.11594,16.81596 -46.07352,13.92507 -90.75147,32.07932 -136.63645,46.68943 -20.41484,6.86594 -41.187682,12.83014 -61.773001,18.98289 -7.487057,5.0237 -7.750056,16.45298 -1.623047,22.64258 6.349279,11.40093 8.330005,24.97832 5.851563,37.68554 1.673728,10.06917 13.140346,13.53764 22.003905,13.20313 25.61146,2.88349 54.01011,-2.60024 77.04322,11.87038 19.28635,13.66755 39.64239,27.99752 63.61134,31.32283 26.51142,7.03748 55.77854,15.70242 72.51927,39.13296 13.62367,21.96975 7.49559,48.9024 10.65568,73.17823 3.92898,45.6952 6.51965,93.34047 -8.81974,137.33349 -3.2562,6.12888 -11.96412,10.60762 -10.81446,18.1582 7.57576,8.17291 10.41494,20.20881 7.28907,30.85547 0.59075,26.13895 21.08245,49.52079 15.45117,76.5 -3.22018,20.92646 -19.26766,36.3014 -34.125,49.916 -15.72764,19.0652 -15.55721,45.3738 -22.6069,68.132 -4.93511,18.8848 -15.15826,36.0791 -29.14701,49.6532 -23.66628,25.9573 -53.97952,47.4662 -68.91797,80.1953 -4.76343,15.3427 3.27746,30.4127 10.53907,43.4765 9.62972,23.9537 11.86574,50.3035 23.66713,73.3174 16.83047,40.7907 34.4497,83.8205 30.42432,128.9001 -2.20392,45.7269 -11.18093,93.138 3.55503,137.6263 4.13347,11.8664 9.24205,26.9715 22.75781,30.7832 10.51537,0.6062 17.56792,-10.6826 16.77149,-20.2813 0.46875,-3.3451 3.65878,-10.1241 -1.96094,-10.4824 -21.11407,-6.7878 -39.29053,-27.9836 -36.42188,-50.9961 2.89048,-11.0007 12.64418,-20.1869 24.0918,-21.4336 21.72468,-37.7391 61.59868,-60.5442 101.66471,-74.3457 44.18111,-15.9973 91.99272,-24.9406 131.49154,-51.4961 10.08686,-8.9023 16.93457,-21.1682 20.02735,-34.123 -11.66659,-8.3247 -11.09166,-24.824 -7.59539,-37.2123 5.8534,-31.2333 19.99018,-62.267 14.8239,-94.4029 -3.42449,-11.7769 -2.32194,-24.3826 -1.86914,-36.2598 -10.66191,-3.5091 -16.20963,-15.0527 -18.24965,-25.4299 -4.71836,-27.7245 -7.68429,-57.057 -24.57848,-80.5994 -4.94355,-11.5234 -0.30738,-24.0413 -1.33984,-35.9648 -11.10456,-12.3882 -29.90654,-19.5113 -33.53125,-37.3575 -2.25563,-12.286 11.50961,-22.5096 6.46875,-34.72653 -2.02577,-11.29201 4.09159,-23.92456 -3.15039,-34.08789 -4.95043,-11.38545 -3.39338,-28.47403 9.43945,-33.83008 9.99597,-4.24025 21.14181,-0.1367 29.78711,5.32422 33.40615,-27.35082 56.84272,-66.88883 96.45899,-86.5332 9.24113,-5.48101 23.55129,-3.18784 28.37109,-14.80664 21.07068,-32.94731 51.35551,-58.76226 72.84573,-91.37695 21.22487,-20.46623 50.26039,-29.06738 74.80271,-44.51172 7.53372,-13.78376 23.40306,-22.07766 38.9748,-20.97615 46.93696,-7.96354 90.85063,-30.76128 125.94317,-62.64299 7.78026,-8.60546 9.80902,-20.9635 17.54883,-29.45313 3.44935,-2.89974 7.97608,-4.34108 12.09375,-5.60547 2.19041,-18.10239 20.26145,-26.98607 30.74657,-39.89831 8.40402,-10.26586 16.89871,-22.15422 17.34331,-35.8177 -2.5847,-9.43594 -2.3856,-21.37431 6.498,-27.48125 2.368,-4.53593 -0.3215,-10.08241 2.4414,-14.75196 2.1859,-5.73173 6.1832,-10.70814 11.127,-14.30859 -12.5637,-3.33537 -19.1358,-20.05385 -12.209,-31.0957 -10.9739,-9.35846 -10.4618,-25.21482 -9.4199,-38.29493 -1.7322,-16.96086 -5.44565,-33.974 -2.7305,-51.06445 1.6093,-11.86054 3.0818,-25.30519 -4.94923,-35.36133 -7.5211,-11.25556 -2.52683,-25.5161 4.69533,-35.52343 2.2909,-2.88664 5.534,-7.35727 1.1758,-10.01563 -9.35708,-7.89123 -7.90082,-21.82783 -5.77424,-32.61133 3.41534,-22.4037 -2.8791,-44.75424 -4.90368,-67.04853 -2.60051,-19.53188 -1.32115,-39.5784 5.13101,-58.277639 1.93394,-7.251331 3.75321,-14.486469 4.60351,-21.929688 l -0.5254,0.384766 z"
     id="path5342"
     inkscape:connector-curvature="0" /><path
     style="fill:#ececec;fill-rule:evenodd;stroke:#000000;stroke-width:1;stroke-linecap:round;stroke-linejoin:round;stroke-miterlimit:4;stroke-dasharray:none;stroke-opacity:1"
     d="m 972.02734,104.26562 c -48.51436,23.8013 -99.63738,43.54551 -152.89453,53.28126 -8.19392,-0.70954 -17.02379,-9.44951 -24.95556,-3.5532 -18.34409,14.68827 -35.50403,34.49321 -60.13428,37.77194 -17.24622,3.58349 -35.60758,1.59643 -51.67188,-5.63671 -35.5771,10.56335 -75.11768,4.71915 -107.11523,-13.67969 -26.43505,11.78319 -56.42102,5.84546 -83.89844,5.41797 -2.98474,11.85516 -3.18959,24.35142 -4.83984,36.51172 -1.43712,27.62146 2.35304,55.52015 11.1543,81.75976 46.66213,24.81159 78.42947,69.55496 102.88085,115.09375 14.3808,22.24219 23.35797,49.82259 17.15241,76.27669 -2.63904,35.80894 3.99041,74.14555 -12.65826,107.56316 -9.09116,17.93241 -26.60239,30.08295 -45.06836,36.95117 4.00751,23.8497 10.02585,50.4587 -2.30469,72.95312 -11.75167,22.34766 -43.26609,33.42262 -65.11328,19 -16.17136,-9.72865 -26.44159,-28.30051 -26.49024,-47.125 -35.41597,-23.98745 -62.2904,-61.38398 -71.66735,-103.27162 -4.33343,-27.99351 5.30213,-56.89891 22.91735,-78.65025 5.2322,-10.87764 6.53858,-26.50636 -3.39843,-35.07422 -10.67075,-0.77654 -17.01546,10.76367 -27.43165,11.58398 -22.00886,5.57557 -44.27875,-7.63069 -56.85914,-25.13666 -6.06608,-7.25545 -11.02484,-16.53833 -19.97484,-20.22271 -8.78702,2.12038 -14.47126,10.65004 -23.67373,11.99989 -25.14897,8.44855 -50.46688,16.37842 -75.42777,25.39108 -38.89136,13.3363 -77.73607,26.80439 -116.779359,39.69106 6.610089,10.8562 7.749559,24.0719 7.658199,36.37695 5.48785,1.90255 11.6681,0.45537 17.38085,1.13488 23.42111,-0.52416 48.03567,0.76495 68.72853,12.99403 15.9802,9.26616 30.1589,22.06379 48.42773,26.84765 28.88031,9.47436 61.20834,14.55197 83.89489,36.58778 20.53738,18.7586 26.61818,48.22138 25.27747,74.9723 1.07129,51.33975 10.82931,104.42367 -5.39757,154.48404 -2.30339,8.20219 -6.95916,16.25962 -9.85096,23.70198 4.75387,9.17425 4.12094,19.97874 5.16829,30.01365 0.34028,12.45053 2.7917,24.74239 9.01935,35.64428 9.77872,26.79163 8.35626,59.89709 -11.61264,81.80095 -12.89851,15.5426 -30.54583,30.2648 -33.07663,51.3568 -6.37428,29.0622 -12.38445,60.6167 -34.03743,82.6824 -23.01403,27.9203 -55.74661,48.1733 -71.55078,81.7148 -0.32865,19.6271 16.2593,34.5352 17.28323,53.938 12.69501,51.7917 43.2287,98.5417 47.16538,152.5601 2.54175,26.0126 1.35318,52.2974 -2.33728,78.1406 9.37808,-10.095 16.43401,-22.4771 27.91294,-30.5856 38.52195,-33.6381 88.84589,-47.9799 136.81457,-62.2997 26.54576,-8.575 54.74741,-17.3558 74.98733,-37.5171 3.27251,-4.0847 2.38686,-9.822 -0.64844,-13.6992 -8.90072,-24.414 1.56731,-49.9823 7.96993,-73.608 5.91466,-22.228 8.53601,-45.8906 3.00273,-68.5228 2.49176,-7.6669 -1.35196,-16.2219 -7.65682,-20.9072 -16.83857,-25.3456 -9.55614,-58.7799 -25.00362,-84.6476 -7.45433,-15.3409 -13.94489,-32.4214 -11.44503,-49.6796 -5.0363,-6.5553 -13.43652,-9.5469 -18.125,-16.5195 -12.3216,-12.6126 -20.58519,-33.0678 -11.02344,-49.6231 4.39137,-10.3702 3.20745,-22.12738 2.69727,-32.93554 -1.01669,-11.22586 -6.61095,-21.89427 -6.54688,-33.2168 1.96783,-24.7335 29.01694,-45.8118 53.35852,-37.261 3.3317,1.74587 8.01359,2.05922 9.63784,-2.10801 28.91397,-28.44841 54.42814,-63.13766 92.95091,-79.26771 12.22751,-0.36375 20.38891,-10.91493 25.96384,-20.57844 26.51675,-33.13126 52.35004,-67.38454 84.34945,-95.48749 22.40323,-13.78675 49.32011,-21.92005 66.87226,-42.34227 24.65303,-17.68684 57.32812,-12.15011 83.5056,-26.05139 26.83138,-11.37347 53.62666,-26.29285 71.95806,-49.49071 5.47869,-11.75887 12.58938,-23.84448 24.38985,-30.19032 8.75648,-23.07042 36.11119,-32.82154 43.42969,-56.61133 0.35388,-13.72093 -1.13345,-29.3211 8.08203,-40.74805 1.57027,-6.03737 4.52844,-12.51596 4.1543,-18.49414 -7.4333,-13.54524 -4.59434,-29.91982 -10.99233,-43.81182 -3.70562,-21.50261 -3.09956,-43.49111 -4.91205,-65.1391 1.50732,-16.29158 2.52028,-34.02846 -6.06186,-48.64073 -3.93582,-13.32991 -1.7363,-28.29291 5.73381,-39.99624 -5.3428,-10.68157 -6.25155,-22.76179 -4.58789,-34.42578 1.5267,-17.5709 1.91213,-35.19242 -2.20723,-52.40112 -2.67681,-18.82845 -4.39026,-38.29665 -2.44902,-57.04029 z M 257.44922,1520.5352 c -1.26644,0.337 1.31213,2.19 0,0 z"
     id="path5384"
     inkscape:connector-curvature="0" /><path
     style="fill:#e6e6e6;fill-rule:evenodd;stroke:#000000;stroke-width:1;stroke-linecap:round;stroke-linejoin:round;stroke-miterlimit:4;stroke-dasharray:none;stroke-opacity:1"
     d="m 945.31641,138.35938 c -42.96614,18.16969 -87.63906,36.44699 -134.8711,37.80273 -3.76102,-2.89153 -10.29746,-4.0601 -12.47346,1.32308 -24.26107,23.46238 -57.94909,40.53488 -92.46013,35.57926 -12.21905,-1.7875 -24.64976,-7.68612 -37.03125,-3.44726 -32.14554,4.85685 -65.6856,-0.74963 -94.71289,-15.3125 -21.1629,6.7324 -43.71843,5.75847 -65.58789,4.41992 -3.66527,28.02569 -1.82842,56.82538 6.23242,83.94922 50.79002,30.19073 84.32555,81.14883 111.61523,132.12305 15.46841,29.66426 14.9978,64.38178 11.13324,96.73046 0.10661,35.11124 -0.2846,73.21249 -20.8974,103.32649 -8.7423,12.12696 -20.56737,21.86122 -33.71826,28.87859 5.86959,29.92678 2.70853,64.75289 -19.50976,87.59375 -28.35527,29.04655 -83.92347,23.30872 -104.03711,-12.57422 -6.20656,-9.31661 -10.43248,-19.98246 -12.05469,-31.07031 -42.97508,-31.9585 -74.31367,-83.17183 -73.33398,-137.79297 1.46126,-21.4012 12.24498,-41.43741 21.18359,-59.75586 -28.06803,8.79325 -58.87323,-4.63043 -77.15514,-26.39078 -3.93955,-4.22562 -7.59602,-8.7092 -11.0558,-13.33383 -32.11569,15.79825 -67.68793,22.28417 -100.74215,35.69128 -28.82255,9.98577 -57.80767,19.5793 -86.34769,30.32435 -0.42938,2.95223 1.51914,5.22025 4.40429,3.69467 32.41885,-0.166 66.65838,6.79363 91.82422,28.47916 34.22323,22.34179 79.98924,20.99155 111.6709,48.59857 19.83852,15.59845 32.71913,39.2087 35.55349,64.23948 5.59246,35.17386 2.43114,70.96058 5.86487,106.29645 0.84323,34.11534 -1.85358,69.40348 -16.47012,100.73073 -1.65016,13.18832 3.05343,26.13506 3.60913,39.30141 4.36637,22.42657 17.43887,43.86561 13.93384,67.48179 -2.56012,29.98501 -18.70987,57.86961 -41.51172,77.12501 -16.99321,25.8304 -12.70313,59.7864 -29.44336,85.8496 -16.82181,32.6879 -47.22151,54.8937 -71.80859,81.1465 -4.65242,5.4755 -8.89758,11.1975 -12.44531,17.4453 6.84246,22.0736 18.34154,42.8227 21.91327,65.9195 17.0614,49.5418 42.50831,98.1394 42.76837,151.7407 0.44466,3.5481 -0.22675,7.1336 0.18359,10.6816 46.76253,-36.1362 105.54374,-49.3967 160.5586,-67.5566 12.65666,-4.6412 25.19126,-10.4051 35.14648,-19.709 -9.51552,-27.9968 1.57236,-57.1534 8.63281,-84.3223 5.65224,-22.5612 8.97064,-47.7156 -0.13672,-69.8066 -6.41664,-10.431 -13.24459,-21.043 -14.79687,-33.4786 -5.13276,-23.4915 -6.41915,-48.8662 -19.85519,-69.6025 -4.48771,-11.1691 -7.23051,-23.0356 -8.12919,-35.0381 -20.59767,-16.0398 -36.2595,-42.4038 -31.20703,-69.2148 4.15848,-14.1278 10.193,-29.83572 3.67356,-44.23799 -5.84267,-20.65975 -6.57636,-45.78854 8.62527,-62.77375 14.14138,-17.57478 37.95757,-27.32705 60.32813,-23.29101 28.50523,-29.18285 55.39998,-63.54065 95.18359,-77.63867 15.83908,-5.92232 22.7792,-23.24365 33.39648,-35.23438 28.22697,-36.6671 58.33327,-74.69373 100.91359,-95.33781 15.93917,-8.0216 30.46761,-18.36385 44.15087,-29.71492 24.6072,-16.19277 55.65176,-14.266 82.32031,-24.85743 16.41263,-6.2328 31.64298,-15.6631 45.5,-26.50976 11.88742,-9.54637 21.28328,-21.87714 28.55914,-35.13218 15.21686,-16.12895 28.02753,-34.48983 44.65375,-49.27602 4.89429,-4.81958 9.4578,-11.17598 7.7832,-18.41993 0.53619,-16.04992 6.57517,-31.15137 11.46289,-46.23633 -10.01248,-39.00914 -15.81643,-79.3252 -13.85418,-119.6558 -0.23678,-17.34777 -5.31094,-34.11352 -8.67707,-50.98091 -1.09736,-10.67939 2.13729,-21.18618 4.75196,-31.29688 -1.40366,-12.62917 -4.15391,-25.51388 -1.47626,-38.19853 1.89883,-21.65912 -0.89488,-43.33234 -4.80014,-64.54483 -0.70829,-6.25479 0.70676,-9.28485 -6.93063,-4.72929 z"
     id="path5426"
     inkscape:connector-curvature="0" /><path
     style="fill:#cccccc;fill-rule:evenodd;stroke:#000000;stroke-width:1;stroke-linecap:round;stroke-linejoin:round;stroke-miterlimit:4;stroke-dasharray:none;stroke-opacity:1"
     d="m 932.02344,165.47852 c -39.42051,16.24899 -81.01306,30.69625 -124.20508,29.93359 -31.6142,31.90738 -80.83884,45.96149 -124.33398,33.76758 -25.85486,-0.72945 -52.54665,6.19961 -77.78321,-2.39063 -11.57785,-2.63041 -22.89319,-6.41063 -33.73047,-11.25976 -14.83395,3.64714 -30.21563,4.42816 -45.4375,4.04882 -0.63128,16.95449 1.03045,33.97829 5.17774,50.41993 55.30482,37.3852 94.31418,94.58792 120.21824,155.27013 13.2563,43.26818 4.70983,88.8883 3.80129,133.10682 -3.507,35.08224 -17.94574,71.43737 -47.4082,92.53125 -4.99873,0.91858 -4.38809,6.69194 -3.13282,10.20117 3.00706,38.09609 -13.22347,79.99064 -47.71093,99.18555 -41.96181,22.76544 -101.5261,3.83716 -120.92188,-40.23633 -5.3705,-8.62837 -4.80782,-21.24789 -14.6115,-26.74179 -16.79669,-14.34845 -31.13002,-31.54889 -42.39436,-50.54337 9.56887,32.17917 5.36349,66.03734 8.01165,99.01267 2.06008,41.42624 2.39785,84.31299 -12.64837,123.64749 -4.80853,15.54064 -1.30153,31.55427 3.55476,46.5068 7.75114,27.58235 16.82821,57.22629 8.08001,85.73344 -7.61926,29.93462 -29.51271,53.02852 -46.68268,77.65742 -10.42858,28.9597 -11.36244,62.4814 -31.59857,87.2996 -19.9034,29.0076 -49.94321,49.0534 -70.57031,77.457 10.41668,28.0694 18.14401,57.0364 28.73504,85.0389 11.60551,34.295 26.68217,67.936 31.2298,104.1564 48.43808,-27.7664 104.69028,-36.5686 155.07422,-59.6757 -7.08665,-40.6417 17.65189,-78.1442 16.5,-118.3535 -0.544,-14.6787 -8.45233,-27.3074 -14.59099,-40.2792 -9.83547,-23.6053 -9.1242,-50.059 -18.7469,-73.7482 -3.14864,-9.2844 -9.68357,-16.7857 -10.57813,-26.8555 -2.04138,-10.2081 -6.61833,-20.0018 -15.07422,-26.3398 -21.18826,-24.9258 -26.78726,-61.7471 -14.58789,-92.01563 0.45761,-21.61662 -12.19712,-43.41315 -4.13388,-64.93473 8.62407,-36.8354 45.77614,-63.53591 83.13584,-62.243 6.58956,-5.36786 10.97761,-12.9433 17.584,-18.34547 22.18179,-23.06115 47.01765,-45.05691 77.40818,-56.4182 22.63016,-17.29871 33.05965,-45.3307 53.49805,-64.72852 27.80027,-33.19084 63.73832,-58.50472 101.49156,-79.13214 23.83354,-18.76658 52.47019,-32.63801 83.04555,-34.76825 35.0978,-7.16316 68.90699,-27.00696 87.44336,-58.44531 15.09567,-20.85629 33.86248,-38.96817 49.01911,-59.617 3.69438,-13.39799 2.40652,-28.22321 9.58441,-40.56074 3.41745,-18.00049 -7.8154,-34.78666 -7.71981,-52.75217 -4.56461,-40.15885 -2.75853,-81.00793 -11.49965,-120.64622 -1.05806,-21.09479 4.19377,-41.95368 1.88829,-63.01953 0.1521,-17.47622 1.85488,-35.10293 -0.80555,-52.40434 -1.19141,0.49349 -2.38282,0.98698 -3.57422,1.48047 z M 297.95117,475.66211 c -34.95215,13.48203 -71.08935,23.63973 -106.41211,35.98828 29.08385,12.88388 54.9459,34.02177 86.63698,40.07973 32.13568,9.33116 65.4002,24.34424 84.06615,53.5648 1.32683,1.47628 -2.14714,-7.09138 -2.45899,-9.52734 -7.37724,-27.45061 -8.7403,-57.73923 3.02149,-84.20117 -24.45295,-4.10865 -46.75094,-17.92119 -62.65235,-36.76368 -0.73372,0.28646 -1.46744,0.57292 -2.20117,0.85938 z"
     id="path5468"
     inkscape:connector-curvature="0" /><path
     style="fill:#b3b3b3;fill-rule:evenodd;stroke:#000000;stroke-width:1;stroke-linecap:round;stroke-linejoin:round;stroke-miterlimit:4;stroke-dasharray:none;stroke-opacity:1"
     d="m 917.14453,192.5957 c -32.18706,12.83373 -66.50575,21.71664 -101.31641,22.75 -35.98945,32.44468 -88.36704,45.66678 -135.4082,33.92188 -36.54096,2.96576 -75.02087,3.39934 -109.04297,-12.10547 -8.06271,-0.91617 -16.24478,1.45823 -24.37304,2.29687 -0.35747,9.22472 1.52523,20.51404 10.88973,24.96957 55.54652,44.6911 98.98405,105.92479 117.62844,175.11302 7.82069,52.74383 2.53735,106.60316 -7.57042,158.63355 -7.96953,24.86321 -22.26638,48.06067 -42.54346,64.73699 0.82124,10.69509 0.1401,21.49355 -1.87109,32.02539 39.86872,-38.32007 87.87921,-66.85135 136.49805,-92.53906 29.79995,-11.71283 64.87568,-10.44193 91.01328,-30.72949 28.26149,-22.4773 44.77813,-55.69668 70.14883,-80.93848 7.42339,-10.56969 6.66573,-23.96248 10.37109,-35.93359 2.47211,-12.28876 1.15347,-25.03746 -3.0918,-36.8125 -7.45662,-39.49627 -4.31532,-80.15758 -11.04392,-119.64962 -3.53329,-35.14656 -0.58875,-70.63018 -0.28811,-105.73906 z M 294.1582,498.43164 c -17.37001,6.29695 -34.95002,12.00726 -52.52539,17.70703 29.65383,15.6122 63.9344,20.93602 92.94727,37.59766 -0.84954,-9.52429 0.89035,-19.13874 2.82226,-28.46094 -16.12318,-5.7797 -30.29742,-16.42628 -43.24414,-26.84375 z m 112.40625,215.50977 c 2.31278,51.10171 4.8234,103.63483 -10.375,153.13867 -1.00294,4.58478 -1.85644,9.21156 -2.30273,13.88672 18.21501,-20.77159 44.61032,-34.14712 72.13281,-36.54492 18.45663,-20.40788 38.92618,-39.1057 61.66992,-54.64844 -47.93076,4.58879 -99.144,-25.19202 -113.28515,-72.29492 -1.78195,-4.5893 -4.78345,-8.6017 -8.1875,-12.11524 0.11588,2.85938 0.23177,5.71875 0.34765,8.57813 z m -32.96484,348.52929 c -13.51189,17.1671 -22.92961,37.7393 -25.13867,59.5645 -8.59565,36.2101 -31.27791,67.6143 -59.09283,91.7121 -10.05212,9.8466 -20.2337,19.6099 -29.31342,30.3816 16.59216,52.1255 37.18712,102.9431 51.85742,155.6836 38.51185,-17.7975 80.24493,-26.9162 119.47266,-42.8555 -1.44353,-37.7985 20.41641,-72.5982 16.8789,-110.3125 -11.58686,-26.6911 -22.57694,-54.2047 -25.67984,-83.3574 -6.98234,-22.7817 -13.2956,-46.6043 -26.97641,-66.3828 -8.78801,-10.693 -16.9755,-22.3573 -20.95703,-35.7715 l -0.61767,0.7865 -0.43311,0.5514 z"
     id="path5510"
     inkscape:connector-curvature="0" /><path
     style="fill:#999999;fill-rule:evenodd;stroke:#000000;stroke-width:1;stroke-linecap:round;stroke-linejoin:round;stroke-miterlimit:4;stroke-dasharray:none;stroke-opacity:1"
     d="m 894.94727,221.64258 c -23.17531,7.11071 -47.12217,11.95485 -71.35157,13.3418 -39.5972,32.63451 -94.49372,45.78593 -144.5625,34.48828 -30.25203,3.0312 -61.07122,1.73632 -90.71875,-5.22657 45.25122,41.31239 82.25242,93.22697 100.50196,152.10743 11.57938,37.37625 11.36788,76.98803 9.16601,115.6582 -2.31206,32.7144 -8.61837,65.39143 -21.18554,95.78516 40.18162,-28.29799 85.46502,-50.70391 134.22656,-59.03516 21.7002,-5.68635 39.62392,-20.60294 52.28095,-38.8169 15.64423,-19.34995 31.67821,-38.65381 44.8792,-59.69482 8.88615,-28.22299 -1.42228,-57.36268 -3.6313,-85.82678 -3.07208,-44.01199 -6.99386,-88.0029 -8.74737,-132.08333 -0.0609,-10.36745 0.11103,-20.7354 0.43336,-31.0977 l -0.95512,0.29621 -0.33589,0.10418 z M 428.2207,777.94336 c -0.30269,19.05587 -1.47847,38.12896 -4.3457,56.98242 10.31671,-4.53771 21.23762,-7.69301 32.37695,-9.40039 6.3038,-7.66735 15.79073,-14.45135 20.93555,-21.79492 -18.11404,-5.93279 -34.95006,-15.77701 -48.92969,-28.74219 -0.0124,0.98503 -0.0247,1.97005 -0.0371,2.95508 z m -54.13672,324.57814 c -9.57191,29.3082 -13.84065,62.0807 -34.9108,86.096 -16.22208,22.5084 -37.29192,40.7941 -56.25912,60.8649 13.6818,41.1788 28.98984,81.8111 41.83008,123.2696 28.56522,-11.1103 58.22458,-19.0657 86.9668,-29.6778 2.24641,-31.1031 17.37132,-60.0847 16.76758,-91.4043 -24.49391,-47.786 -22.79712,-105.6133 -53.95704,-150.4297 l -0.32314,0.9464 -0.11436,0.3349 z"
     id="path5552"
     inkscape:connector-curvature="0" /><path
     style="fill:#808080;fill-rule:evenodd;stroke:#000000;stroke-width:1;stroke-linecap:round;stroke-linejoin:round;stroke-miterlimit:4;stroke-dasharray:none;stroke-opacity:1"
     d="m 875.70703,247.375 c -14.62021,3.62011 -29.56473,5.80749 -44.56055,7.10547 -42.91838,32.87218 -100.2794,46.09575 -153.24218,35.18555 -12.06225,1.09981 -24.1875,1.51591 -36.29688,1.2207 49.75518,58.16126 80.66691,134.1766 77.59478,211.33007 -0.06,27.01705 -2.64413,54.06161 -8.25493,80.50196 35.87871,-19.62955 76.6245,-27.34314 114.18948,-42.65098 25.51668,-19.3327 41.05013,-47.98815 61.06637,-72.3373 10.72325,-21.30823 2.71495,-45.29998 0.29186,-67.54124 -5.97216,-50.76789 -8.88974,-101.84965 -10.32115,-152.93337 l -0.4668,0.11914 z M 444.43359,809.10352 c -0.4664,0.89414 0.9913,-0.21822 0,0 z M 378.3125,1159.1641 c -14.3954,37.7075 -42.74152,67.8405 -71.81445,94.8066 -0.75839,6.5964 4.65354,11.9759 5.3826,18.4225 8.58243,24.8103 17.3556,49.557 25.54708,74.4994 18.56841,-6.4214 37.36465,-12.1596 55.94141,-18.5567 3.8029,-24.3173 13.7883,-47.4598 15.00391,-72.2129 -14.93915,-30.8977 -19.82863,-65.2139 -29.7461,-97.7929 l -0.31445,0.834 z"
     id="path5594"
     inkscape:connector-curvature="0" /><path
     style="fill:#666666;fill-rule:evenodd;stroke:#000000;stroke-width:1;stroke-linecap:round;stroke-linejoin:round;stroke-miterlimit:4;stroke-dasharray:none;stroke-opacity:1"
     d="m 856.52344,270.9082 c -19.13931,0.95613 -34.24932,13.76559 -50.52539,22.21875 -38.19768,18.08722 -81.71197,23.57713 -123.47266,18.31641 46.53451,68.83712 65.61027,155.17184 54.38867,237.33984 29.95675,-11.66165 64.74937,-14.73259 89.26799,-37.39914 18.10198,-19.41867 36.36432,-40.38469 44.86873,-65.79812 0.0249,-33.55606 -10.30983,-66.34547 -9.94686,-100.02227 -1.95278,-24.83752 -2.6449,-49.91573 -4.58048,-74.65547 z m -485.1875,941.8711 c -12.57078,17.1718 -27.22918,32.6804 -42.26953,47.6895 6.99417,20.3785 14.00347,40.7517 20.94921,61.1464 8.64519,-2.8489 17.29037,-5.6979 25.93555,-8.5468 3.86733,-17.8068 10.13516,-35.1313 12.04297,-53.334 -7.11654,-15.3009 -11.3724,-31.6994 -16.00195,-47.8614 l -0.58651,0.81 -0.0697,0.096 z"
     id="path5636"
     inkscape:connector-curvature="0" /><path
     style="fill:#4d4d4d;fill-rule:evenodd;stroke:#000000;stroke-width:1;stroke-linecap:round;stroke-linejoin:round;stroke-miterlimit:4;stroke-dasharray:none;stroke-opacity:1"
     d="m 836.28906,299.20508 c -27.2795,15.08826 -56.25749,29.287 -87.83945,31.59335 -9.85498,1.41652 -19.79616,2.23737 -29.75039,2.44766 30.09897,57.34278 44.15801,122.88235 40.83008,187.52344 24.82456,-6.3835 51.18243,-16.52425 65.89672,-38.76829 12.48228,-14.6681 27.84532,-31.82322 24.20146,-52.49006 C 845.224,385.8557 838.44624,342.33392 837.87305,298.38086 l -0.88709,0.46159 -0.6969,0.36263 z M 363.625,1253.4707 c -3.75095,4.2138 -8.04752,7.8834 -11.40234,12.4141 3.117,8.3237 5.098,17.0697 8.38476,25.2832 2.96727,-11.8984 8.92498,-24.0665 4.23242,-36.3868 -0.37797,-0.3236 -0.47514,-3.0055 -1.21484,-1.3105 z"
     id="path5678"
     inkscape:connector-curvature="0" /><path
     style="fill:#333333;fill-rule:evenodd;stroke:#000000;stroke-width:1;stroke-linecap:round;stroke-linejoin:round;stroke-miterlimit:4;stroke-dasharray:none;stroke-opacity:1"
     d="m 819.27734,330.73828 c -22.09939,10.24303 -45.65236,17.6245 -69.8789,20.54492 18.86948,44.82096 29.38779,93.18371 30.48828,141.81641 23.47406,-11.57597 44.3459,-32.27816 49.70119,-58.50976 -0.21393,-23.88489 -6.59765,-47.3054 -7.40432,-71.21094 -1.13188,-10.85175 -2.08838,-21.82331 -2.90625,-32.64063 z"
     id="path5720"
     inkscape:connector-curvature="0" /><path
     style="fill:#1a1a1a;fill-rule:evenodd;stroke:#000000;stroke-width:1;stroke-linecap:round;stroke-linejoin:round;stroke-miterlimit:4;stroke-dasharray:none;stroke-opacity:1"
     d="m 800.3125,359.86719 c -7.72899,2.5997 -15.5546,4.93306 -23.50195,6.76953 10.41207,28.74894 16.26399,58.90122 20.71289,89.07812 12.40182,-13.94387 13.97453,-34.49612 9.04972,-51.89164 -1.78667,-14.76289 -3.62265,-29.51999 -5.28019,-44.29781 l -0.94427,0.32918 -0.0362,0.0126 z"
     id="path5762"
     inkscape:connector-curvature="0" /><circle
     style="opacity:1;fill:#ff0000;fill-opacity:1;stroke:none;stroke-width:1;stroke-linecap:round;stroke-linejoin:round;stroke-miterlimit:4;stroke-dasharray:none;stroke-opacity:1"
     id="path4146"
     cx="791.61975"
     cy="374.5459"
     r="10" /></svg>