<?xml version="1.0" encoding="utf-8"?>
<svg width="360" height="120" viewBox="0 0 360 120" xmlns="http://www.w3.org/2000/svg">
  <path d="M 256.8 13.3 C 242.7 13.3 234.7 22.2 234.7 30.7 C 234.7 35.1 237.6 36.9 240.6 36.9 C 244.3 36.9 246.6 34.3 246.6 30.9 C 246.6 25.1 241.2 25.1 239.3 25.1 C 243.4 18.2 250.9 16.2 256.4 16.2 C 270.6 16.2 270.6 25.1 270.6 30.2 C 270.6 37.8 268.5 40.2 266.2 42.5 C 257.6 51.9 254.7 63.9 254.7 71.9 L 254.7 77.7 C 254.7 80.1 254.7 80.9 256.3 80.9 C 258 80.9 258 79.7 258 77.3 L 258 72.8 C 258 56.3 270.6 47.1 275.2 43.7 C 278.7 41.1 281.4 36.4 281.4 30.9 C 281.4 23.4 276.2 13.3 256.8 13.3 Z M 308.9 14.8 C 302.8 14.8 298.7 19.3 298.7 24.9 S 302.8 35.1 308.9 35.1 C 312.2 35.1 314 34.1 316.3 32 C 314.8 51.9 302.8 54.4 302.8 57.9 C 302.8 59.2 304.1 60.3 305.2 60.3 C 307.6 60.3 321.2 48.7 321.2 31.1 C 321.2 21.9 316.2 14.8 308.9 14.8 Z M 344.1 14.8 C 338 14.8 333.9 19.3 333.9 24.9 S 338 35.1 344.1 35.1 C 347.3 35.1 349.2 34.1 351.5 32 C 350 51.4 338 54.7 338 57.9 C 338 59.2 339.3 60.3 340.4 60.3 C 342.8 60.3 356.3 48.7 356.3 31.1 C 356.3 21.9 351.4 14.8 344.1 14.8 Z M 19.6 14.9 C 17.2 14.9 3.7 26.5 3.7 44 C 3.7 53.2 8.6 60.4 15.9 60.4 C 22.4 60.4 26.1 55.3 26.1 50.2 C 26.1 44.6 21.9 40.1 15.9 40.1 C 12.9 40.1 10.7 41.1 8.4 43.2 C 10 23.6 22 20.5 22 17.3 C 22 15.9 20.7 14.9 19.6 14.9 Z M 54.8 14.9 C 52.4 14.9 38.8 26.5 38.8 44 C 38.8 53.2 43.8 60.4 51.1 60.4 C 57.6 60.4 61.3 55.3 61.3 50.2 C 61.3 44.6 57.1 40.1 51.1 40.1 C 48.1 40.1 45.9 41.1 43.5 43.2 C 45.2 23.6 57.2 20.5 57.2 17.3 C 57.2 15.9 55.9 14.9 54.8 14.9 Z M 72.6 16.2 L 72.6 20.2 L 73.2 20.2 C 83.4 20.2 86 20.2 86 26.4 L 86 47.2 C 86 51 86.2 54.5 93.2 59.9 C 101.2 66.3 107.6 66.4 110.6 66.4 L 115.2 66.4 C 120.4 66.4 131.9 66.1 140.2 62.2 L 140.2 95.3 C 140.1 100.5 138.2 101.2 128.2 101.2 L 126.8 101.2 L 126.8 105.2 C 132.3 105.1 137.7 104.8 145.2 104.8 C 151.8 104.8 158.6 105 165.2 105.2 L 165.2 101.2 L 163.1 101.2 C 153.5 101.2 151.9 100.3 151.8 95.6 L 151.8 25.7 C 151.9 21 153.6 20.2 163.3 20.2 L 165.2 20.2 L 165.2 16.2 C 159.1 16.3 153.1 16.6 146.8 16.6 C 140.1 16.6 133.4 16.5 126.8 16.2 L 126.8 20.2 L 128 20.2 C 138.5 20.2 140.1 20.9 140.2 26.1 L 140.2 58.7 C 135.6 60.8 129.9 62.7 114.5 62.9 L 110.6 62.9 C 108.5 62.9 104.9 62.6 101.4 58.7 C 98.4 55.4 97.6 51.8 97.6 47.2 L 97.6 26.1 C 97.7 20.9 99.4 20.2 109.6 20.2 L 111 20.2 L 111 16.2 C 104.9 16.3 98.9 16.6 92.6 16.6 C 85.9 16.6 79.2 16.5 72.6 16.2 Z M 185.7 19.3 C 182.5 19.3 179 22.2 179 26.2 C 179 29.9 181.7 33 185.9 33 C 189.2 33 192.6 30.3 192.6 26.2 S 189.1 19.3 185.7 19.3 Z M 211 19.3 C 207.8 19.3 204.2 22.2 204.2 26.2 C 204.2 29.9 207.1 33 211.1 33 C 214.5 33 217.9 30.3 217.9 26.2 S 214.4 19.3 211 19.3 Z M 200.3 46.8 C 185.2 46.8 173.2 60.3 173.2 76.6 C 173.2 94 186.9 106.7 201.9 106.7 C 217.8 106.7 223.7 92.2 223.7 89.7 C 223.7 88.4 222.6 88.2 222 88.2 C 220.8 88.2 220.5 88.9 220.3 90 C 215.7 103.4 204 103.4 202.7 103.4 C 196.2 103.4 190.9 99.5 187.9 94.7 C 184 88.4 184 79.8 184 75.1 L 220.4 75.1 C 223.3 75.1 223.7 75.1 223.7 72.4 C 223.7 59.5 216.6 46.8 200.3 46.8 Z M 200.3 49.7 C 213.8 49.7 215.1 67.3 215.1 72.4 L 184.2 72.4 C 184.9 53 195.9 49.7 200.3 49.7 Z M 256.3 91.4 C 252.5 91.4 249.4 94.5 249.4 98.3 S 252.5 105.2 256.3 105.2 S 263.2 102.1 263.2 98.3 S 260.1 91.4 256.3 91.4 Z" />
</svg>