<?xml version="1.0" encoding="utf-8"?>
<svg width="360" height="120" viewBox="0 0 360 120" xmlns="http://www.w3.org/2000/svg">
  <path d="M 257 13 C 243 13 235 22 235 31 C 235 35 238 37 241 37 C 244 37 247 34 247 31 C 247 25 241 25 239 25 C 243 18 251 16 256 16 C 271 16 271 25 271 30 C 271 38 269 40 266 43 C 258 52 255 64 255 72 L 255 78 C 255 80 255 81 256 81 C 258 81 258 80 258 77 L 258 73 C 258 56 271 47 275 44 C 279 41 281 36 281 31 C 281 23 276 13 257 13 Z M 309 15 C 303 15 299 19 299 25 S 303 35 309 35 C 312 35 314 34 316 32 C 315 52 303 54 303 58 C 303 59 304 60 305 60 C 308 60 321 49 321 31 C 321 22 316 15 309 15 Z M 344 15 C 338 15 334 19 334 25 S 338 35 344 35 C 347 35 349 34 352 32 C 350 51 338 55 338 58 C 338 59 339 60 340 60 C 343 60 356 49 356 31 C 356 22 351 15 344 15 Z M 20 15 C 17 15 4 27 4 44 C 4 53 9 60 16 60 C 22 60 26 55 26 50 C 26 45 22 40 16 40 C 13 40 11 41 8 43 C 10 24 22 21 22 17 C 22 16 21 15 20 15 Z M 55 15 C 52 15 39 27 39 44 C 39 53 44 60 51 60 C 58 60 61 55 61 50 C 61 45 57 40 51 40 C 48 40 46 41 44 43 C 45 24 57 21 57 17 C 57 16 56 15 55 15 Z M 73 16 L 73 20 L 73 20 C 83 20 86 20 86 26 L 86 47 C 86 51 86 55 93 60 C 101 66 108 66 111 66 L 115 66 C 120 66 132 66 140 62 L 140 95 C 140 101 138 101 128 101 L 127 101 L 127 105 C 132 105 138 105 145 105 C 152 105 159 105 165 105 L 165 101 L 163 101 C 153 101 152 100 152 96 L 152 26 C 152 21 154 20 163 20 L 165 20 L 165 16 C 159 16 153 17 147 17 C 140 17 133 16 127 16 L 127 20 L 128 20 C 139 20 140 21 140 26 L 140 59 C 136 61 130 63 115 63 L 111 63 C 109 63 105 63 101 59 C 98 55 98 52 98 47 L 98 26 C 98 21 99 20 110 20 L 111 20 L 111 16 C 105 16 99 17 93 17 C 86 17 79 16 73 16 Z M 186 19 C 182 19 179 22 179 26 C 179 30 182 33 186 33 C 189 33 193 30 193 26 S 189 19 186 19 Z M 211 19 C 208 19 204 22 204 26 C 204 30 207 33 211 33 C 215 33 218 30 218 26 S 214 19 211 19 Z M 200 47 C 185 47 173 60 173 77 C 173 94 187 107 202 107 C 218 107 224 92 224 90 C 224 88 223 88 222 88 C 221 88 221 89 220 90 C 216 103 204 103 203 103 C 196 103 191 99 188 95 C 184 88 184 80 184 75 L 220 75 C 223 75 224 75 224 72 C 224 59 217 47 200 47 Z M 200 50 C 214 50 215 67 215 72 L 184 72 C 185 53 196 50 200 50 Z M 256 91 C 253 91 249 95 249 98 S 253 105 256 105 S 263 102 263 98 S 260 91 256 91 Z" />
</svg>