<?xml version="1.0" encoding="UTF-8"?>
<svg width="28" height="32" viewBox="-28 -24 28 32" xmlns="http://www.w3.org/2000/svg">
  <desc>־ךָ</desc>
  <g>
    <g transform="translate(-8.5 0)">
      <path opacity="0.2" d="M -6 -14 V 0 H 6 V -14 Z M -4.6 -13 H 4.6 V -1 H -4.6 Z"/>
    </g>
    <g transform="translate(-22.7 0)">
      <path d="M -1.2 -14 C -2.8 -14 -4.1 -14 -5.4 -13.8 C -5.5 -13.8 -5.6 -13.8 -5.6 -13.7 S -5.6 -13.5 -5.6 -13.3 C -5.6 -13.1 -5.6 -13 -5.6 -12.9 S -5.5 -12.9 -5.4 -12.9 C -4.6 -13 -3.9 -13 -3.2 -13 S -1.9 -13.1 -1.3 -13.1 C -0.1 -13.1 0.7 -13 1.2 -12.8 H 1.2 C 1.7 -12.5 2.1 -12.2 2.3 -11.6 C 2.5 -11 2.6 -10 2.6 -8.5 V 4.8 C 2.6 4.8 2.6 4.8 2.6 4.8 S 2.6 4.9 2.6 4.9 C 2.7 4.9 2.9 5 3.2 5 S 3.7 4.9 3.8 4.9 A 0.2 0.2 0 0 1 3.8 4.9 C 3.9 4.9 3.9 4.8 3.9 4.8 S 3.9 4.8 3.9 4.8 V -8.6 C 3.9 -10.2 3.7 -11.4 3.4 -12 S 2.7 -13.2 1.9 -13.6 S 0.2 -14 -1.2 -14 Z"/>
      <path transform="translate(-2 -11)" d="M -2.8 3 H 2.8 C 2.9 3 3 3.1 3 3.5 S 2.9 4 2.8 4 H 0.8 C 0.7 4 0.6 4.2 0.6 4.2 V 7.8 C 0.6 7.9 0.5 8 0 8 S -0.6 7.9 -0.6 7.8 V 4.2 C -0.6 4.2 -0.7 4 -0.8 4 H -2.8 C -2.9 4 -3 3.9 -3 3.5 S -2.9 3 -2.8 3 Z"/>
    </g>
  </g>
</svg>